<ttFont>
<head>
    <!-- Most of this table will be recalculated by the compiler -->
    <tableVersion value="1.0"/>
    <fontRevision value="1.0"/>
    <checkSumAdjustment value="0xd1a91d43"/>
    <magicNumber value="0x5f0f3cf5"/>
    <flags value="00000000 00011111"/>
    <unitsPerEm value="1000"/>
    <created value="Fri Jan  9 08:15:22 2015"/>
    <modified value="Fri Jan  9 08:15:22 2015"/>
    <xMin value="-253"/>
    <yMin value="-201"/>
    <xMax value="1227"/>
    <yMax value="935"/>
    <macStyle value="00000000 00000000"/>
    <lowestRecPPEM value="8"/>
    <fontDirectionHint value="2"/>
    <indexToLocFormat value="0"/>
    <glyphDataFormat value="0"/>
  </head>
    <TTGlyph name=".notdef" xMin="48" yMin="-15" xMax="744" yMax="684">
      <contour>
        <pt x="251" y="684" on="0"/>
        <pt x="541" y="684" on="0"/>
        <pt x="744" y="484" on="0"/>
        <pt x="744" y="333" on="1"/>
        <pt x="744" y="184" on="0"/>
        <pt x="541" y="-15" on="0"/>
        <pt x="251" y="-15" on="0"/>
        <pt x="48" y="184" on="0"/>
        <pt x="48" y="333" on="1"/>
        <pt x="48" y="484" on="0"/>
      </contour>
      <contour>
        <pt x="524" y="647" on="0"/>
        <pt x="268" y="647" on="0"/>
        <pt x="88" y="469" on="0"/>
        <pt x="88" y="334" on="1"/>
        <pt x="88" y="201" on="0"/>
        <pt x="268" y="22" on="0"/>
        <pt x="524" y="22" on="0"/>
        <pt x="704" y="201" on="0"/>
        <pt x="704" y="334" on="1"/>
        <pt x="704" y="469" on="0"/>
      </contour>
      <contour>
        <pt x="527" y="400" on="1"/>
        <pt x="527" y="355" on="0"/>
        <pt x="463" y="295" on="0"/>
        <pt x="413" y="290" on="1"/>
        <pt x="413" y="247" on="1"/>
        <pt x="369" y="247" on="1"/>
        <pt x="369" y="328" on="1"/>
        <pt x="395" y="328" on="1"/>
        <pt x="432" y="328" on="0"/>
        <pt x="481" y="368" on="0"/>
        <pt x="481" y="400" on="1"/>
        <pt x="481" y="434" on="0"/>
        <pt x="436" y="476" on="0"/>
        <pt x="398" y="476" on="1"/>
        <pt x="358" y="476" on="0"/>
        <pt x="310" y="427" on="0"/>
        <pt x="309" y="388" on="1"/>
        <pt x="263" y="396" on="1"/>
        <pt x="264" y="448" on="0"/>
        <pt x="339" y="518" on="0"/>
        <pt x="398" y="518" on="1"/>
        <pt x="456" y="518" on="0"/>
        <pt x="527" y="453" on="0"/>
      </contour>
      <contour>
        <pt x="377" y="202" on="0"/>
        <pt x="403" y="202" on="0"/>
        <pt x="421" y="185" on="0"/>
        <pt x="421" y="173" on="1"/>
        <pt x="421" y="159" on="0"/>
        <pt x="403" y="141" on="0"/>
        <pt x="377" y="141" on="0"/>
        <pt x="359" y="160" on="0"/>
        <pt x="359" y="173" on="1"/>
        <pt x="359" y="184" on="0"/>
      </contour>
    </TTGlyph>
    <TTGlyph name="A" xMin="-42" yMin="0" xMax="631" yMax="670">
      <contour>
        <pt x="631" y="0" on="1"/>
        <pt x="551" y="0" on="1"/>
        <pt x="516" y="170" on="1"/>
        <pt x="162" y="170" on="1"/>
        <pt x="48" y="0" on="1"/>
        <pt x="-42" y="0" on="1"/>
        <pt x="413" y="670" on="1"/>
        <pt x="486" y="670" on="1"/>
      </contour>
      <contour>
        <pt x="501" y="241" on="1"/>
        <pt x="432" y="572" on="1"/>
        <pt x="210" y="241" on="1"/>
      </contour>
    </TTGlyph>
    <TTGlyph name="AE" xMin="-42" yMin="0" xMax="1179" yMax="670">
      <contour>
        <pt x="753" y="599" on="1"/>
        <pt x="701" y="372" on="1"/>
        <pt x="1080" y="372" on="1"/>
        <pt x="1064" y="301" on="1"/>
        <pt x="684" y="301" on="1"/>
        <pt x="632" y="72" on="1"/>
        <pt x="1042" y="72" on="1"/>
        <pt x="1025" y="0" on="1"/>
        <pt x="536" y="0" on="1"/>
        <pt x="572" y="155" on="1"/>
        <pt x="229" y="155" on="1"/>
        <pt x="64" y="0" on="1"/>
        <pt x="-42" y="0" on="1"/>
        <pt x="681" y="670" on="1"/>
        <pt x="1179" y="670" on="1"/>
        <pt x="1162" y="599" on="1"/>
      </contour>
      <contour>
        <pt x="587" y="226" on="1"/>
        <pt x="666" y="566" on="1"/>
        <pt x="304" y="226" on="1"/>
      </contour>
    </TTGlyph>
    <TTGlyph name="AEacute" xMin="-42" yMin="0" xMax="1179" yMax="885">
      <contour>
        <pt x="925" y="745" on="1"/>
        <pt x="853" y="745" on="1"/>
        <pt x="965" y="885" on="1"/>
        <pt x="1062" y="885" on="1"/>
      </contour>
      <contour>
        <pt x="753" y="599" on="1"/>
        <pt x="701" y="372" on="1"/>
        <pt x="1080" y="372" on="1"/>
        <pt x="1064" y="301" on="1"/>
        <pt x="684" y="301" on="1"/>
        <pt x="632" y="72" on="1"/>
        <pt x="1042" y="72" on="1"/>
        <pt x="1025" y="0" on="1"/>
        <pt x="536" y="0" on="1"/>
        <pt x="572" y="155" on="1"/>
        <pt x="229" y="155" on="1"/>
        <pt x="64" y="0" on="1"/>
        <pt x="-42" y="0" on="1"/>
        <pt x="681" y="670" on="1"/>
        <pt x="1179" y="670" on="1"/>
        <pt x="1162" y="599" on="1"/>
      </contour>
      <contour>
        <pt x="587" y="226" on="1"/>
        <pt x="666" y="566" on="1"/>
        <pt x="304" y="226" on="1"/>
      </contour>
    </TTGlyph>
    <TTGlyph name="Aacute" xMin="-42" yMin="0" xMax="646" yMax="885">
      <contour>
        <pt x="509" y="745" on="1"/>
        <pt x="437" y="745" on="1"/>
        <pt x="549" y="885" on="1"/>
        <pt x="646" y="885" on="1"/>
      </contour>
      <contour>
        <pt x="486" y="670" on="1"/>
        <pt x="631" y="0" on="1"/>
        <pt x="551" y="0" on="1"/>
        <pt x="516" y="170" on="1"/>
        <pt x="162" y="170" on="1"/>
        <pt x="48" y="0" on="1"/>
        <pt x="-42" y="0" on="1"/>
        <pt x="413" y="670" on="1"/>
      </contour>
      <contour>
        <pt x="501" y="241" on="1"/>
        <pt x="432" y="572" on="1"/>
        <pt x="210" y="241" on="1"/>
      </contour>
    </TTGlyph>
    <TTGlyph name="Abreve" xMin="-42" yMin="0" xMax="640" yMax="867">
      <contour>
        <pt x="533" y="732" on="0"/>
        <pt x="403" y="732" on="0"/>
        <pt x="337" y="806" on="0"/>
        <pt x="350" y="867" on="1"/>
        <pt x="411" y="867" on="1"/>
        <pt x="404" y="831" on="0"/>
        <pt x="441" y="787" on="0"/>
        <pt x="476" y="787" on="1"/>
        <pt x="510" y="787" on="0"/>
        <pt x="565" y="831" on="0"/>
        <pt x="572" y="867" on="1"/>
        <pt x="640" y="867" on="1"/>
        <pt x="627" y="806" on="0"/>
      </contour>
      <contour>
        <pt x="486" y="670" on="1"/>
        <pt x="631" y="0" on="1"/>
        <pt x="551" y="0" on="1"/>
        <pt x="516" y="170" on="1"/>
        <pt x="162" y="170" on="1"/>
        <pt x="48" y="0" on="1"/>
        <pt x="-42" y="0" on="1"/>
        <pt x="413" y="670" on="1"/>
      </contour>
      <contour>
        <pt x="501" y="241" on="1"/>
        <pt x="432" y="572" on="1"/>
        <pt x="210" y="241" on="1"/>
      </contour>
    </TTGlyph>
    <TTGlyph name="Acircumflex" xMin="-42" yMin="0" xMax="633" yMax="879">
      <contour>
        <pt x="409" y="737" on="1"/>
        <pt x="327" y="737" on="1"/>
        <pt x="477" y="879" on="1"/>
        <pt x="549" y="879" on="1"/>
        <pt x="633" y="737" on="1"/>
        <pt x="560" y="737" on="1"/>
        <pt x="506" y="830" on="1"/>
      </contour>
      <contour>
        <pt x="486" y="670" on="1"/>
        <pt x="631" y="0" on="1"/>
        <pt x="551" y="0" on="1"/>
        <pt x="516" y="170" on="1"/>
        <pt x="162" y="170" on="1"/>
        <pt x="48" y="0" on="1"/>
        <pt x="-42" y="0" on="1"/>
        <pt x="413" y="670" on="1"/>
      </contour>
      <contour>
        <pt x="501" y="241" on="1"/>
        <pt x="432" y="572" on="1"/>
        <pt x="210" y="241" on="1"/>
      </contour>
    </TTGlyph>
    <TTGlyph name="Adieresis" xMin="-42" yMin="0" xMax="633" yMax="857">
      <contour>
        <pt x="382" y="755" on="1"/>
        <pt x="360" y="755" on="0"/>
        <pt x="330" y="784" on="0"/>
        <pt x="330" y="806" on="1"/>
        <pt x="330" y="827" on="0"/>
        <pt x="360" y="857" on="0"/>
        <pt x="404" y="857" on="0"/>
        <pt x="435" y="827" on="0"/>
        <pt x="435" y="806" on="1"/>
        <pt x="435" y="784" on="0"/>
        <pt x="405" y="755" on="0"/>
      </contour>
      <contour>
        <pt x="580" y="755" on="1"/>
        <pt x="558" y="755" on="0"/>
        <pt x="528" y="784" on="0"/>
        <pt x="528" y="806" on="1"/>
        <pt x="528" y="827" on="0"/>
        <pt x="558" y="857" on="0"/>
        <pt x="602" y="857" on="0"/>
        <pt x="633" y="827" on="0"/>
        <pt x="633" y="806" on="1"/>
        <pt x="633" y="784" on="0"/>
        <pt x="603" y="755" on="0"/>
      </contour>
      <contour>
        <pt x="486" y="670" on="1"/>
        <pt x="631" y="0" on="1"/>
        <pt x="551" y="0" on="1"/>
        <pt x="516" y="170" on="1"/>
        <pt x="162" y="170" on="1"/>
        <pt x="48" y="0" on="1"/>
        <pt x="-42" y="0" on="1"/>
        <pt x="413" y="670" on="1"/>
      </contour>
      <contour>
        <pt x="501" y="241" on="1"/>
        <pt x="432" y="572" on="1"/>
        <pt x="210" y="241" on="1"/>
      </contour>
    </TTGlyph>
    <TTGlyph name="Agrave" xMin="-42" yMin="0" xMax="631" yMax="885">
      <contour>
        <pt x="432" y="745" on="1"/>
        <pt x="295" y="885" on="1"/>
        <pt x="391" y="885" on="1"/>
        <pt x="503" y="745" on="1"/>
      </contour>
      <contour>
        <pt x="631" y="0" on="1"/>
        <pt x="551" y="0" on="1"/>
        <pt x="516" y="170" on="1"/>
        <pt x="162" y="170" on="1"/>
        <pt x="48" y="0" on="1"/>
        <pt x="-42" y="0" on="1"/>
        <pt x="413" y="670" on="1"/>
        <pt x="486" y="670" on="1"/>
      </contour>
      <contour>
        <pt x="501" y="241" on="1"/>
        <pt x="432" y="572" on="1"/>
        <pt x="210" y="241" on="1"/>
      </contour>
    </TTGlyph>
    <TTGlyph name="Amacron" xMin="-42" yMin="0" xMax="631" yMax="824">
      <contour>
        <pt x="613" y="762" on="1"/>
        <pt x="329" y="762" on="1"/>
        <pt x="343" y="824" on="1"/>
        <pt x="627" y="824" on="1"/>
      </contour>
      <contour>
        <pt x="631" y="0" on="1"/>
        <pt x="551" y="0" on="1"/>
        <pt x="516" y="170" on="1"/>
        <pt x="162" y="170" on="1"/>
        <pt x="48" y="0" on="1"/>
        <pt x="-42" y="0" on="1"/>
        <pt x="413" y="670" on="1"/>
        <pt x="486" y="670" on="1"/>
      </contour>
      <contour>
        <pt x="501" y="241" on="1"/>
        <pt x="432" y="572" on="1"/>
        <pt x="210" y="241" on="1"/>
      </contour>
    </TTGlyph>
    <TTGlyph name="Aogonek" xMin="-42" yMin="-201" xMax="631" yMax="670">
      <contour>
        <pt x="535" y="-111" on="1"/>
        <pt x="535" y="-145" on="0"/>
        <pt x="575" y="-145" on="1"/>
        <pt x="588" y="-145" on="0"/>
        <pt x="623" y="-135" on="1"/>
        <pt x="615" y="-185" on="1"/>
        <pt x="579" y="-201" on="0"/>
        <pt x="552" y="-201" on="1"/>
        <pt x="517" y="-201" on="0"/>
        <pt x="473" y="-161" on="0"/>
        <pt x="473" y="-128" on="1"/>
        <pt x="473" y="-98" on="0"/>
        <pt x="516" y="-42" on="0"/>
        <pt x="571" y="0" on="1"/>
        <pt x="551" y="0" on="1"/>
        <pt x="516" y="170" on="1"/>
        <pt x="162" y="170" on="1"/>
        <pt x="48" y="0" on="1"/>
        <pt x="-42" y="0" on="1"/>
        <pt x="413" y="670" on="1"/>
        <pt x="486" y="670" on="1"/>
        <pt x="631" y="0" on="1"/>
        <pt x="622" y="-8" on="0"/>
        <pt x="590" y="-34" on="0"/>
        <pt x="578" y="-45" on="0"/>
        <pt x="557" y="-65" on="0"/>
        <pt x="549" y="-75" on="0"/>
        <pt x="538" y="-90" on="0"/>
        <pt x="535" y="-104" on="0"/>
      </contour>
      <contour>
        <pt x="501" y="241" on="1"/>
        <pt x="432" y="572" on="1"/>
        <pt x="210" y="241" on="1"/>
      </contour>
    </TTGlyph>
    <TTGlyph name="Aring" xMin="-42" yMin="0" xMax="631" yMax="928">
      <contour>
        <pt x="476" y="727" on="1"/>
        <pt x="435" y="727" on="0"/>
        <pt x="381" y="782" on="0"/>
        <pt x="381" y="821" on="1"/>
        <pt x="381" y="865" on="0"/>
        <pt x="447" y="928" on="0"/>
        <pt x="493" y="928" on="1"/>
        <pt x="534" y="928" on="0"/>
        <pt x="588" y="874" on="0"/>
        <pt x="588" y="835" on="1"/>
        <pt x="588" y="791" on="0"/>
        <pt x="522" y="727" on="0"/>
      </contour>
      <contour>
        <pt x="489" y="882" on="1"/>
        <pt x="464" y="882" on="0"/>
        <pt x="430" y="848" on="0"/>
        <pt x="430" y="824" on="1"/>
        <pt x="430" y="803" on="0"/>
        <pt x="458" y="774" on="0"/>
        <pt x="480" y="774" on="1"/>
        <pt x="505" y="774" on="0"/>
        <pt x="541" y="809" on="0"/>
        <pt x="541" y="832" on="1"/>
        <pt x="541" y="853" on="0"/>
        <pt x="511" y="882" on="0"/>
      </contour>
      <contour>
        <pt x="631" y="0" on="1"/>
        <pt x="551" y="0" on="1"/>
        <pt x="516" y="170" on="1"/>
        <pt x="162" y="170" on="1"/>
        <pt x="48" y="0" on="1"/>
        <pt x="-42" y="0" on="1"/>
        <pt x="413" y="670" on="1"/>
        <pt x="486" y="670" on="1"/>
      </contour>
      <contour>
        <pt x="501" y="241" on="1"/>
        <pt x="432" y="572" on="1"/>
        <pt x="210" y="241" on="1"/>
      </contour>
    </TTGlyph>
    <TTGlyph name="Atilde" xMin="-42" yMin="0" xMax="648" yMax="873">
      <contour>
        <pt x="427" y="816" on="1"/>
        <pt x="409" y="816" on="0"/>
        <pt x="384" y="791" on="0"/>
        <pt x="379" y="771" on="1"/>
        <pt x="325" y="771" on="1"/>
        <pt x="337" y="823" on="0"/>
        <pt x="399" y="873" on="0"/>
        <pt x="436" y="873" on="1"/>
        <pt x="468" y="873" on="0"/>
        <pt x="526" y="825" on="0"/>
        <pt x="547" y="825" on="1"/>
        <pt x="564" y="825" on="0"/>
        <pt x="589" y="851" on="0"/>
        <pt x="594" y="872" on="1"/>
        <pt x="648" y="872" on="1"/>
        <pt x="636" y="819" on="0"/>
        <pt x="574" y="768" on="0"/>
        <pt x="538" y="768" on="1"/>
        <pt x="506" y="768" on="0"/>
        <pt x="448" y="816" on="0"/>
      </contour>
      <contour>
        <pt x="486" y="670" on="1"/>
        <pt x="631" y="0" on="1"/>
        <pt x="551" y="0" on="1"/>
        <pt x="516" y="170" on="1"/>
        <pt x="162" y="170" on="1"/>
        <pt x="48" y="0" on="1"/>
        <pt x="-42" y="0" on="1"/>
        <pt x="413" y="670" on="1"/>
      </contour>
      <contour>
        <pt x="501" y="241" on="1"/>
        <pt x="432" y="572" on="1"/>
        <pt x="210" y="241" on="1"/>
      </contour>
    </TTGlyph>
    <TTGlyph name="B" xMin="37" yMin="0" xMax="659" yMax="670">
      <contour>
        <pt x="514" y="344" on="1"/>
        <pt x="513" y="341" on="1"/>
        <pt x="559" y="334" on="0"/>
        <pt x="614" y="268" on="0"/>
        <pt x="614" y="215" on="1"/>
        <pt x="614" y="124" on="0"/>
        <pt x="470" y="0" on="0"/>
        <pt x="355" y="0" on="1"/>
        <pt x="37" y="0" on="1"/>
        <pt x="176" y="602" on="1"/>
        <pt x="192" y="670" on="1"/>
        <pt x="485" y="670" on="1"/>
        <pt x="565" y="670" on="0"/>
        <pt x="659" y="591" on="0"/>
        <pt x="659" y="524" on="1"/>
        <pt x="659" y="456" on="0"/>
        <pt x="569" y="355" on="0"/>
      </contour>
      <contour>
        <pt x="256" y="602" on="1"/>
        <pt x="202" y="370" on="1"/>
        <pt x="423" y="370" on="1"/>
        <pt x="488" y="370" on="0"/>
        <pt x="579" y="452" on="0"/>
        <pt x="579" y="509" on="1"/>
        <pt x="579" y="553" on="0"/>
        <pt x="519" y="602" on="0"/>
        <pt x="469" y="602" on="1"/>
      </contour>
      <contour>
        <pt x="132" y="68" on="1"/>
        <pt x="366" y="68" on="1"/>
        <pt x="440" y="68" on="0"/>
        <pt x="534" y="151" on="0"/>
        <pt x="534" y="212" on="1"/>
        <pt x="534" y="256" on="0"/>
        <pt x="476" y="306" on="0"/>
        <pt x="425" y="306" on="1"/>
        <pt x="187" y="306" on="1"/>
      </contour>
    </TTGlyph>
    <TTGlyph name="C" xMin="74" yMin="-13" xMax="765" yMax="683">
      <contour>
        <pt x="478" y="683" on="1"/>
        <pt x="592" y="683" on="0"/>
        <pt x="748" y="567" on="0"/>
        <pt x="765" y="471" on="1"/>
        <pt x="685" y="454" on="1"/>
        <pt x="669" y="525" on="0"/>
        <pt x="561" y="610" on="0"/>
        <pt x="476" y="610" on="1"/>
        <pt x="347" y="610" on="0"/>
        <pt x="155" y="425" on="0"/>
        <pt x="155" y="296" on="1"/>
        <pt x="155" y="194" on="0"/>
        <pt x="281" y="61" on="0"/>
        <pt x="386" y="61" on="1"/>
        <pt x="471" y="61" on="0"/>
        <pt x="610" y="147" on="0"/>
        <pt x="645" y="215" on="1"/>
        <pt x="717" y="191" on="1"/>
        <pt x="674" y="99" on="0"/>
        <pt x="498" y="-13" on="0"/>
        <pt x="383" y="-13" on="1"/>
        <pt x="244" y="-13" on="0"/>
        <pt x="74" y="158" on="0"/>
        <pt x="74" y="291" on="1"/>
        <pt x="74" y="452" on="0"/>
        <pt x="311" y="683" on="0"/>
      </contour>
    </TTGlyph>
    <TTGlyph name="Cacute" xMin="74" yMin="-13" xMax="765" yMax="885">
      <contour>
        <pt x="540" y="745" on="1"/>
        <pt x="468" y="745" on="1"/>
        <pt x="580" y="885" on="1"/>
        <pt x="677" y="885" on="1"/>
      </contour>
      <contour>
        <pt x="478" y="683" on="1"/>
        <pt x="592" y="683" on="0"/>
        <pt x="748" y="567" on="0"/>
        <pt x="765" y="471" on="1"/>
        <pt x="685" y="454" on="1"/>
        <pt x="669" y="525" on="0"/>
        <pt x="561" y="610" on="0"/>
        <pt x="476" y="610" on="1"/>
        <pt x="347" y="610" on="0"/>
        <pt x="155" y="425" on="0"/>
        <pt x="155" y="296" on="1"/>
        <pt x="155" y="194" on="0"/>
        <pt x="281" y="61" on="0"/>
        <pt x="386" y="61" on="1"/>
        <pt x="471" y="61" on="0"/>
        <pt x="610" y="147" on="0"/>
        <pt x="645" y="215" on="1"/>
        <pt x="717" y="191" on="1"/>
        <pt x="674" y="99" on="0"/>
        <pt x="498" y="-13" on="0"/>
        <pt x="383" y="-13" on="1"/>
        <pt x="244" y="-13" on="0"/>
        <pt x="74" y="158" on="0"/>
        <pt x="74" y="291" on="1"/>
        <pt x="74" y="452" on="0"/>
        <pt x="311" y="683" on="0"/>
      </contour>
    </TTGlyph>
    <TTGlyph name="Ccaron" xMin="74" yMin="-13" xMax="765" yMax="880">
      <contour>
        <pt x="461" y="738" on="1"/>
        <pt x="377" y="880" on="1"/>
        <pt x="451" y="880" on="1"/>
        <pt x="504" y="788" on="1"/>
        <pt x="601" y="880" on="1"/>
        <pt x="684" y="880" on="1"/>
        <pt x="534" y="738" on="1"/>
      </contour>
      <contour>
        <pt x="386" y="61" on="1"/>
        <pt x="471" y="61" on="0"/>
        <pt x="610" y="147" on="0"/>
        <pt x="645" y="215" on="1"/>
        <pt x="717" y="191" on="1"/>
        <pt x="674" y="99" on="0"/>
        <pt x="498" y="-13" on="0"/>
        <pt x="383" y="-13" on="1"/>
        <pt x="244" y="-13" on="0"/>
        <pt x="74" y="158" on="0"/>
        <pt x="74" y="291" on="1"/>
        <pt x="74" y="452" on="0"/>
        <pt x="311" y="683" on="0"/>
        <pt x="478" y="683" on="1"/>
        <pt x="592" y="683" on="0"/>
        <pt x="748" y="567" on="0"/>
        <pt x="765" y="471" on="1"/>
        <pt x="685" y="454" on="1"/>
        <pt x="669" y="525" on="0"/>
        <pt x="561" y="610" on="0"/>
        <pt x="476" y="610" on="1"/>
        <pt x="347" y="610" on="0"/>
        <pt x="155" y="425" on="0"/>
        <pt x="155" y="296" on="1"/>
        <pt x="155" y="194" on="0"/>
        <pt x="281" y="61" on="0"/>
      </contour>
    </TTGlyph>
    <TTGlyph name="Ccedilla" xMin="74" yMin="-170" xMax="765" yMax="683">
      <contour>
        <pt x="386" y="61" on="1"/>
        <pt x="471" y="61" on="0"/>
        <pt x="610" y="147" on="0"/>
        <pt x="645" y="215" on="1"/>
        <pt x="717" y="191" on="1"/>
        <pt x="675" y="101" on="0"/>
        <pt x="502" y="-12" on="0"/>
        <pt x="389" y="-13" on="1"/>
        <pt x="283" y="-170" on="1"/>
        <pt x="191" y="-170" on="1"/>
        <pt x="329" y="-9" on="1"/>
        <pt x="212" y="7" on="0"/>
        <pt x="74" y="172" on="0"/>
        <pt x="74" y="291" on="1"/>
        <pt x="74" y="452" on="0"/>
        <pt x="311" y="683" on="0"/>
        <pt x="478" y="683" on="1"/>
        <pt x="592" y="683" on="0"/>
        <pt x="748" y="567" on="0"/>
        <pt x="765" y="471" on="1"/>
        <pt x="685" y="454" on="1"/>
        <pt x="669" y="525" on="0"/>
        <pt x="561" y="610" on="0"/>
        <pt x="476" y="610" on="1"/>
        <pt x="347" y="610" on="0"/>
        <pt x="155" y="425" on="0"/>
        <pt x="155" y="296" on="1"/>
        <pt x="155" y="194" on="0"/>
        <pt x="281" y="61" on="0"/>
      </contour>
    </TTGlyph>
    <TTGlyph name="Cdotaccent" xMin="74" yMin="-13" xMax="765" yMax="862">
      <contour>
        <pt x="512" y="862" on="1"/>
        <pt x="533" y="862" on="0"/>
        <pt x="563" y="833" on="0"/>
        <pt x="563" y="813" on="1"/>
        <pt x="563" y="791" on="0"/>
        <pt x="534" y="763" on="0"/>
        <pt x="490" y="763" on="0"/>
        <pt x="461" y="791" on="0"/>
        <pt x="461" y="813" on="1"/>
        <pt x="461" y="833" on="0"/>
        <pt x="490" y="862" on="0"/>
      </contour>
      <contour>
        <pt x="478" y="683" on="1"/>
        <pt x="592" y="683" on="0"/>
        <pt x="748" y="567" on="0"/>
        <pt x="765" y="471" on="1"/>
        <pt x="685" y="454" on="1"/>
        <pt x="669" y="525" on="0"/>
        <pt x="561" y="610" on="0"/>
        <pt x="476" y="610" on="1"/>
        <pt x="347" y="610" on="0"/>
        <pt x="155" y="425" on="0"/>
        <pt x="155" y="296" on="1"/>
        <pt x="155" y="194" on="0"/>
        <pt x="281" y="61" on="0"/>
        <pt x="386" y="61" on="1"/>
        <pt x="471" y="61" on="0"/>
        <pt x="610" y="147" on="0"/>
        <pt x="645" y="215" on="1"/>
        <pt x="717" y="191" on="1"/>
        <pt x="674" y="99" on="0"/>
        <pt x="498" y="-13" on="0"/>
        <pt x="383" y="-13" on="1"/>
        <pt x="244" y="-13" on="0"/>
        <pt x="74" y="158" on="0"/>
        <pt x="74" y="291" on="1"/>
        <pt x="74" y="452" on="0"/>
        <pt x="311" y="683" on="0"/>
      </contour>
    </TTGlyph>
    <TTGlyph name="D" xMin="31" yMin="0" xMax="712" yMax="670">
      <contour>
        <pt x="186" y="670" on="1"/>
        <pt x="407" y="670" on="1"/>
        <pt x="553" y="670" on="0"/>
        <pt x="712" y="518" on="0"/>
        <pt x="712" y="395" on="1"/>
        <pt x="712" y="232" on="0"/>
        <pt x="457" y="0" on="0"/>
        <pt x="260" y="0" on="1"/>
        <pt x="31" y="0" on="1"/>
      </contour>
      <contour>
        <pt x="127" y="72" on="1"/>
        <pt x="252" y="72" on="1"/>
        <pt x="415" y="72" on="0"/>
        <pt x="630" y="261" on="0"/>
        <pt x="630" y="393" on="1"/>
        <pt x="630" y="487" on="0"/>
        <pt x="512" y="599" on="0"/>
        <pt x="399" y="599" on="1"/>
        <pt x="249" y="599" on="1"/>
      </contour>
    </TTGlyph>
    <TTGlyph name="Dcaron" xMin="31" yMin="0" xMax="712" yMax="880">
      <contour>
        <pt x="428" y="738" on="1"/>
        <pt x="344" y="880" on="1"/>
        <pt x="418" y="880" on="1"/>
        <pt x="471" y="788" on="1"/>
        <pt x="568" y="880" on="1"/>
        <pt x="651" y="880" on="1"/>
        <pt x="501" y="738" on="1"/>
      </contour>
      <contour>
        <pt x="186" y="670" on="1"/>
        <pt x="407" y="670" on="1"/>
        <pt x="553" y="670" on="0"/>
        <pt x="712" y="518" on="0"/>
        <pt x="712" y="395" on="1"/>
        <pt x="712" y="232" on="0"/>
        <pt x="457" y="0" on="0"/>
        <pt x="260" y="0" on="1"/>
        <pt x="31" y="0" on="1"/>
      </contour>
      <contour>
        <pt x="127" y="72" on="1"/>
        <pt x="252" y="72" on="1"/>
        <pt x="415" y="72" on="0"/>
        <pt x="630" y="261" on="0"/>
        <pt x="630" y="393" on="1"/>
        <pt x="630" y="487" on="0"/>
        <pt x="512" y="599" on="0"/>
        <pt x="399" y="599" on="1"/>
        <pt x="249" y="599" on="1"/>
      </contour>
    </TTGlyph>
    <TTGlyph name="Dcroat" xMin="47" yMin="0" xMax="747" yMax="670">
      <contour>
        <pt x="221" y="670" on="1"/>
        <pt x="442" y="670" on="1"/>
        <pt x="588" y="670" on="0"/>
        <pt x="747" y="518" on="0"/>
        <pt x="747" y="395" on="1"/>
        <pt x="747" y="232" on="0"/>
        <pt x="492" y="0" on="0"/>
        <pt x="295" y="0" on="1"/>
        <pt x="66" y="0" on="1"/>
        <pt x="136" y="302" on="1"/>
        <pt x="47" y="302" on="1"/>
        <pt x="63" y="373" on="1"/>
        <pt x="152" y="373" on="1"/>
      </contour>
      <contour>
        <pt x="162" y="72" on="1"/>
        <pt x="287" y="72" on="1"/>
        <pt x="449" y="72" on="0"/>
        <pt x="665" y="261" on="0"/>
        <pt x="665" y="393" on="1"/>
        <pt x="665" y="487" on="0"/>
        <pt x="546" y="599" on="0"/>
        <pt x="434" y="599" on="1"/>
        <pt x="284" y="599" on="1"/>
        <pt x="232" y="373" on="1"/>
        <pt x="391" y="373" on="1"/>
        <pt x="375" y="302" on="1"/>
        <pt x="215" y="302" on="1"/>
      </contour>
    </TTGlyph>
    <TTGlyph name="E" xMin="31" yMin="0" xMax="674" yMax="670">
      <contour>
        <pt x="249" y="599" on="1"/>
        <pt x="196" y="372" on="1"/>
        <pt x="576" y="372" on="1"/>
        <pt x="560" y="301" on="1"/>
        <pt x="180" y="301" on="1"/>
        <pt x="127" y="72" on="1"/>
        <pt x="537" y="72" on="1"/>
        <pt x="521" y="0" on="1"/>
        <pt x="31" y="0" on="1"/>
        <pt x="186" y="670" on="1"/>
        <pt x="674" y="670" on="1"/>
        <pt x="658" y="599" on="1"/>
      </contour>
    </TTGlyph>
    <TTGlyph name="Eacute" xMin="31" yMin="0" xMax="674" yMax="885">
      <contour>
        <pt x="492" y="745" on="1"/>
        <pt x="420" y="745" on="1"/>
        <pt x="532" y="885" on="1"/>
        <pt x="629" y="885" on="1"/>
      </contour>
      <contour>
        <pt x="249" y="599" on="1"/>
        <pt x="196" y="372" on="1"/>
        <pt x="576" y="372" on="1"/>
        <pt x="560" y="301" on="1"/>
        <pt x="180" y="301" on="1"/>
        <pt x="127" y="72" on="1"/>
        <pt x="537" y="72" on="1"/>
        <pt x="521" y="0" on="1"/>
        <pt x="31" y="0" on="1"/>
        <pt x="186" y="670" on="1"/>
        <pt x="674" y="670" on="1"/>
        <pt x="658" y="599" on="1"/>
      </contour>
    </TTGlyph>
    <TTGlyph name="Ecaron" xMin="31" yMin="0" xMax="674" yMax="880">
      <contour>
        <pt x="413" y="738" on="1"/>
        <pt x="329" y="880" on="1"/>
        <pt x="403" y="880" on="1"/>
        <pt x="456" y="788" on="1"/>
        <pt x="553" y="880" on="1"/>
        <pt x="636" y="880" on="1"/>
        <pt x="486" y="738" on="1"/>
      </contour>
      <contour>
        <pt x="249" y="599" on="1"/>
        <pt x="196" y="372" on="1"/>
        <pt x="576" y="372" on="1"/>
        <pt x="560" y="301" on="1"/>
        <pt x="180" y="301" on="1"/>
        <pt x="127" y="72" on="1"/>
        <pt x="537" y="72" on="1"/>
        <pt x="521" y="0" on="1"/>
        <pt x="31" y="0" on="1"/>
        <pt x="186" y="670" on="1"/>
        <pt x="674" y="670" on="1"/>
        <pt x="658" y="599" on="1"/>
      </contour>
    </TTGlyph>
    <TTGlyph name="Ecircumflex" xMin="31" yMin="0" xMax="674" yMax="879">
      <contour>
        <pt x="392" y="737" on="1"/>
        <pt x="310" y="737" on="1"/>
        <pt x="460" y="879" on="1"/>
        <pt x="532" y="879" on="1"/>
        <pt x="616" y="737" on="1"/>
        <pt x="543" y="737" on="1"/>
        <pt x="489" y="830" on="1"/>
      </contour>
      <contour>
        <pt x="249" y="599" on="1"/>
        <pt x="196" y="372" on="1"/>
        <pt x="576" y="372" on="1"/>
        <pt x="560" y="301" on="1"/>
        <pt x="180" y="301" on="1"/>
        <pt x="127" y="72" on="1"/>
        <pt x="537" y="72" on="1"/>
        <pt x="521" y="0" on="1"/>
        <pt x="31" y="0" on="1"/>
        <pt x="186" y="670" on="1"/>
        <pt x="674" y="670" on="1"/>
        <pt x="658" y="599" on="1"/>
      </contour>
    </TTGlyph>
    <TTGlyph name="Edieresis" xMin="31" yMin="0" xMax="674" yMax="857">
      <contour>
        <pt x="365" y="755" on="1"/>
        <pt x="343" y="755" on="0"/>
        <pt x="313" y="784" on="0"/>
        <pt x="313" y="806" on="1"/>
        <pt x="313" y="827" on="0"/>
        <pt x="343" y="857" on="0"/>
        <pt x="387" y="857" on="0"/>
        <pt x="418" y="827" on="0"/>
        <pt x="418" y="806" on="1"/>
        <pt x="418" y="784" on="0"/>
        <pt x="388" y="755" on="0"/>
      </contour>
      <contour>
        <pt x="563" y="755" on="1"/>
        <pt x="541" y="755" on="0"/>
        <pt x="511" y="784" on="0"/>
        <pt x="511" y="806" on="1"/>
        <pt x="511" y="827" on="0"/>
        <pt x="541" y="857" on="0"/>
        <pt x="585" y="857" on="0"/>
        <pt x="616" y="827" on="0"/>
        <pt x="616" y="806" on="1"/>
        <pt x="616" y="784" on="0"/>
        <pt x="586" y="755" on="0"/>
      </contour>
      <contour>
        <pt x="249" y="599" on="1"/>
        <pt x="196" y="372" on="1"/>
        <pt x="576" y="372" on="1"/>
        <pt x="560" y="301" on="1"/>
        <pt x="180" y="301" on="1"/>
        <pt x="127" y="72" on="1"/>
        <pt x="537" y="72" on="1"/>
        <pt x="521" y="0" on="1"/>
        <pt x="31" y="0" on="1"/>
        <pt x="186" y="670" on="1"/>
        <pt x="674" y="670" on="1"/>
        <pt x="658" y="599" on="1"/>
      </contour>
    </TTGlyph>
    <TTGlyph name="Edotaccent" xMin="31" yMin="0" xMax="674" yMax="862">
      <contour>
        <pt x="486" y="763" on="0"/>
        <pt x="442" y="763" on="0"/>
        <pt x="413" y="791" on="0"/>
        <pt x="413" y="813" on="1"/>
        <pt x="413" y="833" on="0"/>
        <pt x="442" y="862" on="0"/>
        <pt x="464" y="862" on="1"/>
        <pt x="485" y="862" on="0"/>
        <pt x="515" y="833" on="0"/>
        <pt x="515" y="813" on="1"/>
        <pt x="515" y="791" on="0"/>
      </contour>
      <contour>
        <pt x="249" y="599" on="1"/>
        <pt x="196" y="372" on="1"/>
        <pt x="576" y="372" on="1"/>
        <pt x="560" y="301" on="1"/>
        <pt x="180" y="301" on="1"/>
        <pt x="127" y="72" on="1"/>
        <pt x="537" y="72" on="1"/>
        <pt x="521" y="0" on="1"/>
        <pt x="31" y="0" on="1"/>
        <pt x="186" y="670" on="1"/>
        <pt x="674" y="670" on="1"/>
        <pt x="658" y="599" on="1"/>
      </contour>
    </TTGlyph>
    <TTGlyph name="Egrave" xMin="31" yMin="0" xMax="674" yMax="885">
      <contour>
        <pt x="415" y="745" on="1"/>
        <pt x="278" y="885" on="1"/>
        <pt x="374" y="885" on="1"/>
        <pt x="486" y="745" on="1"/>
      </contour>
      <contour>
        <pt x="249" y="599" on="1"/>
        <pt x="196" y="372" on="1"/>
        <pt x="576" y="372" on="1"/>
        <pt x="560" y="301" on="1"/>
        <pt x="180" y="301" on="1"/>
        <pt x="127" y="72" on="1"/>
        <pt x="537" y="72" on="1"/>
        <pt x="521" y="0" on="1"/>
        <pt x="31" y="0" on="1"/>
        <pt x="186" y="670" on="1"/>
        <pt x="674" y="670" on="1"/>
        <pt x="658" y="599" on="1"/>
      </contour>
    </TTGlyph>
    <TTGlyph name="Emacron" xMin="31" yMin="0" xMax="674" yMax="824">
      <contour>
        <pt x="596" y="762" on="1"/>
        <pt x="312" y="762" on="1"/>
        <pt x="326" y="824" on="1"/>
        <pt x="610" y="824" on="1"/>
      </contour>
      <contour>
        <pt x="249" y="599" on="1"/>
        <pt x="196" y="372" on="1"/>
        <pt x="576" y="372" on="1"/>
        <pt x="560" y="301" on="1"/>
        <pt x="180" y="301" on="1"/>
        <pt x="127" y="72" on="1"/>
        <pt x="537" y="72" on="1"/>
        <pt x="521" y="0" on="1"/>
        <pt x="31" y="0" on="1"/>
        <pt x="186" y="670" on="1"/>
        <pt x="674" y="670" on="1"/>
        <pt x="658" y="599" on="1"/>
      </contour>
    </TTGlyph>
    <TTGlyph name="Eng" xMin="31" yMin="-185" xMax="769" yMax="670">
      <contour>
        <pt x="769" y="670" on="1"/>
        <pt x="602" y="-57" on="1"/>
        <pt x="589" y="-113" on="0"/>
        <pt x="504" y="-185" on="0"/>
        <pt x="448" y="-185" on="1"/>
        <pt x="400" y="-185" on="0"/>
        <pt x="361" y="-163" on="1"/>
        <pt x="387" y="-102" on="1"/>
        <pt x="415" y="-117" on="0"/>
        <pt x="442" y="-117" on="1"/>
        <pt x="471" y="-117" on="0"/>
        <pt x="514" y="-84" on="0"/>
        <pt x="521" y="-56" on="1"/>
        <pt x="538" y="16" on="1"/>
        <pt x="236" y="541" on="1"/>
        <pt x="110" y="0" on="1"/>
        <pt x="31" y="0" on="1"/>
        <pt x="186" y="670" on="1"/>
        <pt x="254" y="670" on="1"/>
        <pt x="563" y="125" on="1"/>
        <pt x="690" y="670" on="1"/>
      </contour>
    </TTGlyph>
    <TTGlyph name="Eogonek" xMin="31" yMin="-201" xMax="674" yMax="670">
      <contour>
        <pt x="249" y="599" on="1"/>
        <pt x="196" y="372" on="1"/>
        <pt x="576" y="372" on="1"/>
        <pt x="560" y="301" on="1"/>
        <pt x="180" y="301" on="1"/>
        <pt x="127" y="72" on="1"/>
        <pt x="537" y="72" on="1"/>
        <pt x="521" y="0" on="1"/>
        <pt x="480" y="0" on="1"/>
        <pt x="471" y="-8" on="0"/>
        <pt x="439" y="-34" on="0"/>
        <pt x="427" y="-45" on="0"/>
        <pt x="406" y="-65" on="0"/>
        <pt x="398" y="-75" on="0"/>
        <pt x="387" y="-90" on="0"/>
        <pt x="384" y="-104" on="0"/>
        <pt x="384" y="-111" on="1"/>
        <pt x="384" y="-145" on="0"/>
        <pt x="424" y="-145" on="1"/>
        <pt x="437" y="-145" on="0"/>
        <pt x="472" y="-135" on="1"/>
        <pt x="464" y="-185" on="1"/>
        <pt x="428" y="-201" on="0"/>
        <pt x="401" y="-201" on="1"/>
        <pt x="366" y="-201" on="0"/>
        <pt x="322" y="-161" on="0"/>
        <pt x="322" y="-128" on="1"/>
        <pt x="322" y="-98" on="0"/>
        <pt x="365" y="-42" on="0"/>
        <pt x="420" y="0" on="1"/>
        <pt x="31" y="0" on="1"/>
        <pt x="186" y="670" on="1"/>
        <pt x="674" y="670" on="1"/>
        <pt x="658" y="599" on="1"/>
      </contour>
    </TTGlyph>
    <TTGlyph name="Eth" xMin="47" yMin="0" xMax="747" yMax="670">
      <contour>
        <pt x="221" y="670" on="1"/>
        <pt x="442" y="670" on="1"/>
        <pt x="588" y="670" on="0"/>
        <pt x="747" y="518" on="0"/>
        <pt x="747" y="395" on="1"/>
        <pt x="747" y="232" on="0"/>
        <pt x="492" y="0" on="0"/>
        <pt x="295" y="0" on="1"/>
        <pt x="66" y="0" on="1"/>
        <pt x="136" y="302" on="1"/>
        <pt x="47" y="302" on="1"/>
        <pt x="63" y="373" on="1"/>
        <pt x="152" y="373" on="1"/>
      </contour>
      <contour>
        <pt x="162" y="72" on="1"/>
        <pt x="287" y="72" on="1"/>
        <pt x="449" y="72" on="0"/>
        <pt x="665" y="261" on="0"/>
        <pt x="665" y="393" on="1"/>
        <pt x="665" y="487" on="0"/>
        <pt x="546" y="599" on="0"/>
        <pt x="434" y="599" on="1"/>
        <pt x="284" y="599" on="1"/>
        <pt x="232" y="373" on="1"/>
        <pt x="391" y="373" on="1"/>
        <pt x="375" y="302" on="1"/>
        <pt x="215" y="302" on="1"/>
      </contour>
    </TTGlyph>
    <TTGlyph name="Euro" xMin="87" yMin="-12" xMax="794" yMax="683">
      <contour>
        <pt x="458" y="62" on="1"/>
        <pt x="525" y="62" on="0"/>
        <pt x="637" y="151" on="0"/>
        <pt x="673" y="235" on="1"/>
        <pt x="747" y="217" on="1"/>
        <pt x="705" y="111" on="0"/>
        <pt x="545" y="-12" on="0"/>
        <pt x="347" y="-12" on="0"/>
        <pt x="222" y="120" on="0"/>
        <pt x="216" y="230" on="1"/>
        <pt x="87" y="230" on="1"/>
        <pt x="101" y="288" on="1"/>
        <pt x="217" y="288" on="1"/>
        <pt x="220" y="332" on="0"/>
        <pt x="231" y="377" on="1"/>
        <pt x="123" y="377" on="1"/>
        <pt x="136" y="435" on="1"/>
        <pt x="248" y="435" on="1"/>
        <pt x="290" y="549" on="0"/>
        <pt x="459" y="683" on="0"/>
        <pt x="566" y="683" on="1"/>
        <pt x="665" y="683" on="0"/>
        <pt x="786" y="558" on="0"/>
        <pt x="794" y="452" on="1"/>
        <pt x="712" y="435" on="1"/>
        <pt x="707" y="518" on="0"/>
        <pt x="622" y="610" on="0"/>
        <pt x="554" y="610" on="1"/>
        <pt x="482" y="610" on="0"/>
        <pt x="365" y="516" on="0"/>
        <pt x="331" y="435" on="1"/>
        <pt x="601" y="435" on="1"/>
        <pt x="577" y="377" on="1"/>
        <pt x="312" y="377" on="1"/>
        <pt x="301" y="332" on="0"/>
        <pt x="298" y="288" on="1"/>
        <pt x="531" y="288" on="1"/>
        <pt x="507" y="230" on="1"/>
        <pt x="298" y="230" on="1"/>
        <pt x="306" y="153" on="0"/>
        <pt x="392" y="62" on="0"/>
      </contour>
    </TTGlyph>
    <TTGlyph name="Euro.tf" xMin="18" yMin="-13" xMax="625" yMax="683">
      <contour>
        <pt x="308" y="61" on="1"/>
        <pt x="368" y="61" on="0"/>
        <pt x="471" y="149" on="0"/>
        <pt x="506" y="230" on="1"/>
        <pt x="582" y="214" on="1"/>
        <pt x="542" y="110" on="0"/>
        <pt x="389" y="-13" on="0"/>
        <pt x="297" y="-13" on="1"/>
        <pt x="202" y="-13" on="0"/>
        <pt x="87" y="116" on="0"/>
        <pt x="82" y="230" on="1"/>
        <pt x="18" y="230" on="1"/>
        <pt x="31" y="288" on="1"/>
        <pt x="83" y="288" on="1"/>
        <pt x="86" y="335" on="0"/>
        <pt x="95" y="377" on="1"/>
        <pt x="52" y="377" on="1"/>
        <pt x="65" y="435" on="1"/>
        <pt x="110" y="435" on="1"/>
        <pt x="148" y="550" on="0"/>
        <pt x="308" y="683" on="0"/>
        <pt x="412" y="683" on="1"/>
        <pt x="505" y="683" on="0"/>
        <pt x="618" y="559" on="0"/>
        <pt x="625" y="453" on="1"/>
        <pt x="545" y="438" on="1"/>
        <pt x="538" y="520" on="0"/>
        <pt x="461" y="610" on="0"/>
        <pt x="400" y="610" on="1"/>
        <pt x="331" y="610" on="0"/>
        <pt x="221" y="517" on="0"/>
        <pt x="191" y="435" on="1"/>
        <pt x="440" y="435" on="1"/>
        <pt x="416" y="377" on="1"/>
        <pt x="175" y="377" on="1"/>
        <pt x="166" y="335" on="0"/>
        <pt x="163" y="288" on="1"/>
        <pt x="376" y="288" on="1"/>
        <pt x="353" y="230" on="1"/>
        <pt x="163" y="230" on="1"/>
        <pt x="169" y="150" on="0"/>
        <pt x="246" y="61" on="0"/>
      </contour>
    </TTGlyph>
    <TTGlyph name="F" xMin="31" yMin="0" xMax="666" yMax="670">
      <contour>
        <pt x="249" y="599" on="1"/>
        <pt x="194" y="365" on="1"/>
        <pt x="561" y="365" on="1"/>
        <pt x="545" y="294" on="1"/>
        <pt x="178" y="294" on="1"/>
        <pt x="110" y="0" on="1"/>
        <pt x="31" y="0" on="1"/>
        <pt x="186" y="670" on="1"/>
        <pt x="666" y="670" on="1"/>
        <pt x="649" y="599" on="1"/>
      </contour>
    </TTGlyph>
    <TTGlyph name="G" xMin="74" yMin="-13" xMax="767" yMax="683">
      <contour>
        <pt x="401" y="368" on="1"/>
        <pt x="767" y="368" on="1"/>
        <pt x="765" y="346" on="0"/>
        <pt x="763" y="334" on="1"/>
        <pt x="736" y="180" on="0"/>
        <pt x="524" y="-13" on="0"/>
        <pt x="375" y="-13" on="1"/>
        <pt x="241" y="-13" on="0"/>
        <pt x="74" y="157" on="0"/>
        <pt x="74" y="290" on="1"/>
        <pt x="74" y="451" on="0"/>
        <pt x="316" y="683" on="0"/>
        <pt x="481" y="683" on="1"/>
        <pt x="589" y="683" on="0"/>
        <pt x="745" y="579" on="0"/>
        <pt x="765" y="489" on="1"/>
        <pt x="687" y="471" on="1"/>
        <pt x="666" y="538" on="0"/>
        <pt x="555" y="609" on="0"/>
        <pt x="477" y="609" on="1"/>
        <pt x="347" y="609" on="0"/>
        <pt x="155" y="425" on="0"/>
        <pt x="155" y="297" on="1"/>
        <pt x="155" y="194" on="0"/>
        <pt x="282" y="61" on="0"/>
        <pt x="383" y="61" on="1"/>
        <pt x="488" y="61" on="0"/>
        <pt x="647" y="195" on="0"/>
        <pt x="672" y="296" on="1"/>
        <pt x="385" y="296" on="1"/>
      </contour>
    </TTGlyph>
    <TTGlyph name="Gbreve" xMin="74" yMin="-13" xMax="767" yMax="867">
      <contour>
        <pt x="565" y="732" on="0"/>
        <pt x="435" y="732" on="0"/>
        <pt x="369" y="806" on="0"/>
        <pt x="382" y="867" on="1"/>
        <pt x="443" y="867" on="1"/>
        <pt x="436" y="831" on="0"/>
        <pt x="473" y="787" on="0"/>
        <pt x="508" y="787" on="1"/>
        <pt x="542" y="787" on="0"/>
        <pt x="597" y="831" on="0"/>
        <pt x="604" y="867" on="1"/>
        <pt x="672" y="867" on="1"/>
        <pt x="659" y="806" on="0"/>
      </contour>
      <contour>
        <pt x="401" y="368" on="1"/>
        <pt x="767" y="368" on="1"/>
        <pt x="765" y="346" on="0"/>
        <pt x="763" y="334" on="1"/>
        <pt x="736" y="180" on="0"/>
        <pt x="524" y="-13" on="0"/>
        <pt x="375" y="-13" on="1"/>
        <pt x="241" y="-13" on="0"/>
        <pt x="74" y="157" on="0"/>
        <pt x="74" y="290" on="1"/>
        <pt x="74" y="451" on="0"/>
        <pt x="316" y="683" on="0"/>
        <pt x="481" y="683" on="1"/>
        <pt x="589" y="683" on="0"/>
        <pt x="745" y="579" on="0"/>
        <pt x="765" y="489" on="1"/>
        <pt x="687" y="471" on="1"/>
        <pt x="666" y="538" on="0"/>
        <pt x="555" y="609" on="0"/>
        <pt x="477" y="609" on="1"/>
        <pt x="347" y="609" on="0"/>
        <pt x="155" y="425" on="0"/>
        <pt x="155" y="297" on="1"/>
        <pt x="155" y="194" on="0"/>
        <pt x="282" y="61" on="0"/>
        <pt x="383" y="61" on="1"/>
        <pt x="488" y="61" on="0"/>
        <pt x="647" y="195" on="0"/>
        <pt x="672" y="296" on="1"/>
        <pt x="385" y="296" on="1"/>
      </contour>
    </TTGlyph>
    <TTGlyph name="Gcommaaccent" xMin="74" yMin="-188" xMax="767" yMax="683">
      <contour>
        <pt x="401" y="368" on="1"/>
        <pt x="767" y="368" on="1"/>
        <pt x="765" y="346" on="0"/>
        <pt x="763" y="334" on="1"/>
        <pt x="736" y="180" on="0"/>
        <pt x="524" y="-13" on="0"/>
        <pt x="375" y="-13" on="1"/>
        <pt x="241" y="-13" on="0"/>
        <pt x="74" y="157" on="0"/>
        <pt x="74" y="290" on="1"/>
        <pt x="74" y="451" on="0"/>
        <pt x="316" y="683" on="0"/>
        <pt x="481" y="683" on="1"/>
        <pt x="589" y="683" on="0"/>
        <pt x="745" y="579" on="0"/>
        <pt x="765" y="489" on="1"/>
        <pt x="687" y="471" on="1"/>
        <pt x="666" y="538" on="0"/>
        <pt x="555" y="609" on="0"/>
        <pt x="477" y="609" on="1"/>
        <pt x="347" y="609" on="0"/>
        <pt x="155" y="425" on="0"/>
        <pt x="155" y="297" on="1"/>
        <pt x="155" y="194" on="0"/>
        <pt x="282" y="61" on="0"/>
        <pt x="383" y="61" on="1"/>
        <pt x="488" y="61" on="0"/>
        <pt x="647" y="195" on="0"/>
        <pt x="672" y="296" on="1"/>
        <pt x="385" y="296" on="1"/>
      </contour>
      <contour>
        <pt x="232" y="-188" on="1"/>
        <pt x="310" y="-45" on="1"/>
        <pt x="396" y="-45" on="1"/>
        <pt x="292" y="-188" on="1"/>
      </contour>
    </TTGlyph>
    <TTGlyph name="Gdotaccent" xMin="74" yMin="-13" xMax="767" yMax="862">
      <contour>
        <pt x="513" y="862" on="1"/>
        <pt x="534" y="862" on="0"/>
        <pt x="564" y="833" on="0"/>
        <pt x="564" y="813" on="1"/>
        <pt x="564" y="791" on="0"/>
        <pt x="535" y="763" on="0"/>
        <pt x="491" y="763" on="0"/>
        <pt x="462" y="791" on="0"/>
        <pt x="462" y="813" on="1"/>
        <pt x="462" y="833" on="0"/>
        <pt x="491" y="862" on="0"/>
      </contour>
      <contour>
        <pt x="401" y="368" on="1"/>
        <pt x="767" y="368" on="1"/>
        <pt x="765" y="346" on="0"/>
        <pt x="763" y="334" on="1"/>
        <pt x="736" y="180" on="0"/>
        <pt x="524" y="-13" on="0"/>
        <pt x="375" y="-13" on="1"/>
        <pt x="241" y="-13" on="0"/>
        <pt x="74" y="157" on="0"/>
        <pt x="74" y="290" on="1"/>
        <pt x="74" y="451" on="0"/>
        <pt x="316" y="683" on="0"/>
        <pt x="481" y="683" on="1"/>
        <pt x="589" y="683" on="0"/>
        <pt x="745" y="579" on="0"/>
        <pt x="765" y="489" on="1"/>
        <pt x="687" y="471" on="1"/>
        <pt x="666" y="538" on="0"/>
        <pt x="555" y="609" on="0"/>
        <pt x="477" y="609" on="1"/>
        <pt x="347" y="609" on="0"/>
        <pt x="155" y="425" on="0"/>
        <pt x="155" y="297" on="1"/>
        <pt x="155" y="194" on="0"/>
        <pt x="282" y="61" on="0"/>
        <pt x="383" y="61" on="1"/>
        <pt x="488" y="61" on="0"/>
        <pt x="647" y="195" on="0"/>
        <pt x="672" y="296" on="1"/>
        <pt x="385" y="296" on="1"/>
      </contour>
    </TTGlyph>
    <TTGlyph name="H" xMin="31" yMin="0" xMax="746" yMax="670">
      <contour>
        <pt x="746" y="670" on="1"/>
        <pt x="592" y="0" on="1"/>
        <pt x="513" y="0" on="1"/>
        <pt x="582" y="302" on="1"/>
        <pt x="180" y="302" on="1"/>
        <pt x="110" y="0" on="1"/>
        <pt x="31" y="0" on="1"/>
        <pt x="186" y="670" on="1"/>
        <pt x="265" y="670" on="1"/>
        <pt x="196" y="373" on="1"/>
        <pt x="599" y="373" on="1"/>
        <pt x="667" y="670" on="1"/>
      </contour>
    </TTGlyph>
    <TTGlyph name="Hbar" xMin="57" yMin="0" xMax="806" yMax="670">
      <contour>
        <pt x="790" y="466" on="1"/>
        <pt x="721" y="466" on="1"/>
        <pt x="614" y="0" on="1"/>
        <pt x="535" y="0" on="1"/>
        <pt x="600" y="282" on="1"/>
        <pt x="201" y="282" on="1"/>
        <pt x="136" y="0" on="1"/>
        <pt x="57" y="0" on="1"/>
        <pt x="165" y="466" on="1"/>
        <pt x="95" y="466" on="1"/>
        <pt x="110" y="532" on="1"/>
        <pt x="180" y="532" on="1"/>
        <pt x="212" y="670" on="1"/>
        <pt x="291" y="670" on="1"/>
        <pt x="259" y="532" on="1"/>
        <pt x="657" y="532" on="1"/>
        <pt x="689" y="670" on="1"/>
        <pt x="768" y="670" on="1"/>
        <pt x="736" y="532" on="1"/>
        <pt x="806" y="532" on="1"/>
      </contour>
      <contour>
        <pt x="642" y="466" on="1"/>
        <pt x="244" y="466" on="1"/>
        <pt x="218" y="353" on="1"/>
        <pt x="616" y="353" on="1"/>
      </contour>
    </TTGlyph>
    <TTGlyph name="I" xMin="31" yMin="0" xMax="265" yMax="670">
      <contour>
        <pt x="110" y="0" on="1"/>
        <pt x="31" y="0" on="1"/>
        <pt x="186" y="670" on="1"/>
        <pt x="265" y="670" on="1"/>
      </contour>
    </TTGlyph>
    <TTGlyph name="I.ss05" xMin="-31" yMin="0" xMax="512" yMax="670">
      <contour>
        <pt x="341" y="599" on="1"/>
        <pt x="220" y="72" on="1"/>
        <pt x="374" y="72" on="1"/>
        <pt x="358" y="0" on="1"/>
        <pt x="-31" y="0" on="1"/>
        <pt x="-15" y="72" on="1"/>
        <pt x="141" y="72" on="1"/>
        <pt x="262" y="599" on="1"/>
        <pt x="107" y="599" on="1"/>
        <pt x="123" y="670" on="1"/>
        <pt x="512" y="670" on="1"/>
        <pt x="496" y="599" on="1"/>
      </contour>
    </TTGlyph>
    <TTGlyph name="IJ" xMin="31" yMin="-13" xMax="877" yMax="670">
      <contour>
        <pt x="110" y="0" on="1"/>
        <pt x="31" y="0" on="1"/>
        <pt x="186" y="670" on="1"/>
        <pt x="265" y="670" on="1"/>
      </contour>
      <contour>
        <pt x="877" y="670" on="1"/>
        <pt x="778" y="244" on="1"/>
        <pt x="750" y="125" on="0"/>
        <pt x="595" y="-13" on="0"/>
        <pt x="488" y="-13" on="1"/>
        <pt x="388" y="-13" on="0"/>
        <pt x="268" y="105" on="0"/>
        <pt x="269" y="203" on="1"/>
        <pt x="344" y="220" on="1"/>
        <pt x="342" y="147" on="0"/>
        <pt x="419" y="59" on="0"/>
        <pt x="489" y="59" on="1"/>
        <pt x="565" y="59" on="0"/>
        <pt x="679" y="161" on="0"/>
        <pt x="699" y="244" on="1"/>
        <pt x="798" y="670" on="1"/>
      </contour>
    </TTGlyph>
    <TTGlyph name="IJ.ss05" xMin="-31" yMin="-13" xMax="1062" yMax="670">
      <contour>
        <pt x="220" y="72" on="1"/>
        <pt x="374" y="72" on="1"/>
        <pt x="358" y="0" on="1"/>
        <pt x="-31" y="0" on="1"/>
        <pt x="-15" y="72" on="1"/>
        <pt x="141" y="72" on="1"/>
        <pt x="262" y="599" on="1"/>
        <pt x="107" y="599" on="1"/>
        <pt x="123" y="670" on="1"/>
        <pt x="512" y="670" on="1"/>
        <pt x="496" y="599" on="1"/>
        <pt x="341" y="599" on="1"/>
      </contour>
      <contour>
        <pt x="1062" y="670" on="1"/>
        <pt x="963" y="244" on="1"/>
        <pt x="935" y="124" on="0"/>
        <pt x="778" y="-13" on="0"/>
        <pt x="668" y="-13" on="1"/>
        <pt x="572" y="-13" on="0"/>
        <pt x="453" y="106" on="0"/>
        <pt x="454" y="203" on="1"/>
        <pt x="529" y="220" on="1"/>
        <pt x="527" y="147" on="0"/>
        <pt x="604" y="59" on="0"/>
        <pt x="674" y="59" on="1"/>
        <pt x="750" y="59" on="0"/>
        <pt x="864" y="161" on="0"/>
        <pt x="884" y="244" on="1"/>
        <pt x="967" y="599" on="1"/>
        <pt x="677" y="599" on="1"/>
        <pt x="693" y="670" on="1"/>
      </contour>
    </TTGlyph>
    <TTGlyph name="Iacute" xMin="31" yMin="0" xMax="421" yMax="885">
      <contour>
        <pt x="284" y="745" on="1"/>
        <pt x="212" y="745" on="1"/>
        <pt x="324" y="885" on="1"/>
        <pt x="421" y="885" on="1"/>
      </contour>
      <contour>
        <pt x="110" y="0" on="1"/>
        <pt x="31" y="0" on="1"/>
        <pt x="186" y="670" on="1"/>
        <pt x="265" y="670" on="1"/>
      </contour>
    </TTGlyph>
    <TTGlyph name="Iacute.ss05" xMin="-31" yMin="0" xMax="513" yMax="885">
      <contour>
        <pt x="376" y="745" on="1"/>
        <pt x="304" y="745" on="1"/>
        <pt x="416" y="885" on="1"/>
        <pt x="513" y="885" on="1"/>
      </contour>
      <contour>
        <pt x="512" y="670" on="1"/>
        <pt x="496" y="599" on="1"/>
        <pt x="341" y="599" on="1"/>
        <pt x="220" y="72" on="1"/>
        <pt x="374" y="72" on="1"/>
        <pt x="358" y="0" on="1"/>
        <pt x="-31" y="0" on="1"/>
        <pt x="-15" y="72" on="1"/>
        <pt x="141" y="72" on="1"/>
        <pt x="262" y="599" on="1"/>
        <pt x="107" y="599" on="1"/>
        <pt x="123" y="670" on="1"/>
      </contour>
    </TTGlyph>
    <TTGlyph name="Icircumflex" xMin="31" yMin="0" xMax="408" yMax="879">
      <contour>
        <pt x="335" y="737" on="1"/>
        <pt x="281" y="830" on="1"/>
        <pt x="184" y="737" on="1"/>
        <pt x="102" y="737" on="1"/>
        <pt x="252" y="879" on="1"/>
        <pt x="324" y="879" on="1"/>
        <pt x="408" y="737" on="1"/>
      </contour>
      <contour>
        <pt x="186" y="670" on="1"/>
        <pt x="265" y="670" on="1"/>
        <pt x="110" y="0" on="1"/>
        <pt x="31" y="0" on="1"/>
      </contour>
    </TTGlyph>
    <TTGlyph name="Icircumflex.ss05" xMin="-31" yMin="0" xMax="512" yMax="879">
      <contour>
        <pt x="276" y="737" on="1"/>
        <pt x="194" y="737" on="1"/>
        <pt x="344" y="879" on="1"/>
        <pt x="416" y="879" on="1"/>
        <pt x="500" y="737" on="1"/>
        <pt x="427" y="737" on="1"/>
        <pt x="373" y="830" on="1"/>
      </contour>
      <contour>
        <pt x="341" y="599" on="1"/>
        <pt x="220" y="72" on="1"/>
        <pt x="374" y="72" on="1"/>
        <pt x="358" y="0" on="1"/>
        <pt x="-31" y="0" on="1"/>
        <pt x="-15" y="72" on="1"/>
        <pt x="141" y="72" on="1"/>
        <pt x="262" y="599" on="1"/>
        <pt x="107" y="599" on="1"/>
        <pt x="123" y="670" on="1"/>
        <pt x="512" y="670" on="1"/>
        <pt x="496" y="599" on="1"/>
      </contour>
    </TTGlyph>
    <TTGlyph name="Idieresis" xMin="31" yMin="0" xMax="408" yMax="857">
      <contour>
        <pt x="135" y="857" on="0"/>
        <pt x="179" y="857" on="0"/>
        <pt x="210" y="827" on="0"/>
        <pt x="210" y="806" on="1"/>
        <pt x="210" y="784" on="0"/>
        <pt x="180" y="755" on="0"/>
        <pt x="157" y="755" on="1"/>
        <pt x="135" y="755" on="0"/>
        <pt x="105" y="784" on="0"/>
        <pt x="105" y="806" on="1"/>
        <pt x="105" y="827" on="0"/>
      </contour>
      <contour>
        <pt x="333" y="857" on="0"/>
        <pt x="377" y="857" on="0"/>
        <pt x="408" y="827" on="0"/>
        <pt x="408" y="806" on="1"/>
        <pt x="408" y="784" on="0"/>
        <pt x="378" y="755" on="0"/>
        <pt x="355" y="755" on="1"/>
        <pt x="333" y="755" on="0"/>
        <pt x="303" y="784" on="0"/>
        <pt x="303" y="806" on="1"/>
        <pt x="303" y="827" on="0"/>
      </contour>
      <contour>
        <pt x="110" y="0" on="1"/>
        <pt x="31" y="0" on="1"/>
        <pt x="186" y="670" on="1"/>
        <pt x="265" y="670" on="1"/>
      </contour>
    </TTGlyph>
    <TTGlyph name="Idieresis.ss05" xMin="-31" yMin="0" xMax="512" yMax="857">
      <contour>
        <pt x="249" y="755" on="1"/>
        <pt x="227" y="755" on="0"/>
        <pt x="197" y="784" on="0"/>
        <pt x="197" y="806" on="1"/>
        <pt x="197" y="827" on="0"/>
        <pt x="227" y="857" on="0"/>
        <pt x="271" y="857" on="0"/>
        <pt x="302" y="827" on="0"/>
        <pt x="302" y="806" on="1"/>
        <pt x="302" y="784" on="0"/>
        <pt x="272" y="755" on="0"/>
      </contour>
      <contour>
        <pt x="447" y="755" on="1"/>
        <pt x="425" y="755" on="0"/>
        <pt x="395" y="784" on="0"/>
        <pt x="395" y="806" on="1"/>
        <pt x="395" y="827" on="0"/>
        <pt x="425" y="857" on="0"/>
        <pt x="469" y="857" on="0"/>
        <pt x="500" y="827" on="0"/>
        <pt x="500" y="806" on="1"/>
        <pt x="500" y="784" on="0"/>
        <pt x="470" y="755" on="0"/>
      </contour>
      <contour>
        <pt x="341" y="599" on="1"/>
        <pt x="220" y="72" on="1"/>
        <pt x="374" y="72" on="1"/>
        <pt x="358" y="0" on="1"/>
        <pt x="-31" y="0" on="1"/>
        <pt x="-15" y="72" on="1"/>
        <pt x="141" y="72" on="1"/>
        <pt x="262" y="599" on="1"/>
        <pt x="107" y="599" on="1"/>
        <pt x="123" y="670" on="1"/>
        <pt x="512" y="670" on="1"/>
        <pt x="496" y="599" on="1"/>
      </contour>
    </TTGlyph>
    <TTGlyph name="Idotaccent" xMin="31" yMin="0" xMax="307" yMax="862">
      <contour>
        <pt x="256" y="862" on="1"/>
        <pt x="277" y="862" on="0"/>
        <pt x="307" y="833" on="0"/>
        <pt x="307" y="813" on="1"/>
        <pt x="307" y="791" on="0"/>
        <pt x="278" y="763" on="0"/>
        <pt x="234" y="763" on="0"/>
        <pt x="205" y="791" on="0"/>
        <pt x="205" y="813" on="1"/>
        <pt x="205" y="833" on="0"/>
        <pt x="234" y="862" on="0"/>
      </contour>
      <contour>
        <pt x="110" y="0" on="1"/>
        <pt x="31" y="0" on="1"/>
        <pt x="186" y="670" on="1"/>
        <pt x="265" y="670" on="1"/>
      </contour>
    </TTGlyph>
    <TTGlyph name="Idotaccent.ss05" xMin="-31" yMin="0" xMax="512" yMax="862">
      <contour>
        <pt x="370" y="763" on="0"/>
        <pt x="326" y="763" on="0"/>
        <pt x="297" y="791" on="0"/>
        <pt x="297" y="813" on="1"/>
        <pt x="297" y="833" on="0"/>
        <pt x="326" y="862" on="0"/>
        <pt x="348" y="862" on="1"/>
        <pt x="369" y="862" on="0"/>
        <pt x="399" y="833" on="0"/>
        <pt x="399" y="813" on="1"/>
        <pt x="399" y="791" on="0"/>
      </contour>
      <contour>
        <pt x="341" y="599" on="1"/>
        <pt x="220" y="72" on="1"/>
        <pt x="374" y="72" on="1"/>
        <pt x="358" y="0" on="1"/>
        <pt x="-31" y="0" on="1"/>
        <pt x="-15" y="72" on="1"/>
        <pt x="141" y="72" on="1"/>
        <pt x="262" y="599" on="1"/>
        <pt x="107" y="599" on="1"/>
        <pt x="123" y="670" on="1"/>
        <pt x="512" y="670" on="1"/>
        <pt x="496" y="599" on="1"/>
      </contour>
    </TTGlyph>
    <TTGlyph name="Igrave" xMin="31" yMin="0" xMax="278" yMax="885">
      <contour>
        <pt x="166" y="885" on="1"/>
        <pt x="278" y="745" on="1"/>
        <pt x="207" y="745" on="1"/>
        <pt x="70" y="885" on="1"/>
      </contour>
      <contour>
        <pt x="110" y="0" on="1"/>
        <pt x="31" y="0" on="1"/>
        <pt x="186" y="670" on="1"/>
        <pt x="265" y="670" on="1"/>
      </contour>
    </TTGlyph>
    <TTGlyph name="Igrave.ss05" xMin="-31" yMin="0" xMax="512" yMax="885">
      <contour>
        <pt x="299" y="745" on="1"/>
        <pt x="162" y="885" on="1"/>
        <pt x="258" y="885" on="1"/>
        <pt x="370" y="745" on="1"/>
      </contour>
      <contour>
        <pt x="341" y="599" on="1"/>
        <pt x="220" y="72" on="1"/>
        <pt x="374" y="72" on="1"/>
        <pt x="358" y="0" on="1"/>
        <pt x="-31" y="0" on="1"/>
        <pt x="-15" y="72" on="1"/>
        <pt x="141" y="72" on="1"/>
        <pt x="262" y="599" on="1"/>
        <pt x="107" y="599" on="1"/>
        <pt x="123" y="670" on="1"/>
        <pt x="512" y="670" on="1"/>
        <pt x="496" y="599" on="1"/>
      </contour>
    </TTGlyph>
    <TTGlyph name="Imacron" xMin="31" yMin="0" xMax="402" yMax="824">
      <contour>
        <pt x="388" y="762" on="1"/>
        <pt x="104" y="762" on="1"/>
        <pt x="118" y="824" on="1"/>
        <pt x="402" y="824" on="1"/>
      </contour>
      <contour>
        <pt x="110" y="0" on="1"/>
        <pt x="31" y="0" on="1"/>
        <pt x="186" y="670" on="1"/>
        <pt x="265" y="670" on="1"/>
      </contour>
    </TTGlyph>
    <TTGlyph name="Imacron.ss05" xMin="-31" yMin="0" xMax="512" yMax="824">
      <contour>
        <pt x="480" y="762" on="1"/>
        <pt x="196" y="762" on="1"/>
        <pt x="210" y="824" on="1"/>
        <pt x="494" y="824" on="1"/>
      </contour>
      <contour>
        <pt x="341" y="599" on="1"/>
        <pt x="220" y="72" on="1"/>
        <pt x="374" y="72" on="1"/>
        <pt x="358" y="0" on="1"/>
        <pt x="-31" y="0" on="1"/>
        <pt x="-15" y="72" on="1"/>
        <pt x="141" y="72" on="1"/>
        <pt x="262" y="599" on="1"/>
        <pt x="107" y="599" on="1"/>
        <pt x="123" y="670" on="1"/>
        <pt x="512" y="670" on="1"/>
        <pt x="496" y="599" on="1"/>
      </contour>
    </TTGlyph>
    <TTGlyph name="Iogonek" xMin="-49" yMin="-201" xMax="265" yMax="670">
      <contour>
        <pt x="265" y="670" on="1"/>
        <pt x="110" y="0" on="1"/>
        <pt x="101" y="-8" on="0"/>
        <pt x="69" y="-34" on="0"/>
        <pt x="57" y="-45" on="0"/>
        <pt x="36" y="-65" on="0"/>
        <pt x="28" y="-75" on="0"/>
        <pt x="17" y="-90" on="0"/>
        <pt x="14" y="-104" on="0"/>
        <pt x="14" y="-111" on="1"/>
        <pt x="14" y="-145" on="0"/>
        <pt x="54" y="-145" on="1"/>
        <pt x="67" y="-145" on="0"/>
        <pt x="102" y="-135" on="1"/>
        <pt x="94" y="-185" on="1"/>
        <pt x="58" y="-201" on="0"/>
        <pt x="31" y="-201" on="1"/>
        <pt x="-5" y="-201" on="0"/>
        <pt x="-49" y="-161" on="0"/>
        <pt x="-49" y="-128" on="1"/>
        <pt x="-49" y="-98" on="0"/>
        <pt x="-6" y="-41" on="0"/>
        <pt x="50" y="0" on="1"/>
        <pt x="31" y="0" on="1"/>
        <pt x="186" y="670" on="1"/>
      </contour>
    </TTGlyph>
    <TTGlyph name="Iogonek.ss05" xMin="-31" yMin="-201" xMax="512" yMax="670">
      <contour>
        <pt x="341" y="599" on="1"/>
        <pt x="220" y="72" on="1"/>
        <pt x="374" y="72" on="1"/>
        <pt x="358" y="0" on="1"/>
        <pt x="203" y="0" on="1"/>
        <pt x="194" y="-8" on="0"/>
        <pt x="162" y="-34" on="0"/>
        <pt x="150" y="-45" on="0"/>
        <pt x="129" y="-65" on="0"/>
        <pt x="121" y="-75" on="0"/>
        <pt x="110" y="-90" on="0"/>
        <pt x="107" y="-104" on="0"/>
        <pt x="107" y="-111" on="1"/>
        <pt x="107" y="-145" on="0"/>
        <pt x="147" y="-145" on="1"/>
        <pt x="160" y="-145" on="0"/>
        <pt x="195" y="-135" on="1"/>
        <pt x="187" y="-185" on="1"/>
        <pt x="151" y="-201" on="0"/>
        <pt x="124" y="-201" on="1"/>
        <pt x="89" y="-201" on="0"/>
        <pt x="45" y="-161" on="0"/>
        <pt x="45" y="-128" on="1"/>
        <pt x="45" y="-98" on="0"/>
        <pt x="88" y="-42" on="0"/>
        <pt x="143" y="0" on="1"/>
        <pt x="-31" y="0" on="1"/>
        <pt x="-15" y="72" on="1"/>
        <pt x="141" y="72" on="1"/>
        <pt x="262" y="599" on="1"/>
        <pt x="107" y="599" on="1"/>
        <pt x="123" y="670" on="1"/>
        <pt x="512" y="670" on="1"/>
        <pt x="496" y="599" on="1"/>
      </contour>
    </TTGlyph>
    <TTGlyph name="J" xMin="14" yMin="-13" xMax="622" yMax="670">
      <contour>
        <pt x="622" y="670" on="1"/>
        <pt x="523" y="244" on="1"/>
        <pt x="495" y="125" on="0"/>
        <pt x="340" y="-13" on="0"/>
        <pt x="233" y="-13" on="1"/>
        <pt x="133" y="-13" on="0"/>
        <pt x="13" y="105" on="0"/>
        <pt x="14" y="203" on="1"/>
        <pt x="89" y="220" on="1"/>
        <pt x="87" y="147" on="0"/>
        <pt x="164" y="59" on="0"/>
        <pt x="234" y="59" on="1"/>
        <pt x="310" y="59" on="0"/>
        <pt x="424" y="161" on="0"/>
        <pt x="444" y="244" on="1"/>
        <pt x="543" y="670" on="1"/>
      </contour>
    </TTGlyph>
    <TTGlyph name="J.ss05" xMin="14" yMin="-13" xMax="622" yMax="670">
      <contour>
        <pt x="622" y="670" on="1"/>
        <pt x="523" y="244" on="1"/>
        <pt x="495" y="124" on="0"/>
        <pt x="338" y="-13" on="0"/>
        <pt x="228" y="-13" on="1"/>
        <pt x="132" y="-13" on="0"/>
        <pt x="13" y="106" on="0"/>
        <pt x="14" y="203" on="1"/>
        <pt x="89" y="220" on="1"/>
        <pt x="87" y="147" on="0"/>
        <pt x="164" y="59" on="0"/>
        <pt x="234" y="59" on="1"/>
        <pt x="310" y="59" on="0"/>
        <pt x="424" y="161" on="0"/>
        <pt x="444" y="244" on="1"/>
        <pt x="527" y="599" on="1"/>
        <pt x="237" y="599" on="1"/>
        <pt x="253" y="670" on="1"/>
      </contour>
    </TTGlyph>
    <TTGlyph name="K" xMin="26" yMin="0" xMax="734" yMax="670">
      <contour>
        <pt x="282" y="332" on="1"/>
        <pt x="602" y="0" on="1"/>
        <pt x="503" y="0" on="1"/>
        <pt x="220" y="297" on="1"/>
        <pt x="174" y="297" on="1"/>
        <pt x="105" y="0" on="1"/>
        <pt x="26" y="0" on="1"/>
        <pt x="181" y="670" on="1"/>
        <pt x="260" y="670" on="1"/>
        <pt x="190" y="368" on="1"/>
        <pt x="219" y="368" on="1"/>
        <pt x="626" y="670" on="1"/>
        <pt x="734" y="670" on="1"/>
      </contour>
    </TTGlyph>
    <TTGlyph name="K.ss03" xMin="29" yMin="0" xMax="735" yMax="670">
      <contour>
        <pt x="409" y="383" on="1"/>
        <pt x="618" y="0" on="1"/>
        <pt x="527" y="0" on="1"/>
        <pt x="348" y="329" on="1"/>
        <pt x="142" y="148" on="1"/>
        <pt x="108" y="0" on="1"/>
        <pt x="29" y="0" on="1"/>
        <pt x="184" y="670" on="1"/>
        <pt x="263" y="670" on="1"/>
        <pt x="170" y="268" on="1"/>
        <pt x="635" y="670" on="1"/>
        <pt x="735" y="670" on="1"/>
      </contour>
    </TTGlyph>
    <TTGlyph name="Kcommaaccent" xMin="26" yMin="-188" xMax="734" yMax="670">
      <contour>
        <pt x="282" y="332" on="1"/>
        <pt x="602" y="0" on="1"/>
        <pt x="503" y="0" on="1"/>
        <pt x="220" y="297" on="1"/>
        <pt x="174" y="297" on="1"/>
        <pt x="105" y="0" on="1"/>
        <pt x="26" y="0" on="1"/>
        <pt x="181" y="670" on="1"/>
        <pt x="260" y="670" on="1"/>
        <pt x="190" y="368" on="1"/>
        <pt x="219" y="368" on="1"/>
        <pt x="626" y="670" on="1"/>
        <pt x="734" y="670" on="1"/>
      </contour>
      <contour>
        <pt x="243" y="-45" on="1"/>
        <pt x="329" y="-45" on="1"/>
        <pt x="225" y="-188" on="1"/>
        <pt x="165" y="-188" on="1"/>
      </contour>
    </TTGlyph>
    <TTGlyph name="Kcommaaccent.ss03" xMin="29" yMin="-188" xMax="735" yMax="670">
      <contour>
        <pt x="409" y="383" on="1"/>
        <pt x="618" y="0" on="1"/>
        <pt x="527" y="0" on="1"/>
        <pt x="348" y="329" on="1"/>
        <pt x="142" y="148" on="1"/>
        <pt x="108" y="0" on="1"/>
        <pt x="29" y="0" on="1"/>
        <pt x="184" y="670" on="1"/>
        <pt x="263" y="670" on="1"/>
        <pt x="170" y="268" on="1"/>
        <pt x="635" y="670" on="1"/>
        <pt x="735" y="670" on="1"/>
      </contour>
      <contour>
        <pt x="250" y="-45" on="1"/>
        <pt x="336" y="-45" on="1"/>
        <pt x="232" y="-188" on="1"/>
        <pt x="172" y="-188" on="1"/>
      </contour>
    </TTGlyph>
    <TTGlyph name="L" xMin="31" yMin="0" xMax="511" yMax="670">
      <contour>
        <pt x="511" y="72" on="1"/>
        <pt x="495" y="0" on="1"/>
        <pt x="31" y="0" on="1"/>
        <pt x="186" y="670" on="1"/>
        <pt x="265" y="670" on="1"/>
        <pt x="127" y="72" on="1"/>
      </contour>
    </TTGlyph>
    <TTGlyph name="Lacute" xMin="31" yMin="0" xMax="511" yMax="885">
      <contour>
        <pt x="283" y="745" on="1"/>
        <pt x="211" y="745" on="1"/>
        <pt x="323" y="885" on="1"/>
        <pt x="420" y="885" on="1"/>
      </contour>
      <contour>
        <pt x="511" y="72" on="1"/>
        <pt x="495" y="0" on="1"/>
        <pt x="31" y="0" on="1"/>
        <pt x="186" y="670" on="1"/>
        <pt x="265" y="670" on="1"/>
        <pt x="127" y="72" on="1"/>
      </contour>
    </TTGlyph>
    <TTGlyph name="Lcaron" xMin="31" yMin="0" xMax="511" yMax="670">
      <contour>
        <pt x="511" y="72" on="1"/>
        <pt x="495" y="0" on="1"/>
        <pt x="31" y="0" on="1"/>
        <pt x="186" y="670" on="1"/>
        <pt x="265" y="670" on="1"/>
        <pt x="127" y="72" on="1"/>
      </contour>
      <contour>
        <pt x="427" y="498" on="1"/>
        <pt x="366" y="498" on="1"/>
        <pt x="406" y="670" on="1"/>
        <pt x="483" y="670" on="1"/>
      </contour>
    </TTGlyph>
    <TTGlyph name="Lcommaaccent" xMin="31" yMin="-188" xMax="511" yMax="670">
      <contour>
        <pt x="511" y="72" on="1"/>
        <pt x="495" y="0" on="1"/>
        <pt x="31" y="0" on="1"/>
        <pt x="186" y="670" on="1"/>
        <pt x="265" y="670" on="1"/>
        <pt x="127" y="72" on="1"/>
      </contour>
      <contour>
        <pt x="211" y="-45" on="1"/>
        <pt x="297" y="-45" on="1"/>
        <pt x="193" y="-188" on="1"/>
        <pt x="133" y="-188" on="1"/>
      </contour>
    </TTGlyph>
    <TTGlyph name="Ldot" xMin="31" yMin="0" xMax="511" yMax="670">
      <contour>
        <pt x="511" y="72" on="1"/>
        <pt x="495" y="0" on="1"/>
        <pt x="31" y="0" on="1"/>
        <pt x="186" y="670" on="1"/>
        <pt x="265" y="670" on="1"/>
        <pt x="127" y="72" on="1"/>
      </contour>
      <contour>
        <pt x="396" y="294" on="0"/>
        <pt x="352" y="294" on="0"/>
        <pt x="323" y="322" on="0"/>
        <pt x="323" y="344" on="1"/>
        <pt x="323" y="364" on="0"/>
        <pt x="352" y="393" on="0"/>
        <pt x="374" y="393" on="1"/>
        <pt x="395" y="393" on="0"/>
        <pt x="425" y="364" on="0"/>
        <pt x="425" y="344" on="1"/>
        <pt x="425" y="322" on="0"/>
      </contour>
    </TTGlyph>
    <TTGlyph name="Lslash" xMin="36" yMin="0" xMax="549" yMax="670">
      <contour>
        <pt x="549" y="72" on="1"/>
        <pt x="532" y="0" on="1"/>
        <pt x="69" y="0" on="1"/>
        <pt x="127" y="253" on="1"/>
        <pt x="36" y="213" on="1"/>
        <pt x="53" y="288" on="1"/>
        <pt x="144" y="328" on="1"/>
        <pt x="223" y="670" on="1"/>
        <pt x="302" y="670" on="1"/>
        <pt x="232" y="366" on="1"/>
        <pt x="398" y="438" on="1"/>
        <pt x="381" y="363" on="1"/>
        <pt x="215" y="291" on="1"/>
        <pt x="165" y="72" on="1"/>
      </contour>
    </TTGlyph>
    <TTGlyph name="M" xMin="31" yMin="0" xMax="908" yMax="670">
      <contour>
        <pt x="908" y="670" on="1"/>
        <pt x="754" y="0" on="1"/>
        <pt x="677" y="0" on="1"/>
        <pt x="790" y="491" on="1"/>
        <pt x="423" y="0" on="1"/>
        <pt x="362" y="0" on="1"/>
        <pt x="222" y="492" on="1"/>
        <pt x="108" y="0" on="1"/>
        <pt x="31" y="0" on="1"/>
        <pt x="186" y="670" on="1"/>
        <pt x="249" y="670" on="1"/>
        <pt x="410" y="103" on="1"/>
        <pt x="833" y="670" on="1"/>
      </contour>
    </TTGlyph>
    <TTGlyph name="N" xMin="32" yMin="0" xMax="770" yMax="670">
      <contour>
        <pt x="770" y="670" on="1"/>
        <pt x="615" y="0" on="1"/>
        <pt x="548" y="0" on="1"/>
        <pt x="237" y="541" on="1"/>
        <pt x="111" y="0" on="1"/>
        <pt x="32" y="0" on="1"/>
        <pt x="187" y="670" on="1"/>
        <pt x="255" y="670" on="1"/>
        <pt x="565" y="124" on="1"/>
        <pt x="691" y="670" on="1"/>
      </contour>
    </TTGlyph>
    <TTGlyph name="Nacute" xMin="32" yMin="0" xMax="770" yMax="885">
      <contour>
        <pt x="535" y="745" on="1"/>
        <pt x="463" y="745" on="1"/>
        <pt x="575" y="885" on="1"/>
        <pt x="672" y="885" on="1"/>
      </contour>
      <contour>
        <pt x="770" y="670" on="1"/>
        <pt x="615" y="0" on="1"/>
        <pt x="548" y="0" on="1"/>
        <pt x="237" y="541" on="1"/>
        <pt x="111" y="0" on="1"/>
        <pt x="32" y="0" on="1"/>
        <pt x="187" y="670" on="1"/>
        <pt x="255" y="670" on="1"/>
        <pt x="565" y="124" on="1"/>
        <pt x="691" y="670" on="1"/>
      </contour>
    </TTGlyph>
    <TTGlyph name="Ncaron" xMin="32" yMin="0" xMax="770" yMax="880">
      <contour>
        <pt x="456" y="738" on="1"/>
        <pt x="372" y="880" on="1"/>
        <pt x="446" y="880" on="1"/>
        <pt x="499" y="788" on="1"/>
        <pt x="596" y="880" on="1"/>
        <pt x="679" y="880" on="1"/>
        <pt x="529" y="738" on="1"/>
      </contour>
      <contour>
        <pt x="770" y="670" on="1"/>
        <pt x="615" y="0" on="1"/>
        <pt x="548" y="0" on="1"/>
        <pt x="237" y="541" on="1"/>
        <pt x="111" y="0" on="1"/>
        <pt x="32" y="0" on="1"/>
        <pt x="187" y="670" on="1"/>
        <pt x="255" y="670" on="1"/>
        <pt x="565" y="124" on="1"/>
        <pt x="691" y="670" on="1"/>
      </contour>
    </TTGlyph>
    <TTGlyph name="Ncommaaccent" xMin="32" yMin="-188" xMax="770" yMax="670">
      <contour>
        <pt x="770" y="670" on="1"/>
        <pt x="615" y="0" on="1"/>
        <pt x="548" y="0" on="1"/>
        <pt x="237" y="541" on="1"/>
        <pt x="111" y="0" on="1"/>
        <pt x="32" y="0" on="1"/>
        <pt x="187" y="670" on="1"/>
        <pt x="255" y="670" on="1"/>
        <pt x="565" y="124" on="1"/>
        <pt x="691" y="670" on="1"/>
      </contour>
      <contour>
        <pt x="288" y="-45" on="1"/>
        <pt x="374" y="-45" on="1"/>
        <pt x="270" y="-188" on="1"/>
        <pt x="210" y="-188" on="1"/>
      </contour>
    </TTGlyph>
    <TTGlyph name="Ntilde" xMin="32" yMin="0" xMax="770" yMax="873">
      <contour>
        <pt x="453" y="816" on="1"/>
        <pt x="435" y="816" on="0"/>
        <pt x="410" y="791" on="0"/>
        <pt x="405" y="771" on="1"/>
        <pt x="351" y="771" on="1"/>
        <pt x="363" y="823" on="0"/>
        <pt x="425" y="873" on="0"/>
        <pt x="462" y="873" on="1"/>
        <pt x="494" y="873" on="0"/>
        <pt x="552" y="825" on="0"/>
        <pt x="573" y="825" on="1"/>
        <pt x="590" y="825" on="0"/>
        <pt x="615" y="851" on="0"/>
        <pt x="620" y="872" on="1"/>
        <pt x="674" y="872" on="1"/>
        <pt x="662" y="819" on="0"/>
        <pt x="600" y="768" on="0"/>
        <pt x="564" y="768" on="1"/>
        <pt x="532" y="768" on="0"/>
        <pt x="473" y="816" on="0"/>
      </contour>
      <contour>
        <pt x="770" y="670" on="1"/>
        <pt x="615" y="0" on="1"/>
        <pt x="548" y="0" on="1"/>
        <pt x="237" y="541" on="1"/>
        <pt x="111" y="0" on="1"/>
        <pt x="32" y="0" on="1"/>
        <pt x="187" y="670" on="1"/>
        <pt x="255" y="670" on="1"/>
        <pt x="565" y="124" on="1"/>
        <pt x="691" y="670" on="1"/>
      </contour>
    </TTGlyph>
    <TTGlyph name="O" xMin="77" yMin="-13" xMax="768" yMax="684">
      <contour>
        <pt x="470" y="684" on="1"/>
        <pt x="618" y="684" on="0"/>
        <pt x="790" y="480" on="0"/>
        <pt x="768" y="335" on="1"/>
        <pt x="746" y="183" on="0"/>
        <pt x="524" y="-13" on="0"/>
        <pt x="376" y="-13" on="1"/>
        <pt x="228" y="-14" on="0"/>
        <pt x="56" y="188" on="0"/>
        <pt x="77" y="335" on="1"/>
        <pt x="100" y="481" on="0"/>
        <pt x="328" y="684" on="0"/>
      </contour>
      <contour>
        <pt x="379" y="61" on="1"/>
        <pt x="494" y="61" on="0"/>
        <pt x="671" y="218" on="0"/>
        <pt x="689" y="335" on="1"/>
        <pt x="706" y="450" on="0"/>
        <pt x="577" y="609" on="0"/>
        <pt x="468" y="609" on="1"/>
        <pt x="352" y="609" on="0"/>
        <pt x="173" y="451" on="0"/>
        <pt x="139" y="219" on="0"/>
        <pt x="270" y="61" on="0"/>
      </contour>
    </TTGlyph>
    <TTGlyph name="OE" xMin="76" yMin="0" xMax="1070" yMax="670">
      <contour>
        <pt x="644" y="599" on="1"/>
        <pt x="592" y="372" on="1"/>
        <pt x="971" y="372" on="1"/>
        <pt x="955" y="301" on="1"/>
        <pt x="575" y="301" on="1"/>
        <pt x="523" y="72" on="1"/>
        <pt x="933" y="72" on="1"/>
        <pt x="916" y="0" on="1"/>
        <pt x="363" y="0" on="1"/>
        <pt x="216" y="0" on="0"/>
        <pt x="53" y="183" on="0"/>
        <pt x="76" y="325" on="1"/>
        <pt x="99" y="477" on="0"/>
        <pt x="357" y="670" on="0"/>
        <pt x="536" y="670" on="1"/>
        <pt x="1070" y="670" on="1"/>
        <pt x="1053" y="599" on="1"/>
      </contour>
      <contour>
        <pt x="444" y="72" on="1"/>
        <pt x="565" y="599" on="1"/>
        <pt x="525" y="599" on="1"/>
        <pt x="378" y="599" on="0"/>
        <pt x="174" y="446" on="0"/>
        <pt x="156" y="325" on="1"/>
        <pt x="137" y="213" on="0"/>
        <pt x="253" y="72" on="0"/>
        <pt x="365" y="72" on="1"/>
      </contour>
    </TTGlyph>
    <TTGlyph name="Oacute" xMin="77" yMin="-13" xMax="768" yMax="885">
      <contour>
        <pt x="552" y="745" on="1"/>
        <pt x="480" y="745" on="1"/>
        <pt x="592" y="885" on="1"/>
        <pt x="689" y="885" on="1"/>
      </contour>
      <contour>
        <pt x="470" y="684" on="1"/>
        <pt x="618" y="684" on="0"/>
        <pt x="790" y="480" on="0"/>
        <pt x="768" y="335" on="1"/>
        <pt x="746" y="183" on="0"/>
        <pt x="524" y="-13" on="0"/>
        <pt x="376" y="-13" on="1"/>
        <pt x="228" y="-14" on="0"/>
        <pt x="56" y="188" on="0"/>
        <pt x="77" y="335" on="1"/>
        <pt x="100" y="481" on="0"/>
        <pt x="328" y="684" on="0"/>
      </contour>
      <contour>
        <pt x="379" y="61" on="1"/>
        <pt x="494" y="61" on="0"/>
        <pt x="671" y="218" on="0"/>
        <pt x="689" y="335" on="1"/>
        <pt x="706" y="450" on="0"/>
        <pt x="577" y="609" on="0"/>
        <pt x="468" y="609" on="1"/>
        <pt x="352" y="609" on="0"/>
        <pt x="173" y="451" on="0"/>
        <pt x="139" y="219" on="0"/>
        <pt x="270" y="61" on="0"/>
      </contour>
    </TTGlyph>
    <TTGlyph name="Ocircumflex" xMin="77" yMin="-13" xMax="768" yMax="879">
      <contour>
        <pt x="452" y="737" on="1"/>
        <pt x="370" y="737" on="1"/>
        <pt x="520" y="879" on="1"/>
        <pt x="592" y="879" on="1"/>
        <pt x="676" y="737" on="1"/>
        <pt x="603" y="737" on="1"/>
        <pt x="549" y="830" on="1"/>
      </contour>
      <contour>
        <pt x="470" y="684" on="1"/>
        <pt x="618" y="684" on="0"/>
        <pt x="790" y="480" on="0"/>
        <pt x="768" y="335" on="1"/>
        <pt x="746" y="183" on="0"/>
        <pt x="524" y="-13" on="0"/>
        <pt x="376" y="-13" on="1"/>
        <pt x="228" y="-14" on="0"/>
        <pt x="56" y="188" on="0"/>
        <pt x="77" y="335" on="1"/>
        <pt x="100" y="481" on="0"/>
        <pt x="328" y="684" on="0"/>
      </contour>
      <contour>
        <pt x="689" y="335" on="1"/>
        <pt x="706" y="450" on="0"/>
        <pt x="577" y="609" on="0"/>
        <pt x="468" y="609" on="1"/>
        <pt x="352" y="609" on="0"/>
        <pt x="173" y="451" on="0"/>
        <pt x="139" y="219" on="0"/>
        <pt x="270" y="61" on="0"/>
        <pt x="379" y="61" on="1"/>
        <pt x="494" y="61" on="0"/>
        <pt x="671" y="218" on="0"/>
      </contour>
    </TTGlyph>
    <TTGlyph name="Odieresis" xMin="77" yMin="-13" xMax="768" yMax="857">
      <contour>
        <pt x="403" y="857" on="0"/>
        <pt x="447" y="857" on="0"/>
        <pt x="478" y="827" on="0"/>
        <pt x="478" y="806" on="1"/>
        <pt x="478" y="784" on="0"/>
        <pt x="448" y="755" on="0"/>
        <pt x="425" y="755" on="1"/>
        <pt x="403" y="755" on="0"/>
        <pt x="373" y="784" on="0"/>
        <pt x="373" y="806" on="1"/>
        <pt x="373" y="827" on="0"/>
      </contour>
      <contour>
        <pt x="601" y="857" on="0"/>
        <pt x="645" y="857" on="0"/>
        <pt x="676" y="827" on="0"/>
        <pt x="676" y="806" on="1"/>
        <pt x="676" y="784" on="0"/>
        <pt x="646" y="755" on="0"/>
        <pt x="623" y="755" on="1"/>
        <pt x="601" y="755" on="0"/>
        <pt x="571" y="784" on="0"/>
        <pt x="571" y="806" on="1"/>
        <pt x="571" y="827" on="0"/>
      </contour>
      <contour>
        <pt x="470" y="684" on="1"/>
        <pt x="618" y="684" on="0"/>
        <pt x="790" y="480" on="0"/>
        <pt x="768" y="335" on="1"/>
        <pt x="746" y="183" on="0"/>
        <pt x="524" y="-13" on="0"/>
        <pt x="376" y="-13" on="1"/>
        <pt x="228" y="-14" on="0"/>
        <pt x="56" y="188" on="0"/>
        <pt x="77" y="335" on="1"/>
        <pt x="100" y="481" on="0"/>
        <pt x="328" y="684" on="0"/>
      </contour>
      <contour>
        <pt x="379" y="61" on="1"/>
        <pt x="494" y="61" on="0"/>
        <pt x="671" y="218" on="0"/>
        <pt x="689" y="335" on="1"/>
        <pt x="706" y="450" on="0"/>
        <pt x="577" y="609" on="0"/>
        <pt x="468" y="609" on="1"/>
        <pt x="352" y="609" on="0"/>
        <pt x="173" y="451" on="0"/>
        <pt x="139" y="219" on="0"/>
        <pt x="270" y="61" on="0"/>
      </contour>
    </TTGlyph>
    <TTGlyph name="Ograve" xMin="77" yMin="-13" xMax="768" yMax="885">
      <contour>
        <pt x="434" y="885" on="1"/>
        <pt x="546" y="745" on="1"/>
        <pt x="475" y="745" on="1"/>
        <pt x="338" y="885" on="1"/>
      </contour>
      <contour>
        <pt x="470" y="684" on="1"/>
        <pt x="618" y="684" on="0"/>
        <pt x="790" y="480" on="0"/>
        <pt x="768" y="335" on="1"/>
        <pt x="746" y="183" on="0"/>
        <pt x="524" y="-13" on="0"/>
        <pt x="376" y="-13" on="1"/>
        <pt x="228" y="-14" on="0"/>
        <pt x="56" y="188" on="0"/>
        <pt x="77" y="335" on="1"/>
        <pt x="100" y="481" on="0"/>
        <pt x="328" y="684" on="0"/>
      </contour>
      <contour>
        <pt x="379" y="61" on="1"/>
        <pt x="494" y="61" on="0"/>
        <pt x="671" y="218" on="0"/>
        <pt x="689" y="335" on="1"/>
        <pt x="706" y="450" on="0"/>
        <pt x="577" y="609" on="0"/>
        <pt x="468" y="609" on="1"/>
        <pt x="352" y="609" on="0"/>
        <pt x="173" y="451" on="0"/>
        <pt x="139" y="219" on="0"/>
        <pt x="270" y="61" on="0"/>
      </contour>
    </TTGlyph>
    <TTGlyph name="Ohungarumlaut" xMin="77" yMin="-13" xMax="768" yMax="885">
      <contour>
        <pt x="464" y="745" on="1"/>
        <pt x="395" y="745" on="1"/>
        <pt x="507" y="885" on="1"/>
        <pt x="602" y="885" on="1"/>
      </contour>
      <contour>
        <pt x="618" y="745" on="1"/>
        <pt x="549" y="745" on="1"/>
        <pt x="660" y="885" on="1"/>
        <pt x="755" y="885" on="1"/>
      </contour>
      <contour>
        <pt x="470" y="684" on="1"/>
        <pt x="618" y="684" on="0"/>
        <pt x="790" y="480" on="0"/>
        <pt x="768" y="335" on="1"/>
        <pt x="746" y="183" on="0"/>
        <pt x="524" y="-13" on="0"/>
        <pt x="376" y="-13" on="1"/>
        <pt x="228" y="-14" on="0"/>
        <pt x="56" y="188" on="0"/>
        <pt x="77" y="335" on="1"/>
        <pt x="100" y="481" on="0"/>
        <pt x="328" y="684" on="0"/>
      </contour>
      <contour>
        <pt x="379" y="61" on="1"/>
        <pt x="494" y="61" on="0"/>
        <pt x="671" y="218" on="0"/>
        <pt x="689" y="335" on="1"/>
        <pt x="706" y="450" on="0"/>
        <pt x="577" y="609" on="0"/>
        <pt x="468" y="609" on="1"/>
        <pt x="352" y="609" on="0"/>
        <pt x="173" y="451" on="0"/>
        <pt x="139" y="219" on="0"/>
        <pt x="270" y="61" on="0"/>
      </contour>
    </TTGlyph>
    <TTGlyph name="Omacron" xMin="77" yMin="-13" xMax="768" yMax="824">
      <contour>
        <pt x="656" y="762" on="1"/>
        <pt x="372" y="762" on="1"/>
        <pt x="386" y="824" on="1"/>
        <pt x="670" y="824" on="1"/>
      </contour>
      <contour>
        <pt x="470" y="684" on="1"/>
        <pt x="618" y="684" on="0"/>
        <pt x="790" y="480" on="0"/>
        <pt x="768" y="335" on="1"/>
        <pt x="746" y="183" on="0"/>
        <pt x="524" y="-13" on="0"/>
        <pt x="376" y="-13" on="1"/>
        <pt x="228" y="-14" on="0"/>
        <pt x="56" y="188" on="0"/>
        <pt x="77" y="335" on="1"/>
        <pt x="100" y="481" on="0"/>
        <pt x="328" y="684" on="0"/>
      </contour>
      <contour>
        <pt x="379" y="61" on="1"/>
        <pt x="494" y="61" on="0"/>
        <pt x="671" y="218" on="0"/>
        <pt x="689" y="335" on="1"/>
        <pt x="706" y="450" on="0"/>
        <pt x="577" y="609" on="0"/>
        <pt x="468" y="609" on="1"/>
        <pt x="352" y="609" on="0"/>
        <pt x="173" y="451" on="0"/>
        <pt x="139" y="219" on="0"/>
        <pt x="270" y="61" on="0"/>
      </contour>
    </TTGlyph>
    <TTGlyph name="Oslash" xMin="10" yMin="-13" xMax="811" yMax="684">
      <contour>
        <pt x="811" y="618" on="1"/>
        <pt x="727" y="550" on="1"/>
        <pt x="786" y="458" on="0"/>
        <pt x="768" y="335" on="1"/>
        <pt x="746" y="183" on="0"/>
        <pt x="524" y="-13" on="0"/>
        <pt x="376" y="-13" on="1"/>
        <pt x="235" y="-13" on="0"/>
        <pt x="148" y="80" on="1"/>
        <pt x="52" y="2" on="1"/>
        <pt x="10" y="55" on="1"/>
        <pt x="109" y="135" on="1"/>
        <pt x="61" y="226" on="0"/>
        <pt x="77" y="335" on="1"/>
        <pt x="100" y="481" on="0"/>
        <pt x="328" y="684" on="0"/>
        <pt x="470" y="684" on="1"/>
        <pt x="599" y="684" on="0"/>
        <pt x="685" y="603" on="1"/>
        <pt x="769" y="671" on="1"/>
      </contour>
      <contour>
        <pt x="156" y="335" on="1"/>
        <pt x="144" y="254" on="0"/>
        <pt x="174" y="188" on="1"/>
        <pt x="621" y="551" on="1"/>
        <pt x="560" y="609" on="0"/>
        <pt x="468" y="609" on="1"/>
        <pt x="352" y="609" on="0"/>
        <pt x="173" y="451" on="0"/>
      </contour>
      <contour>
        <pt x="689" y="335" on="1"/>
        <pt x="702" y="427" on="0"/>
        <pt x="663" y="498" on="1"/>
        <pt x="212" y="132" on="1"/>
        <pt x="277" y="61" on="0"/>
        <pt x="379" y="61" on="1"/>
        <pt x="494" y="61" on="0"/>
        <pt x="671" y="218" on="0"/>
      </contour>
    </TTGlyph>
    <TTGlyph name="Otilde" xMin="77" yMin="-13" xMax="768" yMax="873">
      <contour>
        <pt x="422" y="771" on="1"/>
        <pt x="368" y="771" on="1"/>
        <pt x="380" y="823" on="0"/>
        <pt x="442" y="873" on="0"/>
        <pt x="479" y="873" on="1"/>
        <pt x="511" y="873" on="0"/>
        <pt x="569" y="825" on="0"/>
        <pt x="590" y="825" on="1"/>
        <pt x="607" y="825" on="0"/>
        <pt x="632" y="851" on="0"/>
        <pt x="637" y="872" on="1"/>
        <pt x="691" y="872" on="1"/>
        <pt x="679" y="819" on="0"/>
        <pt x="617" y="768" on="0"/>
        <pt x="581" y="768" on="1"/>
        <pt x="548" y="768" on="0"/>
        <pt x="490" y="816" on="0"/>
        <pt x="470" y="816" on="1"/>
        <pt x="452" y="816" on="0"/>
        <pt x="427" y="791" on="0"/>
      </contour>
      <contour>
        <pt x="470" y="684" on="1"/>
        <pt x="618" y="684" on="0"/>
        <pt x="790" y="480" on="0"/>
        <pt x="768" y="335" on="1"/>
        <pt x="746" y="183" on="0"/>
        <pt x="524" y="-13" on="0"/>
        <pt x="376" y="-13" on="1"/>
        <pt x="228" y="-14" on="0"/>
        <pt x="56" y="188" on="0"/>
        <pt x="77" y="335" on="1"/>
        <pt x="100" y="481" on="0"/>
        <pt x="328" y="684" on="0"/>
      </contour>
      <contour>
        <pt x="379" y="61" on="1"/>
        <pt x="494" y="61" on="0"/>
        <pt x="671" y="218" on="0"/>
        <pt x="689" y="335" on="1"/>
        <pt x="706" y="450" on="0"/>
        <pt x="577" y="609" on="0"/>
        <pt x="468" y="609" on="1"/>
        <pt x="352" y="609" on="0"/>
        <pt x="173" y="451" on="0"/>
        <pt x="139" y="219" on="0"/>
        <pt x="270" y="61" on="0"/>
      </contour>
    </TTGlyph>
    <TTGlyph name="P" xMin="31" yMin="0" xMax="668" yMax="670">
      <contour>
        <pt x="185" y="670" on="1"/>
        <pt x="464" y="670" on="1"/>
        <pt x="558" y="670" on="0"/>
        <pt x="668" y="573" on="0"/>
        <pt x="668" y="492" on="1"/>
        <pt x="668" y="389" on="0"/>
        <pt x="509" y="254" on="0"/>
        <pt x="385" y="254" on="1"/>
        <pt x="168" y="254" on="1"/>
        <pt x="110" y="0" on="1"/>
        <pt x="31" y="0" on="1"/>
      </contour>
      <contour>
        <pt x="185" y="325" on="1"/>
        <pt x="389" y="325" on="1"/>
        <pt x="476" y="325" on="0"/>
        <pt x="588" y="420" on="0"/>
        <pt x="588" y="489" on="1"/>
        <pt x="588" y="540" on="0"/>
        <pt x="522" y="599" on="0"/>
        <pt x="459" y="599" on="1"/>
        <pt x="248" y="599" on="1"/>
      </contour>
    </TTGlyph>
    <TTGlyph name="Q" xMin="77" yMin="-159" xMax="768" yMax="684">
      <contour>
        <pt x="768" y="335" on="1"/>
        <pt x="742" y="158" on="0"/>
        <pt x="603" y="60" on="1"/>
        <pt x="741" y="-104" on="1"/>
        <pt x="680" y="-159" on="1"/>
        <pt x="529" y="18" on="1"/>
        <pt x="456" y="-13" on="0"/>
        <pt x="376" y="-13" on="1"/>
        <pt x="228" y="-14" on="0"/>
        <pt x="56" y="188" on="0"/>
        <pt x="77" y="335" on="1"/>
        <pt x="100" y="481" on="0"/>
        <pt x="328" y="684" on="0"/>
        <pt x="470" y="684" on="1"/>
        <pt x="618" y="684" on="0"/>
        <pt x="790" y="480" on="0"/>
      </contour>
      <contour>
        <pt x="173" y="451" on="0"/>
        <pt x="139" y="219" on="0"/>
        <pt x="270" y="61" on="0"/>
        <pt x="379" y="61" on="1"/>
        <pt x="494" y="61" on="0"/>
        <pt x="671" y="218" on="0"/>
        <pt x="689" y="335" on="1"/>
        <pt x="706" y="450" on="0"/>
        <pt x="577" y="609" on="0"/>
        <pt x="468" y="609" on="1"/>
        <pt x="352" y="609" on="0"/>
      </contour>
    </TTGlyph>
    <TTGlyph name="Q.ss04" xMin="77" yMin="-170" xMax="773" yMax="684">
      <contour>
        <pt x="665" y="-170" on="1"/>
        <pt x="516" y="13" on="1"/>
        <pt x="449" y="-13" on="0"/>
        <pt x="376" y="-13" on="1"/>
        <pt x="228" y="-14" on="0"/>
        <pt x="56" y="188" on="0"/>
        <pt x="77" y="335" on="1"/>
        <pt x="100" y="481" on="0"/>
        <pt x="328" y="684" on="0"/>
        <pt x="470" y="684" on="1"/>
        <pt x="618" y="684" on="0"/>
        <pt x="790" y="480" on="0"/>
        <pt x="768" y="335" on="1"/>
        <pt x="755" y="245" on="0"/>
        <pt x="662" y="98" on="0"/>
        <pt x="591" y="51" on="1"/>
        <pt x="773" y="-170" on="1"/>
      </contour>
      <contour>
        <pt x="173" y="451" on="0"/>
        <pt x="139" y="219" on="0"/>
        <pt x="270" y="61" on="0"/>
        <pt x="379" y="61" on="1"/>
        <pt x="494" y="61" on="0"/>
        <pt x="671" y="218" on="0"/>
        <pt x="689" y="335" on="1"/>
        <pt x="706" y="450" on="0"/>
        <pt x="577" y="609" on="0"/>
        <pt x="468" y="609" on="1"/>
        <pt x="352" y="609" on="0"/>
      </contour>
    </TTGlyph>
    <TTGlyph name="R" xMin="36" yMin="0" xMax="679" yMax="670">
      <contour>
        <pt x="679" y="509" on="1"/>
        <pt x="679" y="415" on="0"/>
        <pt x="542" y="293" on="0"/>
        <pt x="429" y="287" on="1"/>
        <pt x="598" y="0" on="1"/>
        <pt x="508" y="0" on="1"/>
        <pt x="344" y="287" on="1"/>
        <pt x="181" y="287" on="1"/>
        <pt x="115" y="0" on="1"/>
        <pt x="36" y="0" on="1"/>
        <pt x="190" y="670" on="1"/>
        <pt x="490" y="670" on="1"/>
        <pt x="576" y="670" on="0"/>
        <pt x="679" y="583" on="0"/>
      </contour>
      <contour>
        <pt x="198" y="359" on="1"/>
        <pt x="414" y="359" on="1"/>
        <pt x="498" y="359" on="0"/>
        <pt x="599" y="438" on="0"/>
        <pt x="599" y="502" on="1"/>
        <pt x="599" y="547" on="0"/>
        <pt x="537" y="599" on="0"/>
        <pt x="486" y="599" on="1"/>
        <pt x="253" y="599" on="1"/>
      </contour>
    </TTGlyph>
    <TTGlyph name="Racute" xMin="36" yMin="0" xMax="679" yMax="885">
      <contour>
        <pt x="469" y="745" on="1"/>
        <pt x="397" y="745" on="1"/>
        <pt x="509" y="885" on="1"/>
        <pt x="606" y="885" on="1"/>
      </contour>
      <contour>
        <pt x="679" y="509" on="1"/>
        <pt x="679" y="415" on="0"/>
        <pt x="542" y="293" on="0"/>
        <pt x="429" y="287" on="1"/>
        <pt x="598" y="0" on="1"/>
        <pt x="508" y="0" on="1"/>
        <pt x="344" y="287" on="1"/>
        <pt x="181" y="287" on="1"/>
        <pt x="115" y="0" on="1"/>
        <pt x="36" y="0" on="1"/>
        <pt x="190" y="670" on="1"/>
        <pt x="490" y="670" on="1"/>
        <pt x="576" y="670" on="0"/>
        <pt x="679" y="583" on="0"/>
      </contour>
      <contour>
        <pt x="198" y="359" on="1"/>
        <pt x="414" y="359" on="1"/>
        <pt x="498" y="359" on="0"/>
        <pt x="599" y="438" on="0"/>
        <pt x="599" y="502" on="1"/>
        <pt x="599" y="547" on="0"/>
        <pt x="537" y="599" on="0"/>
        <pt x="486" y="599" on="1"/>
        <pt x="253" y="599" on="1"/>
      </contour>
    </TTGlyph>
    <TTGlyph name="Rcaron" xMin="36" yMin="0" xMax="679" yMax="880">
      <contour>
        <pt x="390" y="738" on="1"/>
        <pt x="306" y="880" on="1"/>
        <pt x="380" y="880" on="1"/>
        <pt x="433" y="788" on="1"/>
        <pt x="530" y="880" on="1"/>
        <pt x="613" y="880" on="1"/>
        <pt x="463" y="738" on="1"/>
      </contour>
      <contour>
        <pt x="679" y="509" on="1"/>
        <pt x="679" y="415" on="0"/>
        <pt x="542" y="293" on="0"/>
        <pt x="429" y="287" on="1"/>
        <pt x="598" y="0" on="1"/>
        <pt x="508" y="0" on="1"/>
        <pt x="344" y="287" on="1"/>
        <pt x="181" y="287" on="1"/>
        <pt x="115" y="0" on="1"/>
        <pt x="36" y="0" on="1"/>
        <pt x="190" y="670" on="1"/>
        <pt x="490" y="670" on="1"/>
        <pt x="576" y="670" on="0"/>
        <pt x="679" y="583" on="0"/>
      </contour>
      <contour>
        <pt x="198" y="359" on="1"/>
        <pt x="414" y="359" on="1"/>
        <pt x="498" y="359" on="0"/>
        <pt x="599" y="438" on="0"/>
        <pt x="599" y="502" on="1"/>
        <pt x="599" y="547" on="0"/>
        <pt x="537" y="599" on="0"/>
        <pt x="486" y="599" on="1"/>
        <pt x="253" y="599" on="1"/>
      </contour>
    </TTGlyph>
    <TTGlyph name="Rcommaaccent" xMin="36" yMin="-188" xMax="679" yMax="670">
      <contour>
        <pt x="679" y="509" on="1"/>
        <pt x="679" y="415" on="0"/>
        <pt x="542" y="293" on="0"/>
        <pt x="429" y="287" on="1"/>
        <pt x="598" y="0" on="1"/>
        <pt x="508" y="0" on="1"/>
        <pt x="344" y="287" on="1"/>
        <pt x="181" y="287" on="1"/>
        <pt x="115" y="0" on="1"/>
        <pt x="36" y="0" on="1"/>
        <pt x="190" y="670" on="1"/>
        <pt x="490" y="670" on="1"/>
        <pt x="576" y="670" on="0"/>
        <pt x="679" y="583" on="0"/>
      </contour>
      <contour>
        <pt x="198" y="359" on="1"/>
        <pt x="414" y="359" on="1"/>
        <pt x="498" y="359" on="0"/>
        <pt x="599" y="438" on="0"/>
        <pt x="599" y="502" on="1"/>
        <pt x="599" y="547" on="0"/>
        <pt x="537" y="599" on="0"/>
        <pt x="486" y="599" on="1"/>
        <pt x="253" y="599" on="1"/>
      </contour>
      <contour>
        <pt x="242" y="-45" on="1"/>
        <pt x="328" y="-45" on="1"/>
        <pt x="224" y="-188" on="1"/>
        <pt x="164" y="-188" on="1"/>
      </contour>
    </TTGlyph>
    <TTGlyph name="S" xMin="30" yMin="-13" xMax="623" yMax="683">
      <contour>
        <pt x="386" y="683" on="1"/>
        <pt x="490" y="683" on="0"/>
        <pt x="616" y="581" on="0"/>
        <pt x="623" y="494" on="1"/>
        <pt x="544" y="476" on="1"/>
        <pt x="541" y="539" on="0"/>
        <pt x="451" y="615" on="0"/>
        <pt x="307" y="615" on="0"/>
        <pt x="212" y="543" on="0"/>
        <pt x="212" y="488" on="1"/>
        <pt x="212" y="456" on="0"/>
        <pt x="252" y="415" on="0"/>
        <pt x="296" y="399" on="1"/>
        <pt x="412" y="357" on="1"/>
        <pt x="484" y="332" on="0"/>
        <pt x="554" y="255" on="0"/>
        <pt x="554" y="196" on="1"/>
        <pt x="554" y="102" on="0"/>
        <pt x="409" y="-13" on="0"/>
        <pt x="292" y="-13" on="1"/>
        <pt x="181" y="-13" on="0"/>
        <pt x="34" y="96" on="0"/>
        <pt x="30" y="192" on="1"/>
        <pt x="113" y="209" on="1"/>
        <pt x="115" y="137" on="0"/>
        <pt x="215" y="56" on="0"/>
        <pt x="299" y="56" on="1"/>
        <pt x="380" y="56" on="0"/>
        <pt x="476" y="128" on="0"/>
        <pt x="476" y="187" on="1"/>
        <pt x="476" y="221" on="0"/>
        <pt x="434" y="267" on="0"/>
        <pt x="386" y="284" on="1"/>
        <pt x="268" y="326" on="1"/>
        <pt x="200" y="351" on="0"/>
        <pt x="130" y="418" on="0"/>
        <pt x="130" y="478" on="1"/>
        <pt x="130" y="568" on="0"/>
        <pt x="274" y="683" on="0"/>
      </contour>
    </TTGlyph>
    <TTGlyph name="Sacute" xMin="30" yMin="-13" xMax="623" yMax="885">
      <contour>
        <pt x="450" y="745" on="1"/>
        <pt x="378" y="745" on="1"/>
        <pt x="490" y="885" on="1"/>
        <pt x="587" y="885" on="1"/>
      </contour>
      <contour>
        <pt x="386" y="683" on="1"/>
        <pt x="490" y="683" on="0"/>
        <pt x="616" y="581" on="0"/>
        <pt x="623" y="494" on="1"/>
        <pt x="544" y="476" on="1"/>
        <pt x="541" y="539" on="0"/>
        <pt x="451" y="615" on="0"/>
        <pt x="307" y="615" on="0"/>
        <pt x="212" y="543" on="0"/>
        <pt x="212" y="488" on="1"/>
        <pt x="212" y="456" on="0"/>
        <pt x="252" y="415" on="0"/>
        <pt x="296" y="399" on="1"/>
        <pt x="412" y="357" on="1"/>
        <pt x="484" y="332" on="0"/>
        <pt x="554" y="255" on="0"/>
        <pt x="554" y="196" on="1"/>
        <pt x="554" y="102" on="0"/>
        <pt x="409" y="-13" on="0"/>
        <pt x="292" y="-13" on="1"/>
        <pt x="181" y="-13" on="0"/>
        <pt x="34" y="96" on="0"/>
        <pt x="30" y="192" on="1"/>
        <pt x="113" y="209" on="1"/>
        <pt x="115" y="137" on="0"/>
        <pt x="215" y="56" on="0"/>
        <pt x="299" y="56" on="1"/>
        <pt x="380" y="56" on="0"/>
        <pt x="476" y="128" on="0"/>
        <pt x="476" y="187" on="1"/>
        <pt x="476" y="221" on="0"/>
        <pt x="434" y="267" on="0"/>
        <pt x="386" y="284" on="1"/>
        <pt x="268" y="326" on="1"/>
        <pt x="200" y="351" on="0"/>
        <pt x="130" y="418" on="0"/>
        <pt x="130" y="478" on="1"/>
        <pt x="130" y="568" on="0"/>
        <pt x="274" y="683" on="0"/>
      </contour>
    </TTGlyph>
    <TTGlyph name="Scaron" xMin="30" yMin="-13" xMax="623" yMax="880">
      <contour>
        <pt x="371" y="738" on="1"/>
        <pt x="287" y="880" on="1"/>
        <pt x="361" y="880" on="1"/>
        <pt x="414" y="788" on="1"/>
        <pt x="511" y="880" on="1"/>
        <pt x="594" y="880" on="1"/>
        <pt x="444" y="738" on="1"/>
      </contour>
      <contour>
        <pt x="296" y="399" on="1"/>
        <pt x="412" y="357" on="1"/>
        <pt x="484" y="332" on="0"/>
        <pt x="554" y="255" on="0"/>
        <pt x="554" y="196" on="1"/>
        <pt x="554" y="102" on="0"/>
        <pt x="409" y="-13" on="0"/>
        <pt x="292" y="-13" on="1"/>
        <pt x="181" y="-13" on="0"/>
        <pt x="34" y="96" on="0"/>
        <pt x="30" y="192" on="1"/>
        <pt x="113" y="209" on="1"/>
        <pt x="115" y="137" on="0"/>
        <pt x="215" y="56" on="0"/>
        <pt x="299" y="56" on="1"/>
        <pt x="380" y="56" on="0"/>
        <pt x="476" y="128" on="0"/>
        <pt x="476" y="187" on="1"/>
        <pt x="476" y="221" on="0"/>
        <pt x="434" y="267" on="0"/>
        <pt x="386" y="284" on="1"/>
        <pt x="268" y="326" on="1"/>
        <pt x="200" y="351" on="0"/>
        <pt x="130" y="418" on="0"/>
        <pt x="130" y="478" on="1"/>
        <pt x="130" y="568" on="0"/>
        <pt x="274" y="683" on="0"/>
        <pt x="386" y="683" on="1"/>
        <pt x="490" y="683" on="0"/>
        <pt x="616" y="581" on="0"/>
        <pt x="623" y="494" on="1"/>
        <pt x="544" y="476" on="1"/>
        <pt x="541" y="539" on="0"/>
        <pt x="451" y="615" on="0"/>
        <pt x="307" y="615" on="0"/>
        <pt x="212" y="543" on="0"/>
        <pt x="212" y="488" on="1"/>
        <pt x="212" y="456" on="0"/>
        <pt x="252" y="415" on="0"/>
      </contour>
    </TTGlyph>
    <TTGlyph name="Scedilla" xMin="30" yMin="-170" xMax="623" yMax="683">
      <contour>
        <pt x="296" y="399" on="1"/>
        <pt x="412" y="357" on="1"/>
        <pt x="484" y="332" on="0"/>
        <pt x="554" y="255" on="0"/>
        <pt x="554" y="196" on="1"/>
        <pt x="554" y="105" on="0"/>
        <pt x="417" y="-10" on="0"/>
        <pt x="304" y="-13" on="1"/>
        <pt x="198" y="-170" on="1"/>
        <pt x="106" y="-170" on="1"/>
        <pt x="243" y="-10" on="1"/>
        <pt x="150" y="2" on="0"/>
        <pt x="33" y="107" on="0"/>
        <pt x="30" y="192" on="1"/>
        <pt x="113" y="209" on="1"/>
        <pt x="115" y="137" on="0"/>
        <pt x="215" y="56" on="0"/>
        <pt x="299" y="56" on="1"/>
        <pt x="380" y="56" on="0"/>
        <pt x="476" y="128" on="0"/>
        <pt x="476" y="187" on="1"/>
        <pt x="476" y="221" on="0"/>
        <pt x="434" y="267" on="0"/>
        <pt x="386" y="284" on="1"/>
        <pt x="268" y="326" on="1"/>
        <pt x="200" y="351" on="0"/>
        <pt x="130" y="418" on="0"/>
        <pt x="130" y="478" on="1"/>
        <pt x="130" y="568" on="0"/>
        <pt x="274" y="683" on="0"/>
        <pt x="386" y="683" on="1"/>
        <pt x="490" y="683" on="0"/>
        <pt x="616" y="581" on="0"/>
        <pt x="623" y="494" on="1"/>
        <pt x="544" y="476" on="1"/>
        <pt x="541" y="539" on="0"/>
        <pt x="451" y="615" on="0"/>
        <pt x="307" y="615" on="0"/>
        <pt x="212" y="543" on="0"/>
        <pt x="212" y="488" on="1"/>
        <pt x="212" y="456" on="0"/>
        <pt x="252" y="415" on="0"/>
      </contour>
    </TTGlyph>
    <TTGlyph name="Scommaaccent" xMin="30" yMin="-188" xMax="623" yMax="683">
      <contour>
        <pt x="386" y="683" on="1"/>
        <pt x="490" y="683" on="0"/>
        <pt x="616" y="581" on="0"/>
        <pt x="623" y="494" on="1"/>
        <pt x="544" y="476" on="1"/>
        <pt x="541" y="539" on="0"/>
        <pt x="451" y="615" on="0"/>
        <pt x="307" y="615" on="0"/>
        <pt x="212" y="543" on="0"/>
        <pt x="212" y="488" on="1"/>
        <pt x="212" y="456" on="0"/>
        <pt x="252" y="415" on="0"/>
        <pt x="296" y="399" on="1"/>
        <pt x="412" y="357" on="1"/>
        <pt x="484" y="332" on="0"/>
        <pt x="554" y="255" on="0"/>
        <pt x="554" y="196" on="1"/>
        <pt x="554" y="102" on="0"/>
        <pt x="409" y="-13" on="0"/>
        <pt x="292" y="-13" on="1"/>
        <pt x="181" y="-13" on="0"/>
        <pt x="34" y="96" on="0"/>
        <pt x="30" y="192" on="1"/>
        <pt x="113" y="209" on="1"/>
        <pt x="115" y="137" on="0"/>
        <pt x="215" y="56" on="0"/>
        <pt x="299" y="56" on="1"/>
        <pt x="380" y="56" on="0"/>
        <pt x="476" y="128" on="0"/>
        <pt x="476" y="187" on="1"/>
        <pt x="476" y="221" on="0"/>
        <pt x="434" y="267" on="0"/>
        <pt x="386" y="284" on="1"/>
        <pt x="268" y="326" on="1"/>
        <pt x="200" y="351" on="0"/>
        <pt x="130" y="418" on="0"/>
        <pt x="130" y="478" on="1"/>
        <pt x="130" y="568" on="0"/>
        <pt x="274" y="683" on="0"/>
      </contour>
      <contour>
        <pt x="139" y="-188" on="1"/>
        <pt x="217" y="-45" on="1"/>
        <pt x="303" y="-45" on="1"/>
        <pt x="199" y="-188" on="1"/>
      </contour>
    </TTGlyph>
    <TTGlyph name="T" xMin="107" yMin="0" xMax="700" yMax="670">
      <contour>
        <pt x="684" y="599" on="1"/>
        <pt x="436" y="599" on="1"/>
        <pt x="297" y="0" on="1"/>
        <pt x="217" y="0" on="1"/>
        <pt x="356" y="599" on="1"/>
        <pt x="107" y="599" on="1"/>
        <pt x="123" y="670" on="1"/>
        <pt x="700" y="670" on="1"/>
      </contour>
    </TTGlyph>
    <TTGlyph name="Tbar" xMin="107" yMin="0" xMax="700" yMax="670">
      <contour>
        <pt x="436" y="599" on="1"/>
        <pt x="382" y="369" on="1"/>
        <pt x="516" y="369" on="1"/>
        <pt x="501" y="303" on="1"/>
        <pt x="367" y="303" on="1"/>
        <pt x="297" y="0" on="1"/>
        <pt x="217" y="0" on="1"/>
        <pt x="287" y="303" on="1"/>
        <pt x="157" y="303" on="1"/>
        <pt x="172" y="369" on="1"/>
        <pt x="302" y="369" on="1"/>
        <pt x="356" y="599" on="1"/>
        <pt x="107" y="599" on="1"/>
        <pt x="123" y="670" on="1"/>
        <pt x="700" y="670" on="1"/>
        <pt x="684" y="599" on="1"/>
      </contour>
    </TTGlyph>
    <TTGlyph name="Tcaron" xMin="107" yMin="0" xMax="700" yMax="880">
      <contour>
        <pt x="392" y="738" on="1"/>
        <pt x="308" y="880" on="1"/>
        <pt x="382" y="880" on="1"/>
        <pt x="435" y="788" on="1"/>
        <pt x="532" y="880" on="1"/>
        <pt x="615" y="880" on="1"/>
        <pt x="465" y="738" on="1"/>
      </contour>
      <contour>
        <pt x="684" y="599" on="1"/>
        <pt x="436" y="599" on="1"/>
        <pt x="297" y="0" on="1"/>
        <pt x="217" y="0" on="1"/>
        <pt x="356" y="599" on="1"/>
        <pt x="107" y="599" on="1"/>
        <pt x="123" y="670" on="1"/>
        <pt x="700" y="670" on="1"/>
      </contour>
    </TTGlyph>
    <TTGlyph name="Thorn" xMin="31" yMin="0" xMax="620" yMax="670">
      <contour>
        <pt x="237" y="549" on="1"/>
        <pt x="414" y="549" on="1"/>
        <pt x="509" y="549" on="0"/>
        <pt x="620" y="452" on="0"/>
        <pt x="620" y="373" on="1"/>
        <pt x="620" y="267" on="0"/>
        <pt x="462" y="122" on="0"/>
        <pt x="348" y="122" on="1"/>
        <pt x="138" y="122" on="1"/>
        <pt x="110" y="0" on="1"/>
        <pt x="31" y="0" on="1"/>
        <pt x="186" y="670" on="1"/>
        <pt x="265" y="670" on="1"/>
      </contour>
      <contour>
        <pt x="155" y="193" on="1"/>
        <pt x="343" y="193" on="1"/>
        <pt x="425" y="193" on="0"/>
        <pt x="540" y="293" on="0"/>
        <pt x="540" y="364" on="1"/>
        <pt x="540" y="416" on="0"/>
        <pt x="473" y="477" on="0"/>
        <pt x="411" y="477" on="1"/>
        <pt x="221" y="477" on="1"/>
      </contour>
    </TTGlyph>
    <TTGlyph name="U" xMin="91" yMin="-13" xMax="739" yMax="670">
      <contour>
        <pt x="739" y="670" on="1"/>
        <pt x="652" y="293" on="1"/>
        <pt x="620" y="152" on="0"/>
        <pt x="444" y="-13" on="0"/>
        <pt x="313" y="-13" on="1"/>
        <pt x="191" y="-13" on="0"/>
        <pt x="60" y="159" on="0"/>
        <pt x="91" y="293" on="1"/>
        <pt x="178" y="670" on="1"/>
        <pt x="257" y="670" on="1"/>
        <pt x="170" y="293" on="1"/>
        <pt x="146" y="189" on="0"/>
        <pt x="230" y="63" on="0"/>
        <pt x="322" y="63" on="1"/>
        <pt x="413" y="63" on="0"/>
        <pt x="549" y="189" on="0"/>
        <pt x="573" y="293" on="1"/>
        <pt x="660" y="670" on="1"/>
      </contour>
    </TTGlyph>
    <TTGlyph name="Uacute" xMin="91" yMin="-13" xMax="739" yMax="885">
      <contour>
        <pt x="515" y="745" on="1"/>
        <pt x="443" y="745" on="1"/>
        <pt x="555" y="885" on="1"/>
        <pt x="652" y="885" on="1"/>
      </contour>
      <contour>
        <pt x="739" y="670" on="1"/>
        <pt x="652" y="293" on="1"/>
        <pt x="620" y="152" on="0"/>
        <pt x="444" y="-13" on="0"/>
        <pt x="313" y="-13" on="1"/>
        <pt x="191" y="-13" on="0"/>
        <pt x="60" y="159" on="0"/>
        <pt x="91" y="293" on="1"/>
        <pt x="178" y="670" on="1"/>
        <pt x="257" y="670" on="1"/>
        <pt x="170" y="293" on="1"/>
        <pt x="146" y="189" on="0"/>
        <pt x="230" y="63" on="0"/>
        <pt x="322" y="63" on="1"/>
        <pt x="413" y="63" on="0"/>
        <pt x="549" y="189" on="0"/>
        <pt x="573" y="293" on="1"/>
        <pt x="660" y="670" on="1"/>
      </contour>
    </TTGlyph>
    <TTGlyph name="Ucircumflex" xMin="91" yMin="-13" xMax="739" yMax="879">
      <contour>
        <pt x="415" y="737" on="1"/>
        <pt x="333" y="737" on="1"/>
        <pt x="483" y="879" on="1"/>
        <pt x="555" y="879" on="1"/>
        <pt x="639" y="737" on="1"/>
        <pt x="566" y="737" on="1"/>
        <pt x="512" y="830" on="1"/>
      </contour>
      <contour>
        <pt x="739" y="670" on="1"/>
        <pt x="652" y="293" on="1"/>
        <pt x="620" y="152" on="0"/>
        <pt x="444" y="-13" on="0"/>
        <pt x="313" y="-13" on="1"/>
        <pt x="191" y="-13" on="0"/>
        <pt x="60" y="159" on="0"/>
        <pt x="91" y="293" on="1"/>
        <pt x="178" y="670" on="1"/>
        <pt x="257" y="670" on="1"/>
        <pt x="170" y="293" on="1"/>
        <pt x="146" y="189" on="0"/>
        <pt x="230" y="63" on="0"/>
        <pt x="322" y="63" on="1"/>
        <pt x="413" y="63" on="0"/>
        <pt x="549" y="189" on="0"/>
        <pt x="573" y="293" on="1"/>
        <pt x="660" y="670" on="1"/>
      </contour>
    </TTGlyph>
    <TTGlyph name="Udieresis" xMin="91" yMin="-13" xMax="739" yMax="857">
      <contour>
        <pt x="388" y="755" on="1"/>
        <pt x="366" y="755" on="0"/>
        <pt x="336" y="784" on="0"/>
        <pt x="336" y="806" on="1"/>
        <pt x="336" y="827" on="0"/>
        <pt x="366" y="857" on="0"/>
        <pt x="410" y="857" on="0"/>
        <pt x="441" y="827" on="0"/>
        <pt x="441" y="806" on="1"/>
        <pt x="441" y="784" on="0"/>
        <pt x="411" y="755" on="0"/>
      </contour>
      <contour>
        <pt x="586" y="755" on="1"/>
        <pt x="564" y="755" on="0"/>
        <pt x="534" y="784" on="0"/>
        <pt x="534" y="806" on="1"/>
        <pt x="534" y="827" on="0"/>
        <pt x="564" y="857" on="0"/>
        <pt x="608" y="857" on="0"/>
        <pt x="639" y="827" on="0"/>
        <pt x="639" y="806" on="1"/>
        <pt x="639" y="784" on="0"/>
        <pt x="609" y="755" on="0"/>
      </contour>
      <contour>
        <pt x="739" y="670" on="1"/>
        <pt x="652" y="293" on="1"/>
        <pt x="620" y="152" on="0"/>
        <pt x="444" y="-13" on="0"/>
        <pt x="313" y="-13" on="1"/>
        <pt x="191" y="-13" on="0"/>
        <pt x="60" y="159" on="0"/>
        <pt x="91" y="293" on="1"/>
        <pt x="178" y="670" on="1"/>
        <pt x="257" y="670" on="1"/>
        <pt x="170" y="293" on="1"/>
        <pt x="146" y="189" on="0"/>
        <pt x="230" y="63" on="0"/>
        <pt x="322" y="63" on="1"/>
        <pt x="413" y="63" on="0"/>
        <pt x="549" y="189" on="0"/>
        <pt x="573" y="293" on="1"/>
        <pt x="660" y="670" on="1"/>
      </contour>
    </TTGlyph>
    <TTGlyph name="Ugrave" xMin="91" yMin="-13" xMax="739" yMax="885">
      <contour>
        <pt x="438" y="745" on="1"/>
        <pt x="301" y="885" on="1"/>
        <pt x="397" y="885" on="1"/>
        <pt x="509" y="745" on="1"/>
      </contour>
      <contour>
        <pt x="739" y="670" on="1"/>
        <pt x="652" y="293" on="1"/>
        <pt x="620" y="152" on="0"/>
        <pt x="444" y="-13" on="0"/>
        <pt x="313" y="-13" on="1"/>
        <pt x="191" y="-13" on="0"/>
        <pt x="60" y="159" on="0"/>
        <pt x="91" y="293" on="1"/>
        <pt x="178" y="670" on="1"/>
        <pt x="257" y="670" on="1"/>
        <pt x="170" y="293" on="1"/>
        <pt x="146" y="189" on="0"/>
        <pt x="230" y="63" on="0"/>
        <pt x="322" y="63" on="1"/>
        <pt x="413" y="63" on="0"/>
        <pt x="549" y="189" on="0"/>
        <pt x="573" y="293" on="1"/>
        <pt x="660" y="670" on="1"/>
      </contour>
    </TTGlyph>
    <TTGlyph name="Uhungarumlaut" xMin="91" yMin="-13" xMax="739" yMax="885">
      <contour>
        <pt x="427" y="745" on="1"/>
        <pt x="358" y="745" on="1"/>
        <pt x="470" y="885" on="1"/>
        <pt x="565" y="885" on="1"/>
      </contour>
      <contour>
        <pt x="512" y="745" on="1"/>
        <pt x="623" y="885" on="1"/>
        <pt x="718" y="885" on="1"/>
        <pt x="581" y="745" on="1"/>
      </contour>
      <contour>
        <pt x="739" y="670" on="1"/>
        <pt x="652" y="293" on="1"/>
        <pt x="620" y="152" on="0"/>
        <pt x="444" y="-13" on="0"/>
        <pt x="313" y="-13" on="1"/>
        <pt x="191" y="-13" on="0"/>
        <pt x="60" y="159" on="0"/>
        <pt x="91" y="293" on="1"/>
        <pt x="178" y="670" on="1"/>
        <pt x="257" y="670" on="1"/>
        <pt x="170" y="293" on="1"/>
        <pt x="146" y="189" on="0"/>
        <pt x="230" y="63" on="0"/>
        <pt x="322" y="63" on="1"/>
        <pt x="413" y="63" on="0"/>
        <pt x="549" y="189" on="0"/>
        <pt x="573" y="293" on="1"/>
        <pt x="660" y="670" on="1"/>
      </contour>
    </TTGlyph>
    <TTGlyph name="Umacron" xMin="91" yMin="-13" xMax="739" yMax="824">
      <contour>
        <pt x="619" y="762" on="1"/>
        <pt x="335" y="762" on="1"/>
        <pt x="349" y="824" on="1"/>
        <pt x="633" y="824" on="1"/>
      </contour>
      <contour>
        <pt x="739" y="670" on="1"/>
        <pt x="652" y="293" on="1"/>
        <pt x="620" y="152" on="0"/>
        <pt x="444" y="-13" on="0"/>
        <pt x="313" y="-13" on="1"/>
        <pt x="191" y="-13" on="0"/>
        <pt x="60" y="159" on="0"/>
        <pt x="91" y="293" on="1"/>
        <pt x="178" y="670" on="1"/>
        <pt x="257" y="670" on="1"/>
        <pt x="170" y="293" on="1"/>
        <pt x="146" y="189" on="0"/>
        <pt x="230" y="63" on="0"/>
        <pt x="322" y="63" on="1"/>
        <pt x="413" y="63" on="0"/>
        <pt x="549" y="189" on="0"/>
        <pt x="573" y="293" on="1"/>
        <pt x="660" y="670" on="1"/>
      </contour>
    </TTGlyph>
    <TTGlyph name="Uogonek" xMin="91" yMin="-201" xMax="739" yMax="670">
      <contour>
        <pt x="739" y="670" on="1"/>
        <pt x="652" y="293" on="1"/>
        <pt x="615" y="133" on="0"/>
        <pt x="511" y="53" on="1"/>
        <pt x="396" y="-52" on="0"/>
        <pt x="382" y="-69" on="1"/>
        <pt x="363" y="-91" on="0"/>
        <pt x="363" y="-110" on="1"/>
        <pt x="363" y="-145" on="0"/>
        <pt x="403" y="-145" on="1"/>
        <pt x="416" y="-145" on="0"/>
        <pt x="451" y="-135" on="1"/>
        <pt x="443" y="-185" on="1"/>
        <pt x="407" y="-201" on="0"/>
        <pt x="380" y="-201" on="1"/>
        <pt x="345" y="-201" on="0"/>
        <pt x="301" y="-162" on="0"/>
        <pt x="301" y="-129" on="1"/>
        <pt x="301" y="-99" on="0"/>
        <pt x="344" y="-41" on="0"/>
        <pt x="398" y="-2" on="1"/>
        <pt x="356" y="-13" on="0"/>
        <pt x="313" y="-13" on="1"/>
        <pt x="191" y="-13" on="0"/>
        <pt x="60" y="159" on="0"/>
        <pt x="91" y="293" on="1"/>
        <pt x="178" y="670" on="1"/>
        <pt x="257" y="670" on="1"/>
        <pt x="170" y="293" on="1"/>
        <pt x="146" y="189" on="0"/>
        <pt x="230" y="63" on="0"/>
        <pt x="322" y="63" on="1"/>
        <pt x="413" y="63" on="0"/>
        <pt x="549" y="189" on="0"/>
        <pt x="573" y="293" on="1"/>
        <pt x="660" y="670" on="1"/>
      </contour>
    </TTGlyph>
    <TTGlyph name="Uring" xMin="91" yMin="-13" xMax="739" yMax="928">
      <contour>
        <pt x="482" y="727" on="1"/>
        <pt x="441" y="727" on="0"/>
        <pt x="387" y="782" on="0"/>
        <pt x="387" y="821" on="1"/>
        <pt x="387" y="865" on="0"/>
        <pt x="453" y="928" on="0"/>
        <pt x="499" y="928" on="1"/>
        <pt x="540" y="928" on="0"/>
        <pt x="594" y="874" on="0"/>
        <pt x="594" y="835" on="1"/>
        <pt x="594" y="791" on="0"/>
        <pt x="528" y="727" on="0"/>
      </contour>
      <contour>
        <pt x="495" y="882" on="1"/>
        <pt x="470" y="882" on="0"/>
        <pt x="436" y="848" on="0"/>
        <pt x="436" y="824" on="1"/>
        <pt x="436" y="803" on="0"/>
        <pt x="464" y="774" on="0"/>
        <pt x="486" y="774" on="1"/>
        <pt x="511" y="774" on="0"/>
        <pt x="547" y="809" on="0"/>
        <pt x="547" y="832" on="1"/>
        <pt x="547" y="853" on="0"/>
        <pt x="517" y="882" on="0"/>
      </contour>
      <contour>
        <pt x="739" y="670" on="1"/>
        <pt x="652" y="293" on="1"/>
        <pt x="620" y="152" on="0"/>
        <pt x="444" y="-13" on="0"/>
        <pt x="313" y="-13" on="1"/>
        <pt x="191" y="-13" on="0"/>
        <pt x="60" y="159" on="0"/>
        <pt x="91" y="293" on="1"/>
        <pt x="178" y="670" on="1"/>
        <pt x="257" y="670" on="1"/>
        <pt x="170" y="293" on="1"/>
        <pt x="146" y="189" on="0"/>
        <pt x="230" y="63" on="0"/>
        <pt x="322" y="63" on="1"/>
        <pt x="413" y="63" on="0"/>
        <pt x="549" y="189" on="0"/>
        <pt x="573" y="293" on="1"/>
        <pt x="660" y="670" on="1"/>
      </contour>
    </TTGlyph>
    <TTGlyph name="V" xMin="116" yMin="0" xMax="771" yMax="670">
      <contour>
        <pt x="771" y="670" on="1"/>
        <pt x="326" y="0" on="1"/>
        <pt x="251" y="0" on="1"/>
        <pt x="116" y="670" on="1"/>
        <pt x="196" y="670" on="1"/>
        <pt x="307" y="108" on="1"/>
        <pt x="679" y="670" on="1"/>
      </contour>
    </TTGlyph>
    <TTGlyph name="W" xMin="116" yMin="0" xMax="1034" yMax="670">
      <contour>
        <pt x="1034" y="670" on="1"/>
        <pt x="673" y="0" on="1"/>
        <pt x="589" y="0" on="1"/>
        <pt x="545" y="544" on="1"/>
        <pt x="250" y="0" on="1"/>
        <pt x="167" y="0" on="1"/>
        <pt x="116" y="670" on="1"/>
        <pt x="194" y="670" on="1"/>
        <pt x="234" y="121" on="1"/>
        <pt x="532" y="670" on="1"/>
        <pt x="610" y="670" on="1"/>
        <pt x="655" y="121" on="1"/>
        <pt x="949" y="670" on="1"/>
      </contour>
    </TTGlyph>
    <TTGlyph name="Wacute" xMin="116" yMin="0" xMax="1034" yMax="885">
      <contour>
        <pt x="634" y="745" on="1"/>
        <pt x="562" y="745" on="1"/>
        <pt x="674" y="885" on="1"/>
        <pt x="771" y="885" on="1"/>
      </contour>
      <contour>
        <pt x="1034" y="670" on="1"/>
        <pt x="673" y="0" on="1"/>
        <pt x="589" y="0" on="1"/>
        <pt x="545" y="544" on="1"/>
        <pt x="250" y="0" on="1"/>
        <pt x="167" y="0" on="1"/>
        <pt x="116" y="670" on="1"/>
        <pt x="194" y="670" on="1"/>
        <pt x="234" y="121" on="1"/>
        <pt x="532" y="670" on="1"/>
        <pt x="610" y="670" on="1"/>
        <pt x="655" y="121" on="1"/>
        <pt x="949" y="670" on="1"/>
      </contour>
    </TTGlyph>
    <TTGlyph name="Wcircumflex" xMin="116" yMin="0" xMax="1034" yMax="879">
      <contour>
        <pt x="534" y="737" on="1"/>
        <pt x="452" y="737" on="1"/>
        <pt x="602" y="879" on="1"/>
        <pt x="674" y="879" on="1"/>
        <pt x="758" y="737" on="1"/>
        <pt x="685" y="737" on="1"/>
        <pt x="631" y="830" on="1"/>
      </contour>
      <contour>
        <pt x="1034" y="670" on="1"/>
        <pt x="673" y="0" on="1"/>
        <pt x="589" y="0" on="1"/>
        <pt x="545" y="544" on="1"/>
        <pt x="250" y="0" on="1"/>
        <pt x="167" y="0" on="1"/>
        <pt x="116" y="670" on="1"/>
        <pt x="194" y="670" on="1"/>
        <pt x="234" y="121" on="1"/>
        <pt x="532" y="670" on="1"/>
        <pt x="610" y="670" on="1"/>
        <pt x="655" y="121" on="1"/>
        <pt x="949" y="670" on="1"/>
      </contour>
    </TTGlyph>
    <TTGlyph name="Wdieresis" xMin="116" yMin="0" xMax="1034" yMax="857">
      <contour>
        <pt x="507" y="755" on="1"/>
        <pt x="485" y="755" on="0"/>
        <pt x="455" y="784" on="0"/>
        <pt x="455" y="806" on="1"/>
        <pt x="455" y="827" on="0"/>
        <pt x="485" y="857" on="0"/>
        <pt x="529" y="857" on="0"/>
        <pt x="560" y="827" on="0"/>
        <pt x="560" y="806" on="1"/>
        <pt x="560" y="784" on="0"/>
        <pt x="530" y="755" on="0"/>
      </contour>
      <contour>
        <pt x="705" y="755" on="1"/>
        <pt x="683" y="755" on="0"/>
        <pt x="653" y="784" on="0"/>
        <pt x="653" y="806" on="1"/>
        <pt x="653" y="827" on="0"/>
        <pt x="683" y="857" on="0"/>
        <pt x="727" y="857" on="0"/>
        <pt x="758" y="827" on="0"/>
        <pt x="758" y="806" on="1"/>
        <pt x="758" y="784" on="0"/>
        <pt x="728" y="755" on="0"/>
      </contour>
      <contour>
        <pt x="1034" y="670" on="1"/>
        <pt x="673" y="0" on="1"/>
        <pt x="589" y="0" on="1"/>
        <pt x="545" y="544" on="1"/>
        <pt x="250" y="0" on="1"/>
        <pt x="167" y="0" on="1"/>
        <pt x="116" y="670" on="1"/>
        <pt x="194" y="670" on="1"/>
        <pt x="234" y="121" on="1"/>
        <pt x="532" y="670" on="1"/>
        <pt x="610" y="670" on="1"/>
        <pt x="655" y="121" on="1"/>
        <pt x="949" y="670" on="1"/>
      </contour>
    </TTGlyph>
    <TTGlyph name="Wgrave" xMin="116" yMin="0" xMax="1034" yMax="885">
      <contour>
        <pt x="557" y="745" on="1"/>
        <pt x="420" y="885" on="1"/>
        <pt x="516" y="885" on="1"/>
        <pt x="628" y="745" on="1"/>
      </contour>
      <contour>
        <pt x="1034" y="670" on="1"/>
        <pt x="673" y="0" on="1"/>
        <pt x="589" y="0" on="1"/>
        <pt x="545" y="544" on="1"/>
        <pt x="250" y="0" on="1"/>
        <pt x="167" y="0" on="1"/>
        <pt x="116" y="670" on="1"/>
        <pt x="194" y="670" on="1"/>
        <pt x="234" y="121" on="1"/>
        <pt x="532" y="670" on="1"/>
        <pt x="610" y="670" on="1"/>
        <pt x="655" y="121" on="1"/>
        <pt x="949" y="670" on="1"/>
      </contour>
    </TTGlyph>
    <TTGlyph name="X" xMin="-47" yMin="0" xMax="701" yMax="670">
      <contour>
        <pt x="379" y="335" on="1"/>
        <pt x="549" y="0" on="1"/>
        <pt x="458" y="0" on="1"/>
        <pt x="321" y="276" on="1"/>
        <pt x="57" y="0" on="1"/>
        <pt x="-47" y="0" on="1"/>
        <pt x="276" y="337" on="1"/>
        <pt x="112" y="670" on="1"/>
        <pt x="202" y="670" on="1"/>
        <pt x="337" y="396" on="1"/>
        <pt x="598" y="670" on="1"/>
        <pt x="701" y="670" on="1"/>
        <pt x="382" y="337" on="1"/>
      </contour>
    </TTGlyph>
    <TTGlyph name="Y" xMin="116" yMin="0" xMax="751" yMax="670">
      <contour>
        <pt x="370" y="234" on="1"/>
        <pt x="317" y="0" on="1"/>
        <pt x="238" y="0" on="1"/>
        <pt x="291" y="234" on="1"/>
        <pt x="116" y="670" on="1"/>
        <pt x="198" y="670" on="1"/>
        <pt x="344" y="313" on="1"/>
        <pt x="655" y="670" on="1"/>
        <pt x="751" y="670" on="1"/>
      </contour>
    </TTGlyph>
    <TTGlyph name="Yacute" xMin="116" yMin="0" xMax="751" yMax="885">
      <contour>
        <pt x="478" y="745" on="1"/>
        <pt x="406" y="745" on="1"/>
        <pt x="518" y="885" on="1"/>
        <pt x="615" y="885" on="1"/>
      </contour>
      <contour>
        <pt x="370" y="234" on="1"/>
        <pt x="317" y="0" on="1"/>
        <pt x="238" y="0" on="1"/>
        <pt x="291" y="234" on="1"/>
        <pt x="116" y="670" on="1"/>
        <pt x="198" y="670" on="1"/>
        <pt x="344" y="313" on="1"/>
        <pt x="655" y="670" on="1"/>
        <pt x="751" y="670" on="1"/>
      </contour>
    </TTGlyph>
    <TTGlyph name="Ycircumflex" xMin="116" yMin="0" xMax="751" yMax="879">
      <contour>
        <pt x="378" y="737" on="1"/>
        <pt x="296" y="737" on="1"/>
        <pt x="446" y="879" on="1"/>
        <pt x="518" y="879" on="1"/>
        <pt x="602" y="737" on="1"/>
        <pt x="529" y="737" on="1"/>
        <pt x="475" y="830" on="1"/>
      </contour>
      <contour>
        <pt x="370" y="234" on="1"/>
        <pt x="317" y="0" on="1"/>
        <pt x="238" y="0" on="1"/>
        <pt x="291" y="234" on="1"/>
        <pt x="116" y="670" on="1"/>
        <pt x="198" y="670" on="1"/>
        <pt x="344" y="313" on="1"/>
        <pt x="655" y="670" on="1"/>
        <pt x="751" y="670" on="1"/>
      </contour>
    </TTGlyph>
    <TTGlyph name="Ydieresis" xMin="116" yMin="0" xMax="751" yMax="857">
      <contour>
        <pt x="351" y="755" on="1"/>
        <pt x="329" y="755" on="0"/>
        <pt x="299" y="784" on="0"/>
        <pt x="299" y="806" on="1"/>
        <pt x="299" y="827" on="0"/>
        <pt x="329" y="857" on="0"/>
        <pt x="373" y="857" on="0"/>
        <pt x="404" y="827" on="0"/>
        <pt x="404" y="806" on="1"/>
        <pt x="404" y="784" on="0"/>
        <pt x="374" y="755" on="0"/>
      </contour>
      <contour>
        <pt x="549" y="755" on="1"/>
        <pt x="527" y="755" on="0"/>
        <pt x="497" y="784" on="0"/>
        <pt x="497" y="806" on="1"/>
        <pt x="497" y="827" on="0"/>
        <pt x="527" y="857" on="0"/>
        <pt x="571" y="857" on="0"/>
        <pt x="602" y="827" on="0"/>
        <pt x="602" y="806" on="1"/>
        <pt x="602" y="784" on="0"/>
        <pt x="572" y="755" on="0"/>
      </contour>
      <contour>
        <pt x="370" y="234" on="1"/>
        <pt x="317" y="0" on="1"/>
        <pt x="238" y="0" on="1"/>
        <pt x="291" y="234" on="1"/>
        <pt x="116" y="670" on="1"/>
        <pt x="198" y="670" on="1"/>
        <pt x="344" y="313" on="1"/>
        <pt x="655" y="670" on="1"/>
        <pt x="751" y="670" on="1"/>
      </contour>
    </TTGlyph>
    <TTGlyph name="Ygrave" xMin="116" yMin="0" xMax="751" yMax="885">
      <contour>
        <pt x="401" y="745" on="1"/>
        <pt x="264" y="885" on="1"/>
        <pt x="360" y="885" on="1"/>
        <pt x="472" y="745" on="1"/>
      </contour>
      <contour>
        <pt x="370" y="234" on="1"/>
        <pt x="317" y="0" on="1"/>
        <pt x="238" y="0" on="1"/>
        <pt x="291" y="234" on="1"/>
        <pt x="116" y="670" on="1"/>
        <pt x="198" y="670" on="1"/>
        <pt x="344" y="313" on="1"/>
        <pt x="655" y="670" on="1"/>
        <pt x="751" y="670" on="1"/>
      </contour>
    </TTGlyph>
    <TTGlyph name="Z" xMin="2" yMin="0" xMax="669" yMax="670">
      <contour>
        <pt x="656" y="613" on="1"/>
        <pt x="131" y="68" on="1"/>
        <pt x="533" y="68" on="1"/>
        <pt x="518" y="0" on="1"/>
        <pt x="2" y="0" on="1"/>
        <pt x="14" y="50" on="1"/>
        <pt x="549" y="602" on="1"/>
        <pt x="153" y="602" on="1"/>
        <pt x="168" y="670" on="1"/>
        <pt x="669" y="670" on="1"/>
      </contour>
    </TTGlyph>
    <TTGlyph name="Zacute" xMin="2" yMin="0" xMax="669" yMax="885">
      <contour>
        <pt x="477" y="745" on="1"/>
        <pt x="405" y="745" on="1"/>
        <pt x="517" y="885" on="1"/>
        <pt x="614" y="885" on="1"/>
      </contour>
      <contour>
        <pt x="656" y="613" on="1"/>
        <pt x="131" y="68" on="1"/>
        <pt x="533" y="68" on="1"/>
        <pt x="518" y="0" on="1"/>
        <pt x="2" y="0" on="1"/>
        <pt x="14" y="50" on="1"/>
        <pt x="549" y="602" on="1"/>
        <pt x="153" y="602" on="1"/>
        <pt x="168" y="670" on="1"/>
        <pt x="669" y="670" on="1"/>
      </contour>
    </TTGlyph>
    <TTGlyph name="Zcaron" xMin="2" yMin="0" xMax="669" yMax="880">
      <contour>
        <pt x="398" y="738" on="1"/>
        <pt x="314" y="880" on="1"/>
        <pt x="388" y="880" on="1"/>
        <pt x="441" y="788" on="1"/>
        <pt x="538" y="880" on="1"/>
        <pt x="621" y="880" on="1"/>
        <pt x="471" y="738" on="1"/>
      </contour>
      <contour>
        <pt x="656" y="613" on="1"/>
        <pt x="131" y="68" on="1"/>
        <pt x="533" y="68" on="1"/>
        <pt x="518" y="0" on="1"/>
        <pt x="2" y="0" on="1"/>
        <pt x="14" y="50" on="1"/>
        <pt x="549" y="602" on="1"/>
        <pt x="153" y="602" on="1"/>
        <pt x="168" y="670" on="1"/>
        <pt x="669" y="670" on="1"/>
      </contour>
    </TTGlyph>
    <TTGlyph name="Zdotaccent" xMin="2" yMin="0" xMax="669" yMax="862">
      <contour>
        <pt x="471" y="763" on="0"/>
        <pt x="427" y="763" on="0"/>
        <pt x="398" y="791" on="0"/>
        <pt x="398" y="813" on="1"/>
        <pt x="398" y="833" on="0"/>
        <pt x="427" y="862" on="0"/>
        <pt x="449" y="862" on="1"/>
        <pt x="470" y="862" on="0"/>
        <pt x="500" y="833" on="0"/>
        <pt x="500" y="813" on="1"/>
        <pt x="500" y="791" on="0"/>
      </contour>
      <contour>
        <pt x="656" y="613" on="1"/>
        <pt x="131" y="68" on="1"/>
        <pt x="533" y="68" on="1"/>
        <pt x="518" y="0" on="1"/>
        <pt x="2" y="0" on="1"/>
        <pt x="14" y="50" on="1"/>
        <pt x="549" y="602" on="1"/>
        <pt x="153" y="602" on="1"/>
        <pt x="168" y="670" on="1"/>
        <pt x="669" y="670" on="1"/>
      </contour>
    </TTGlyph>
    <TTGlyph name="a" xMin="43" yMin="-13" xMax="620" yMax="505">
      <contour>
        <pt x="620" y="493" on="1"/>
        <pt x="506" y="0" on="1"/>
        <pt x="429" y="0" on="1"/>
        <pt x="446" y="72" on="1"/>
        <pt x="366" y="-13" on="0"/>
        <pt x="248" y="-13" on="1"/>
        <pt x="147" y="-13" on="0"/>
        <pt x="25" y="134" on="0"/>
        <pt x="43" y="248" on="1"/>
        <pt x="61" y="363" on="0"/>
        <pt x="224" y="505" on="0"/>
        <pt x="330" y="505" on="1"/>
        <pt x="400" y="505" on="0"/>
        <pt x="498" y="443" on="0"/>
        <pt x="519" y="387" on="1"/>
        <pt x="543" y="493" on="1"/>
      </contour>
      <contour>
        <pt x="270" y="55" on="1"/>
        <pt x="343" y="55" on="0"/>
        <pt x="471" y="163" on="0"/>
        <pt x="485" y="248" on="1"/>
        <pt x="499" y="332" on="0"/>
        <pt x="405" y="438" on="0"/>
        <pt x="332" y="438" on="1"/>
        <pt x="252" y="438" on="0"/>
        <pt x="131" y="333" on="0"/>
        <pt x="118" y="248" on="1"/>
        <pt x="104" y="161" on="0"/>
        <pt x="192" y="55" on="0"/>
      </contour>
    </TTGlyph>
    <TTGlyph name="a.ss01" xMin="17" yMin="-13" xMax="501" yMax="505">
      <contour>
        <pt x="324" y="505" on="1"/>
        <pt x="423" y="505" on="0"/>
        <pt x="523" y="399" on="0"/>
        <pt x="501" y="306" on="1"/>
        <pt x="431" y="0" on="1"/>
        <pt x="357" y="0" on="1"/>
        <pt x="373" y="68" on="1"/>
        <pt x="292" y="-13" on="0"/>
        <pt x="178" y="-13" on="1"/>
        <pt x="104" y="-13" on="0"/>
        <pt x="17" y="57" on="0"/>
        <pt x="17" y="117" on="1"/>
        <pt x="17" y="190" on="0"/>
        <pt x="143" y="291" on="0"/>
        <pt x="250" y="291" on="1"/>
        <pt x="424" y="291" on="1"/>
        <pt x="430" y="315" on="1"/>
        <pt x="443" y="372" on="0"/>
        <pt x="380" y="440" on="0"/>
        <pt x="318" y="440" on="1"/>
        <pt x="263" y="440" on="0"/>
        <pt x="172" y="385" on="0"/>
        <pt x="153" y="339" on="1"/>
        <pt x="84" y="358" on="1"/>
        <pt x="111" y="424" on="0"/>
        <pt x="244" y="505" on="0"/>
      </contour>
      <contour>
        <pt x="404" y="201" on="1"/>
        <pt x="411" y="231" on="1"/>
        <pt x="234" y="231" on="1"/>
        <pt x="170" y="231" on="0"/>
        <pt x="93" y="171" on="0"/>
        <pt x="93" y="129" on="1"/>
        <pt x="93" y="92" on="0"/>
        <pt x="153" y="50" on="0"/>
        <pt x="202" y="50" on="1"/>
        <pt x="275" y="50" on="0"/>
        <pt x="389" y="137" on="0"/>
      </contour>
    </TTGlyph>
    <TTGlyph name="aacute" xMin="43" yMin="-13" xMax="620" yMax="707">
      <contour>
        <pt x="430" y="567" on="1"/>
        <pt x="358" y="567" on="1"/>
        <pt x="470" y="707" on="1"/>
        <pt x="567" y="707" on="1"/>
      </contour>
      <contour>
        <pt x="620" y="493" on="1"/>
        <pt x="506" y="0" on="1"/>
        <pt x="429" y="0" on="1"/>
        <pt x="446" y="72" on="1"/>
        <pt x="366" y="-13" on="0"/>
        <pt x="248" y="-13" on="1"/>
        <pt x="147" y="-13" on="0"/>
        <pt x="25" y="134" on="0"/>
        <pt x="43" y="248" on="1"/>
        <pt x="61" y="363" on="0"/>
        <pt x="224" y="505" on="0"/>
        <pt x="330" y="505" on="1"/>
        <pt x="400" y="505" on="0"/>
        <pt x="498" y="443" on="0"/>
        <pt x="519" y="387" on="1"/>
        <pt x="543" y="493" on="1"/>
      </contour>
      <contour>
        <pt x="270" y="55" on="1"/>
        <pt x="343" y="55" on="0"/>
        <pt x="471" y="163" on="0"/>
        <pt x="485" y="248" on="1"/>
        <pt x="499" y="332" on="0"/>
        <pt x="405" y="438" on="0"/>
        <pt x="332" y="438" on="1"/>
        <pt x="252" y="438" on="0"/>
        <pt x="131" y="333" on="0"/>
        <pt x="118" y="248" on="1"/>
        <pt x="104" y="161" on="0"/>
        <pt x="192" y="55" on="0"/>
      </contour>
    </TTGlyph>
    <TTGlyph name="aacute.ss01" xMin="17" yMin="-13" xMax="541" yMax="707">
      <contour>
        <pt x="404" y="567" on="1"/>
        <pt x="332" y="567" on="1"/>
        <pt x="444" y="707" on="1"/>
        <pt x="541" y="707" on="1"/>
      </contour>
      <contour>
        <pt x="324" y="505" on="1"/>
        <pt x="423" y="505" on="0"/>
        <pt x="523" y="399" on="0"/>
        <pt x="501" y="306" on="1"/>
        <pt x="431" y="0" on="1"/>
        <pt x="357" y="0" on="1"/>
        <pt x="373" y="68" on="1"/>
        <pt x="292" y="-13" on="0"/>
        <pt x="178" y="-13" on="1"/>
        <pt x="104" y="-13" on="0"/>
        <pt x="17" y="57" on="0"/>
        <pt x="17" y="117" on="1"/>
        <pt x="17" y="190" on="0"/>
        <pt x="143" y="291" on="0"/>
        <pt x="250" y="291" on="1"/>
        <pt x="424" y="291" on="1"/>
        <pt x="430" y="315" on="1"/>
        <pt x="443" y="372" on="0"/>
        <pt x="380" y="440" on="0"/>
        <pt x="318" y="440" on="1"/>
        <pt x="263" y="440" on="0"/>
        <pt x="172" y="385" on="0"/>
        <pt x="153" y="339" on="1"/>
        <pt x="84" y="358" on="1"/>
        <pt x="111" y="424" on="0"/>
        <pt x="244" y="505" on="0"/>
      </contour>
      <contour>
        <pt x="404" y="201" on="1"/>
        <pt x="411" y="231" on="1"/>
        <pt x="234" y="231" on="1"/>
        <pt x="170" y="231" on="0"/>
        <pt x="93" y="171" on="0"/>
        <pt x="93" y="129" on="1"/>
        <pt x="93" y="92" on="0"/>
        <pt x="153" y="50" on="0"/>
        <pt x="202" y="50" on="1"/>
        <pt x="275" y="50" on="0"/>
        <pt x="389" y="137" on="0"/>
      </contour>
    </TTGlyph>
    <TTGlyph name="abreve" xMin="43" yMin="-13" xMax="620" yMax="689">
      <contour>
        <pt x="454" y="554" on="0"/>
        <pt x="324" y="554" on="0"/>
        <pt x="258" y="628" on="0"/>
        <pt x="271" y="689" on="1"/>
        <pt x="332" y="689" on="1"/>
        <pt x="325" y="653" on="0"/>
        <pt x="362" y="609" on="0"/>
        <pt x="397" y="609" on="1"/>
        <pt x="431" y="609" on="0"/>
        <pt x="486" y="653" on="0"/>
        <pt x="493" y="689" on="1"/>
        <pt x="561" y="689" on="1"/>
        <pt x="548" y="628" on="0"/>
      </contour>
      <contour>
        <pt x="620" y="493" on="1"/>
        <pt x="506" y="0" on="1"/>
        <pt x="429" y="0" on="1"/>
        <pt x="446" y="72" on="1"/>
        <pt x="366" y="-13" on="0"/>
        <pt x="248" y="-13" on="1"/>
        <pt x="147" y="-13" on="0"/>
        <pt x="25" y="134" on="0"/>
        <pt x="43" y="248" on="1"/>
        <pt x="61" y="363" on="0"/>
        <pt x="224" y="505" on="0"/>
        <pt x="330" y="505" on="1"/>
        <pt x="400" y="505" on="0"/>
        <pt x="498" y="443" on="0"/>
        <pt x="519" y="387" on="1"/>
        <pt x="543" y="493" on="1"/>
      </contour>
      <contour>
        <pt x="270" y="55" on="1"/>
        <pt x="343" y="55" on="0"/>
        <pt x="471" y="163" on="0"/>
        <pt x="485" y="248" on="1"/>
        <pt x="499" y="332" on="0"/>
        <pt x="405" y="438" on="0"/>
        <pt x="332" y="438" on="1"/>
        <pt x="252" y="438" on="0"/>
        <pt x="131" y="333" on="0"/>
        <pt x="118" y="248" on="1"/>
        <pt x="104" y="161" on="0"/>
        <pt x="192" y="55" on="0"/>
      </contour>
    </TTGlyph>
    <TTGlyph name="abreve.ss01" xMin="17" yMin="-13" xMax="535" yMax="689">
      <contour>
        <pt x="428" y="554" on="0"/>
        <pt x="298" y="554" on="0"/>
        <pt x="232" y="628" on="0"/>
        <pt x="245" y="689" on="1"/>
        <pt x="306" y="689" on="1"/>
        <pt x="299" y="653" on="0"/>
        <pt x="336" y="609" on="0"/>
        <pt x="371" y="609" on="1"/>
        <pt x="405" y="609" on="0"/>
        <pt x="460" y="653" on="0"/>
        <pt x="467" y="689" on="1"/>
        <pt x="535" y="689" on="1"/>
        <pt x="522" y="628" on="0"/>
      </contour>
      <contour>
        <pt x="324" y="505" on="1"/>
        <pt x="423" y="505" on="0"/>
        <pt x="523" y="399" on="0"/>
        <pt x="501" y="306" on="1"/>
        <pt x="431" y="0" on="1"/>
        <pt x="357" y="0" on="1"/>
        <pt x="373" y="68" on="1"/>
        <pt x="292" y="-13" on="0"/>
        <pt x="178" y="-13" on="1"/>
        <pt x="104" y="-13" on="0"/>
        <pt x="17" y="57" on="0"/>
        <pt x="17" y="117" on="1"/>
        <pt x="17" y="190" on="0"/>
        <pt x="143" y="291" on="0"/>
        <pt x="250" y="291" on="1"/>
        <pt x="424" y="291" on="1"/>
        <pt x="430" y="315" on="1"/>
        <pt x="443" y="372" on="0"/>
        <pt x="380" y="440" on="0"/>
        <pt x="318" y="440" on="1"/>
        <pt x="263" y="440" on="0"/>
        <pt x="172" y="385" on="0"/>
        <pt x="153" y="339" on="1"/>
        <pt x="84" y="358" on="1"/>
        <pt x="111" y="424" on="0"/>
        <pt x="244" y="505" on="0"/>
      </contour>
      <contour>
        <pt x="404" y="201" on="1"/>
        <pt x="411" y="231" on="1"/>
        <pt x="234" y="231" on="1"/>
        <pt x="170" y="231" on="0"/>
        <pt x="93" y="171" on="0"/>
        <pt x="93" y="129" on="1"/>
        <pt x="93" y="92" on="0"/>
        <pt x="153" y="50" on="0"/>
        <pt x="202" y="50" on="1"/>
        <pt x="275" y="50" on="0"/>
        <pt x="389" y="137" on="0"/>
      </contour>
    </TTGlyph>
    <TTGlyph name="acircumflex" xMin="43" yMin="-13" xMax="620" yMax="701">
      <contour>
        <pt x="330" y="559" on="1"/>
        <pt x="248" y="559" on="1"/>
        <pt x="398" y="701" on="1"/>
        <pt x="470" y="701" on="1"/>
        <pt x="554" y="559" on="1"/>
        <pt x="481" y="559" on="1"/>
        <pt x="427" y="652" on="1"/>
      </contour>
      <contour>
        <pt x="620" y="493" on="1"/>
        <pt x="506" y="0" on="1"/>
        <pt x="429" y="0" on="1"/>
        <pt x="446" y="72" on="1"/>
        <pt x="366" y="-13" on="0"/>
        <pt x="248" y="-13" on="1"/>
        <pt x="147" y="-13" on="0"/>
        <pt x="25" y="134" on="0"/>
        <pt x="43" y="248" on="1"/>
        <pt x="61" y="363" on="0"/>
        <pt x="224" y="505" on="0"/>
        <pt x="330" y="505" on="1"/>
        <pt x="400" y="505" on="0"/>
        <pt x="498" y="443" on="0"/>
        <pt x="519" y="387" on="1"/>
        <pt x="543" y="493" on="1"/>
      </contour>
      <contour>
        <pt x="270" y="55" on="1"/>
        <pt x="343" y="55" on="0"/>
        <pt x="471" y="163" on="0"/>
        <pt x="485" y="248" on="1"/>
        <pt x="499" y="332" on="0"/>
        <pt x="405" y="438" on="0"/>
        <pt x="332" y="438" on="1"/>
        <pt x="252" y="438" on="0"/>
        <pt x="131" y="333" on="0"/>
        <pt x="118" y="248" on="1"/>
        <pt x="104" y="161" on="0"/>
        <pt x="192" y="55" on="0"/>
      </contour>
    </TTGlyph>
    <TTGlyph name="acircumflex.ss01" xMin="17" yMin="-13" xMax="528" yMax="701">
      <contour>
        <pt x="304" y="559" on="1"/>
        <pt x="222" y="559" on="1"/>
        <pt x="372" y="701" on="1"/>
        <pt x="444" y="701" on="1"/>
        <pt x="528" y="559" on="1"/>
        <pt x="455" y="559" on="1"/>
        <pt x="401" y="652" on="1"/>
      </contour>
      <contour>
        <pt x="324" y="505" on="1"/>
        <pt x="423" y="505" on="0"/>
        <pt x="523" y="399" on="0"/>
        <pt x="501" y="306" on="1"/>
        <pt x="431" y="0" on="1"/>
        <pt x="357" y="0" on="1"/>
        <pt x="373" y="68" on="1"/>
        <pt x="292" y="-13" on="0"/>
        <pt x="178" y="-13" on="1"/>
        <pt x="104" y="-13" on="0"/>
        <pt x="17" y="57" on="0"/>
        <pt x="17" y="117" on="1"/>
        <pt x="17" y="190" on="0"/>
        <pt x="143" y="291" on="0"/>
        <pt x="250" y="291" on="1"/>
        <pt x="424" y="291" on="1"/>
        <pt x="430" y="315" on="1"/>
        <pt x="443" y="372" on="0"/>
        <pt x="380" y="440" on="0"/>
        <pt x="318" y="440" on="1"/>
        <pt x="263" y="440" on="0"/>
        <pt x="172" y="385" on="0"/>
        <pt x="153" y="339" on="1"/>
        <pt x="84" y="358" on="1"/>
        <pt x="111" y="424" on="0"/>
        <pt x="244" y="505" on="0"/>
      </contour>
      <contour>
        <pt x="404" y="201" on="1"/>
        <pt x="411" y="231" on="1"/>
        <pt x="234" y="231" on="1"/>
        <pt x="170" y="231" on="0"/>
        <pt x="93" y="171" on="0"/>
        <pt x="93" y="129" on="1"/>
        <pt x="93" y="92" on="0"/>
        <pt x="153" y="50" on="0"/>
        <pt x="202" y="50" on="1"/>
        <pt x="275" y="50" on="0"/>
        <pt x="389" y="137" on="0"/>
      </contour>
    </TTGlyph>
    <TTGlyph name="acute" xMin="312" yMin="567" xMax="521" yMax="707">
      <contour>
        <pt x="384" y="567" on="1"/>
        <pt x="312" y="567" on="1"/>
        <pt x="424" y="707" on="1"/>
        <pt x="521" y="707" on="1"/>
      </contour>
    </TTGlyph>
    <TTGlyph name="adieresis" xMin="43" yMin="-13" xMax="620" yMax="679">
      <contour>
        <pt x="303" y="577" on="1"/>
        <pt x="281" y="577" on="0"/>
        <pt x="251" y="606" on="0"/>
        <pt x="251" y="628" on="1"/>
        <pt x="251" y="649" on="0"/>
        <pt x="281" y="679" on="0"/>
        <pt x="325" y="679" on="0"/>
        <pt x="356" y="649" on="0"/>
        <pt x="356" y="628" on="1"/>
        <pt x="356" y="606" on="0"/>
        <pt x="326" y="577" on="0"/>
      </contour>
      <contour>
        <pt x="501" y="577" on="1"/>
        <pt x="479" y="577" on="0"/>
        <pt x="449" y="606" on="0"/>
        <pt x="449" y="628" on="1"/>
        <pt x="449" y="649" on="0"/>
        <pt x="479" y="679" on="0"/>
        <pt x="523" y="679" on="0"/>
        <pt x="554" y="649" on="0"/>
        <pt x="554" y="628" on="1"/>
        <pt x="554" y="606" on="0"/>
        <pt x="524" y="577" on="0"/>
      </contour>
      <contour>
        <pt x="620" y="493" on="1"/>
        <pt x="506" y="0" on="1"/>
        <pt x="429" y="0" on="1"/>
        <pt x="446" y="72" on="1"/>
        <pt x="366" y="-13" on="0"/>
        <pt x="248" y="-13" on="1"/>
        <pt x="147" y="-13" on="0"/>
        <pt x="25" y="134" on="0"/>
        <pt x="43" y="248" on="1"/>
        <pt x="61" y="363" on="0"/>
        <pt x="224" y="505" on="0"/>
        <pt x="330" y="505" on="1"/>
        <pt x="400" y="505" on="0"/>
        <pt x="498" y="443" on="0"/>
        <pt x="519" y="387" on="1"/>
        <pt x="543" y="493" on="1"/>
      </contour>
      <contour>
        <pt x="270" y="55" on="1"/>
        <pt x="343" y="55" on="0"/>
        <pt x="471" y="163" on="0"/>
        <pt x="485" y="248" on="1"/>
        <pt x="499" y="332" on="0"/>
        <pt x="405" y="438" on="0"/>
        <pt x="332" y="438" on="1"/>
        <pt x="252" y="438" on="0"/>
        <pt x="131" y="333" on="0"/>
        <pt x="118" y="248" on="1"/>
        <pt x="104" y="161" on="0"/>
        <pt x="192" y="55" on="0"/>
      </contour>
    </TTGlyph>
    <TTGlyph name="adieresis.ss01" xMin="17" yMin="-13" xMax="528" yMax="679">
      <contour>
        <pt x="277" y="577" on="1"/>
        <pt x="255" y="577" on="0"/>
        <pt x="225" y="606" on="0"/>
        <pt x="225" y="628" on="1"/>
        <pt x="225" y="649" on="0"/>
        <pt x="255" y="679" on="0"/>
        <pt x="299" y="679" on="0"/>
        <pt x="330" y="649" on="0"/>
        <pt x="330" y="628" on="1"/>
        <pt x="330" y="606" on="0"/>
        <pt x="300" y="577" on="0"/>
      </contour>
      <contour>
        <pt x="453" y="679" on="0"/>
        <pt x="497" y="679" on="0"/>
        <pt x="528" y="649" on="0"/>
        <pt x="528" y="628" on="1"/>
        <pt x="528" y="606" on="0"/>
        <pt x="498" y="577" on="0"/>
        <pt x="475" y="577" on="1"/>
        <pt x="453" y="577" on="0"/>
        <pt x="423" y="606" on="0"/>
        <pt x="423" y="628" on="1"/>
        <pt x="423" y="649" on="0"/>
      </contour>
      <contour>
        <pt x="324" y="505" on="1"/>
        <pt x="423" y="505" on="0"/>
        <pt x="523" y="399" on="0"/>
        <pt x="501" y="306" on="1"/>
        <pt x="431" y="0" on="1"/>
        <pt x="357" y="0" on="1"/>
        <pt x="373" y="68" on="1"/>
        <pt x="292" y="-13" on="0"/>
        <pt x="178" y="-13" on="1"/>
        <pt x="104" y="-13" on="0"/>
        <pt x="17" y="57" on="0"/>
        <pt x="17" y="117" on="1"/>
        <pt x="17" y="190" on="0"/>
        <pt x="143" y="291" on="0"/>
        <pt x="250" y="291" on="1"/>
        <pt x="424" y="291" on="1"/>
        <pt x="430" y="315" on="1"/>
        <pt x="443" y="372" on="0"/>
        <pt x="380" y="440" on="0"/>
        <pt x="318" y="440" on="1"/>
        <pt x="263" y="440" on="0"/>
        <pt x="172" y="385" on="0"/>
        <pt x="153" y="339" on="1"/>
        <pt x="84" y="358" on="1"/>
        <pt x="111" y="424" on="0"/>
        <pt x="244" y="505" on="0"/>
      </contour>
      <contour>
        <pt x="404" y="201" on="1"/>
        <pt x="411" y="231" on="1"/>
        <pt x="234" y="231" on="1"/>
        <pt x="170" y="231" on="0"/>
        <pt x="93" y="171" on="0"/>
        <pt x="93" y="129" on="1"/>
        <pt x="93" y="92" on="0"/>
        <pt x="153" y="50" on="0"/>
        <pt x="202" y="50" on="1"/>
        <pt x="275" y="50" on="0"/>
        <pt x="389" y="137" on="0"/>
      </contour>
    </TTGlyph>
    <TTGlyph name="ae" xMin="20" yMin="-13" xMax="882" yMax="505">
      <contour>
        <pt x="687" y="505" on="1"/>
        <pt x="788" y="505" on="0"/>
        <pt x="898" y="361" on="0"/>
        <pt x="882" y="249" on="1"/>
        <pt x="878" y="222" on="1"/>
        <pt x="473" y="222" on="1"/>
        <pt x="468" y="144" on="0"/>
        <pt x="546" y="54" on="0"/>
        <pt x="618" y="54" on="1"/>
        <pt x="663" y="54" on="0"/>
        <pt x="761" y="108" on="0"/>
        <pt x="789" y="160" on="1"/>
        <pt x="855" y="144" on="1"/>
        <pt x="825" y="75" on="0"/>
        <pt x="685" y="-13" on="0"/>
        <pt x="608" y="-13" on="1"/>
        <pt x="470" y="-13" on="0"/>
        <pt x="425" y="107" on="1"/>
        <pt x="388" y="53" on="0"/>
        <pt x="262" y="-13" on="0"/>
        <pt x="190" y="-13" on="1"/>
        <pt x="109" y="-13" on="0"/>
        <pt x="20" y="60" on="0"/>
        <pt x="20" y="119" on="1"/>
        <pt x="20" y="191" on="0"/>
        <pt x="133" y="279" on="0"/>
        <pt x="227" y="279" on="1"/>
        <pt x="411" y="279" on="1"/>
        <pt x="417" y="320" on="1"/>
        <pt x="426" y="374" on="0"/>
        <pt x="366" y="440" on="0"/>
        <pt x="307" y="440" on="1"/>
        <pt x="251" y="440" on="0"/>
        <pt x="166" y="385" on="0"/>
        <pt x="152" y="339" on="1"/>
        <pt x="84" y="354" on="1"/>
        <pt x="103" y="421" on="0"/>
        <pt x="231" y="505" on="0"/>
        <pt x="317" y="505" on="1"/>
        <pt x="379" y="505" on="0"/>
        <pt x="464" y="455" on="0"/>
        <pt x="479" y="409" on="1"/>
        <pt x="564" y="505" on="0"/>
      </contour>
      <contour>
        <pt x="481" y="279" on="1"/>
        <pt x="809" y="279" on="1"/>
        <pt x="813" y="354" on="0"/>
        <pt x="743" y="440" on="0"/>
        <pt x="680" y="440" on="1"/>
        <pt x="611" y="440" on="0"/>
        <pt x="501" y="354" on="0"/>
      </contour>
      <contour>
        <pt x="402" y="222" on="1"/>
        <pt x="224" y="222" on="1"/>
        <pt x="163" y="222" on="0"/>
        <pt x="92" y="171" on="0"/>
        <pt x="92" y="128" on="1"/>
        <pt x="92" y="92" on="0"/>
        <pt x="148" y="50" on="0"/>
        <pt x="200" y="50" on="1"/>
        <pt x="271" y="50" on="0"/>
        <pt x="389" y="142" on="0"/>
        <pt x="401" y="212" on="1"/>
      </contour>
    </TTGlyph>
    <TTGlyph name="aeacute" xMin="20" yMin="-13" xMax="882" yMax="707">
      <contour>
        <pt x="580" y="567" on="1"/>
        <pt x="508" y="567" on="1"/>
        <pt x="620" y="707" on="1"/>
        <pt x="717" y="707" on="1"/>
      </contour>
      <contour>
        <pt x="687" y="505" on="1"/>
        <pt x="788" y="505" on="0"/>
        <pt x="898" y="361" on="0"/>
        <pt x="882" y="249" on="1"/>
        <pt x="878" y="222" on="1"/>
        <pt x="473" y="222" on="1"/>
        <pt x="468" y="144" on="0"/>
        <pt x="546" y="54" on="0"/>
        <pt x="618" y="54" on="1"/>
        <pt x="663" y="54" on="0"/>
        <pt x="761" y="108" on="0"/>
        <pt x="789" y="160" on="1"/>
        <pt x="855" y="144" on="1"/>
        <pt x="825" y="75" on="0"/>
        <pt x="685" y="-13" on="0"/>
        <pt x="608" y="-13" on="1"/>
        <pt x="470" y="-13" on="0"/>
        <pt x="425" y="107" on="1"/>
        <pt x="388" y="53" on="0"/>
        <pt x="262" y="-13" on="0"/>
        <pt x="190" y="-13" on="1"/>
        <pt x="109" y="-13" on="0"/>
        <pt x="20" y="60" on="0"/>
        <pt x="20" y="119" on="1"/>
        <pt x="20" y="191" on="0"/>
        <pt x="133" y="279" on="0"/>
        <pt x="227" y="279" on="1"/>
        <pt x="411" y="279" on="1"/>
        <pt x="417" y="320" on="1"/>
        <pt x="426" y="374" on="0"/>
        <pt x="366" y="440" on="0"/>
        <pt x="307" y="440" on="1"/>
        <pt x="251" y="440" on="0"/>
        <pt x="166" y="385" on="0"/>
        <pt x="152" y="339" on="1"/>
        <pt x="84" y="354" on="1"/>
        <pt x="103" y="421" on="0"/>
        <pt x="231" y="505" on="0"/>
        <pt x="317" y="505" on="1"/>
        <pt x="379" y="505" on="0"/>
        <pt x="464" y="455" on="0"/>
        <pt x="479" y="409" on="1"/>
        <pt x="564" y="505" on="0"/>
      </contour>
      <contour>
        <pt x="481" y="279" on="1"/>
        <pt x="809" y="279" on="1"/>
        <pt x="813" y="354" on="0"/>
        <pt x="743" y="440" on="0"/>
        <pt x="680" y="440" on="1"/>
        <pt x="611" y="440" on="0"/>
        <pt x="501" y="354" on="0"/>
      </contour>
      <contour>
        <pt x="402" y="222" on="1"/>
        <pt x="224" y="222" on="1"/>
        <pt x="163" y="222" on="0"/>
        <pt x="92" y="171" on="0"/>
        <pt x="92" y="128" on="1"/>
        <pt x="92" y="92" on="0"/>
        <pt x="148" y="50" on="0"/>
        <pt x="200" y="50" on="1"/>
        <pt x="271" y="50" on="0"/>
        <pt x="389" y="142" on="0"/>
        <pt x="401" y="212" on="1"/>
      </contour>
    </TTGlyph>
    <TTGlyph name="agrave" xMin="43" yMin="-13" xMax="620" yMax="707">
      <contour>
        <pt x="353" y="567" on="1"/>
        <pt x="216" y="707" on="1"/>
        <pt x="312" y="707" on="1"/>
        <pt x="424" y="567" on="1"/>
      </contour>
      <contour>
        <pt x="620" y="493" on="1"/>
        <pt x="506" y="0" on="1"/>
        <pt x="429" y="0" on="1"/>
        <pt x="446" y="72" on="1"/>
        <pt x="366" y="-13" on="0"/>
        <pt x="248" y="-13" on="1"/>
        <pt x="147" y="-13" on="0"/>
        <pt x="25" y="134" on="0"/>
        <pt x="43" y="248" on="1"/>
        <pt x="61" y="363" on="0"/>
        <pt x="224" y="505" on="0"/>
        <pt x="330" y="505" on="1"/>
        <pt x="400" y="505" on="0"/>
        <pt x="498" y="443" on="0"/>
        <pt x="519" y="387" on="1"/>
        <pt x="543" y="493" on="1"/>
      </contour>
      <contour>
        <pt x="270" y="55" on="1"/>
        <pt x="343" y="55" on="0"/>
        <pt x="471" y="163" on="0"/>
        <pt x="485" y="248" on="1"/>
        <pt x="499" y="332" on="0"/>
        <pt x="405" y="438" on="0"/>
        <pt x="332" y="438" on="1"/>
        <pt x="252" y="438" on="0"/>
        <pt x="131" y="333" on="0"/>
        <pt x="118" y="248" on="1"/>
        <pt x="104" y="161" on="0"/>
        <pt x="192" y="55" on="0"/>
      </contour>
    </TTGlyph>
    <TTGlyph name="agrave.ss01" xMin="17" yMin="-13" xMax="501" yMax="707">
      <contour>
        <pt x="327" y="567" on="1"/>
        <pt x="190" y="707" on="1"/>
        <pt x="286" y="707" on="1"/>
        <pt x="398" y="567" on="1"/>
      </contour>
      <contour>
        <pt x="324" y="505" on="1"/>
        <pt x="423" y="505" on="0"/>
        <pt x="523" y="399" on="0"/>
        <pt x="501" y="306" on="1"/>
        <pt x="431" y="0" on="1"/>
        <pt x="357" y="0" on="1"/>
        <pt x="373" y="68" on="1"/>
        <pt x="292" y="-13" on="0"/>
        <pt x="178" y="-13" on="1"/>
        <pt x="104" y="-13" on="0"/>
        <pt x="17" y="57" on="0"/>
        <pt x="17" y="117" on="1"/>
        <pt x="17" y="190" on="0"/>
        <pt x="143" y="291" on="0"/>
        <pt x="250" y="291" on="1"/>
        <pt x="424" y="291" on="1"/>
        <pt x="430" y="315" on="1"/>
        <pt x="443" y="372" on="0"/>
        <pt x="380" y="440" on="0"/>
        <pt x="318" y="440" on="1"/>
        <pt x="263" y="440" on="0"/>
        <pt x="172" y="385" on="0"/>
        <pt x="153" y="339" on="1"/>
        <pt x="84" y="358" on="1"/>
        <pt x="111" y="424" on="0"/>
        <pt x="244" y="505" on="0"/>
      </contour>
      <contour>
        <pt x="404" y="201" on="1"/>
        <pt x="411" y="231" on="1"/>
        <pt x="234" y="231" on="1"/>
        <pt x="170" y="231" on="0"/>
        <pt x="93" y="171" on="0"/>
        <pt x="93" y="129" on="1"/>
        <pt x="93" y="92" on="0"/>
        <pt x="153" y="50" on="0"/>
        <pt x="202" y="50" on="1"/>
        <pt x="275" y="50" on="0"/>
        <pt x="389" y="137" on="0"/>
      </contour>
    </TTGlyph>
    <TTGlyph name="amacron" xMin="43" yMin="-13" xMax="620" yMax="646">
      <contour>
        <pt x="534" y="584" on="1"/>
        <pt x="250" y="584" on="1"/>
        <pt x="264" y="646" on="1"/>
        <pt x="548" y="646" on="1"/>
      </contour>
      <contour>
        <pt x="620" y="493" on="1"/>
        <pt x="506" y="0" on="1"/>
        <pt x="429" y="0" on="1"/>
        <pt x="446" y="72" on="1"/>
        <pt x="366" y="-13" on="0"/>
        <pt x="248" y="-13" on="1"/>
        <pt x="147" y="-13" on="0"/>
        <pt x="25" y="134" on="0"/>
        <pt x="43" y="248" on="1"/>
        <pt x="61" y="363" on="0"/>
        <pt x="224" y="505" on="0"/>
        <pt x="330" y="505" on="1"/>
        <pt x="400" y="505" on="0"/>
        <pt x="498" y="443" on="0"/>
        <pt x="519" y="387" on="1"/>
        <pt x="543" y="493" on="1"/>
      </contour>
      <contour>
        <pt x="270" y="55" on="1"/>
        <pt x="343" y="55" on="0"/>
        <pt x="471" y="163" on="0"/>
        <pt x="485" y="248" on="1"/>
        <pt x="499" y="332" on="0"/>
        <pt x="405" y="438" on="0"/>
        <pt x="332" y="438" on="1"/>
        <pt x="252" y="438" on="0"/>
        <pt x="131" y="333" on="0"/>
        <pt x="118" y="248" on="1"/>
        <pt x="104" y="161" on="0"/>
        <pt x="192" y="55" on="0"/>
      </contour>
    </TTGlyph>
    <TTGlyph name="amacron.ss01" xMin="17" yMin="-13" xMax="522" yMax="646">
      <contour>
        <pt x="522" y="646" on="1"/>
        <pt x="508" y="584" on="1"/>
        <pt x="224" y="584" on="1"/>
        <pt x="238" y="646" on="1"/>
      </contour>
      <contour>
        <pt x="324" y="505" on="1"/>
        <pt x="423" y="505" on="0"/>
        <pt x="523" y="399" on="0"/>
        <pt x="501" y="306" on="1"/>
        <pt x="431" y="0" on="1"/>
        <pt x="357" y="0" on="1"/>
        <pt x="373" y="68" on="1"/>
        <pt x="292" y="-13" on="0"/>
        <pt x="178" y="-13" on="1"/>
        <pt x="104" y="-13" on="0"/>
        <pt x="17" y="57" on="0"/>
        <pt x="17" y="117" on="1"/>
        <pt x="17" y="190" on="0"/>
        <pt x="143" y="291" on="0"/>
        <pt x="250" y="291" on="1"/>
        <pt x="424" y="291" on="1"/>
        <pt x="430" y="315" on="1"/>
        <pt x="443" y="372" on="0"/>
        <pt x="380" y="440" on="0"/>
        <pt x="318" y="440" on="1"/>
        <pt x="263" y="440" on="0"/>
        <pt x="172" y="385" on="0"/>
        <pt x="153" y="339" on="1"/>
        <pt x="84" y="358" on="1"/>
        <pt x="111" y="424" on="0"/>
        <pt x="244" y="505" on="0"/>
      </contour>
      <contour>
        <pt x="404" y="201" on="1"/>
        <pt x="411" y="231" on="1"/>
        <pt x="234" y="231" on="1"/>
        <pt x="170" y="231" on="0"/>
        <pt x="93" y="171" on="0"/>
        <pt x="93" y="129" on="1"/>
        <pt x="93" y="92" on="0"/>
        <pt x="153" y="50" on="0"/>
        <pt x="202" y="50" on="1"/>
        <pt x="275" y="50" on="0"/>
        <pt x="389" y="137" on="0"/>
      </contour>
    </TTGlyph>
    <TTGlyph name="ampersand" xMin="47" yMin="-20" xMax="638" yMax="683">
      <contour>
        <pt x="582" y="-20" on="1"/>
        <pt x="492" y="75" on="1"/>
        <pt x="391" y="-14" on="0"/>
        <pt x="257" y="-14" on="1"/>
        <pt x="162" y="-14" on="0"/>
        <pt x="47" y="76" on="0"/>
        <pt x="47" y="153" on="1"/>
        <pt x="47" y="224" on="0"/>
        <pt x="145" y="336" on="0"/>
        <pt x="224" y="368" on="1"/>
        <pt x="193" y="421" on="0"/>
        <pt x="193" y="475" on="1"/>
        <pt x="193" y="564" on="0"/>
        <pt x="318" y="683" on="0"/>
        <pt x="419" y="683" on="1"/>
        <pt x="494" y="683" on="0"/>
        <pt x="583" y="613" on="0"/>
        <pt x="588" y="549" on="1"/>
        <pt x="513" y="536" on="1"/>
        <pt x="509" y="576" on="0"/>
        <pt x="455" y="618" on="0"/>
        <pt x="411" y="618" on="1"/>
        <pt x="349" y="618" on="0"/>
        <pt x="268" y="541" on="0"/>
        <pt x="268" y="483" on="1"/>
        <pt x="268" y="442" on="0"/>
        <pt x="316" y="363" on="0"/>
        <pt x="371" y="309" on="1"/>
        <pt x="498" y="177" on="1"/>
        <pt x="534" y="230" on="0"/>
        <pt x="550" y="297" on="1"/>
        <pt x="560" y="340" on="1"/>
        <pt x="629" y="340" on="1"/>
        <pt x="619" y="297" on="1"/>
        <pt x="596" y="202" on="0"/>
        <pt x="543" y="130" on="1"/>
        <pt x="638" y="32" on="1"/>
      </contour>
      <contour>
        <pt x="264" y="52" on="1"/>
        <pt x="368" y="52" on="0"/>
        <pt x="447" y="121" on="1"/>
        <pt x="304" y="271" on="1"/>
        <pt x="275" y="300" on="0"/>
        <pt x="258" y="321" on="1"/>
        <pt x="196" y="296" on="0"/>
        <pt x="124" y="212" on="0"/>
        <pt x="124" y="163" on="1"/>
        <pt x="124" y="112" on="0"/>
        <pt x="200" y="52" on="0"/>
      </contour>
    </TTGlyph>
    <TTGlyph name="aogonek" xMin="43" yMin="-201" xMax="620" yMax="505">
      <contour>
        <pt x="620" y="493" on="1"/>
        <pt x="506" y="0" on="1"/>
        <pt x="497" y="-8" on="0"/>
        <pt x="465" y="-34" on="0"/>
        <pt x="453" y="-45" on="0"/>
        <pt x="432" y="-65" on="0"/>
        <pt x="424" y="-75" on="0"/>
        <pt x="413" y="-90" on="0"/>
        <pt x="410" y="-104" on="0"/>
        <pt x="410" y="-111" on="1"/>
        <pt x="410" y="-145" on="0"/>
        <pt x="450" y="-145" on="1"/>
        <pt x="463" y="-145" on="0"/>
        <pt x="498" y="-135" on="1"/>
        <pt x="490" y="-185" on="1"/>
        <pt x="454" y="-201" on="0"/>
        <pt x="427" y="-201" on="1"/>
        <pt x="392" y="-201" on="0"/>
        <pt x="348" y="-161" on="0"/>
        <pt x="348" y="-128" on="1"/>
        <pt x="348" y="-98" on="0"/>
        <pt x="391" y="-42" on="0"/>
        <pt x="446" y="0" on="1"/>
        <pt x="429" y="0" on="1"/>
        <pt x="446" y="72" on="1"/>
        <pt x="366" y="-13" on="0"/>
        <pt x="248" y="-13" on="1"/>
        <pt x="147" y="-13" on="0"/>
        <pt x="25" y="134" on="0"/>
        <pt x="43" y="248" on="1"/>
        <pt x="61" y="363" on="0"/>
        <pt x="224" y="505" on="0"/>
        <pt x="330" y="505" on="1"/>
        <pt x="400" y="505" on="0"/>
        <pt x="498" y="443" on="0"/>
        <pt x="519" y="387" on="1"/>
        <pt x="543" y="493" on="1"/>
      </contour>
      <contour>
        <pt x="270" y="55" on="1"/>
        <pt x="343" y="55" on="0"/>
        <pt x="471" y="163" on="0"/>
        <pt x="485" y="248" on="1"/>
        <pt x="499" y="332" on="0"/>
        <pt x="405" y="438" on="0"/>
        <pt x="332" y="438" on="1"/>
        <pt x="252" y="438" on="0"/>
        <pt x="131" y="333" on="0"/>
        <pt x="118" y="248" on="1"/>
        <pt x="104" y="161" on="0"/>
        <pt x="192" y="55" on="0"/>
      </contour>
    </TTGlyph>
    <TTGlyph name="aogonek.ss01" xMin="17" yMin="-201" xMax="501" yMax="505">
      <contour>
        <pt x="324" y="505" on="1"/>
        <pt x="423" y="505" on="0"/>
        <pt x="523" y="399" on="0"/>
        <pt x="501" y="306" on="1"/>
        <pt x="431" y="0" on="1"/>
        <pt x="422" y="-8" on="0"/>
        <pt x="390" y="-34" on="0"/>
        <pt x="378" y="-45" on="0"/>
        <pt x="357" y="-65" on="0"/>
        <pt x="349" y="-75" on="0"/>
        <pt x="338" y="-90" on="0"/>
        <pt x="335" y="-104" on="0"/>
        <pt x="335" y="-111" on="1"/>
        <pt x="335" y="-145" on="0"/>
        <pt x="375" y="-145" on="1"/>
        <pt x="388" y="-145" on="0"/>
        <pt x="423" y="-135" on="1"/>
        <pt x="415" y="-185" on="1"/>
        <pt x="379" y="-201" on="0"/>
        <pt x="352" y="-201" on="1"/>
        <pt x="317" y="-201" on="0"/>
        <pt x="273" y="-161" on="0"/>
        <pt x="273" y="-128" on="1"/>
        <pt x="273" y="-98" on="0"/>
        <pt x="316" y="-42" on="0"/>
        <pt x="371" y="0" on="1"/>
        <pt x="357" y="0" on="1"/>
        <pt x="373" y="68" on="1"/>
        <pt x="292" y="-13" on="0"/>
        <pt x="178" y="-13" on="1"/>
        <pt x="104" y="-13" on="0"/>
        <pt x="17" y="57" on="0"/>
        <pt x="17" y="117" on="1"/>
        <pt x="17" y="190" on="0"/>
        <pt x="143" y="291" on="0"/>
        <pt x="250" y="291" on="1"/>
        <pt x="424" y="291" on="1"/>
        <pt x="430" y="315" on="1"/>
        <pt x="443" y="372" on="0"/>
        <pt x="380" y="440" on="0"/>
        <pt x="318" y="440" on="1"/>
        <pt x="263" y="440" on="0"/>
        <pt x="172" y="385" on="0"/>
        <pt x="153" y="339" on="1"/>
        <pt x="84" y="358" on="1"/>
        <pt x="111" y="424" on="0"/>
        <pt x="244" y="505" on="0"/>
      </contour>
      <contour>
        <pt x="404" y="201" on="1"/>
        <pt x="411" y="231" on="1"/>
        <pt x="234" y="231" on="1"/>
        <pt x="170" y="231" on="0"/>
        <pt x="93" y="171" on="0"/>
        <pt x="93" y="129" on="1"/>
        <pt x="93" y="92" on="0"/>
        <pt x="153" y="50" on="0"/>
        <pt x="202" y="50" on="1"/>
        <pt x="275" y="50" on="0"/>
        <pt x="389" y="137" on="0"/>
      </contour>
    </TTGlyph>
    <TTGlyph name="approxequal" xMin="62" yMin="185" xMax="554" yMax="463">
      <contour>
        <pt x="554" y="433" on="1"/>
        <pt x="538" y="365" on="1"/>
        <pt x="494" y="344" on="0"/>
        <pt x="435" y="344" on="1"/>
        <pt x="384" y="344" on="0"/>
        <pt x="266" y="398" on="0"/>
        <pt x="219" y="398" on="1"/>
        <pt x="142" y="398" on="0"/>
        <pt x="98" y="365" on="1"/>
        <pt x="114" y="431" on="1"/>
        <pt x="160" y="463" on="0"/>
        <pt x="233" y="463" on="1"/>
        <pt x="282" y="463" on="0"/>
        <pt x="404" y="408" on="0"/>
        <pt x="451" y="408" on="1"/>
        <pt x="510" y="408" on="0"/>
      </contour>
      <contour>
        <pt x="517" y="274" on="1"/>
        <pt x="502" y="207" on="1"/>
        <pt x="455" y="185" on="0"/>
        <pt x="398" y="185" on="1"/>
        <pt x="347" y="185" on="0"/>
        <pt x="229" y="240" on="0"/>
        <pt x="182" y="240" on="1"/>
        <pt x="106" y="240" on="0"/>
        <pt x="62" y="207" on="1"/>
        <pt x="77" y="273" on="1"/>
        <pt x="123" y="305" on="0"/>
        <pt x="197" y="305" on="1"/>
        <pt x="246" y="305" on="0"/>
        <pt x="367" y="250" on="0"/>
        <pt x="414" y="250" on="1"/>
        <pt x="474" y="250" on="0"/>
      </contour>
    </TTGlyph>
    <TTGlyph name="approxequal.tf" xMin="76" yMin="185" xMax="568" yMax="463">
      <contour>
        <pt x="568" y="433" on="1"/>
        <pt x="553" y="365" on="1"/>
        <pt x="508" y="344" on="0"/>
        <pt x="449" y="344" on="1"/>
        <pt x="398" y="344" on="0"/>
        <pt x="280" y="398" on="0"/>
        <pt x="233" y="398" on="1"/>
        <pt x="157" y="398" on="0"/>
        <pt x="113" y="365" on="1"/>
        <pt x="128" y="431" on="1"/>
        <pt x="174" y="463" on="0"/>
        <pt x="248" y="463" on="1"/>
        <pt x="297" y="463" on="0"/>
        <pt x="418" y="408" on="0"/>
        <pt x="465" y="408" on="1"/>
        <pt x="525" y="408" on="0"/>
      </contour>
      <contour>
        <pt x="532" y="274" on="1"/>
        <pt x="516" y="207" on="1"/>
        <pt x="470" y="185" on="0"/>
        <pt x="412" y="185" on="1"/>
        <pt x="362" y="185" on="0"/>
        <pt x="243" y="240" on="0"/>
        <pt x="196" y="240" on="1"/>
        <pt x="122" y="240" on="0"/>
        <pt x="76" y="207" on="1"/>
        <pt x="91" y="273" on="1"/>
        <pt x="138" y="305" on="0"/>
        <pt x="211" y="305" on="1"/>
        <pt x="260" y="305" on="0"/>
        <pt x="382" y="250" on="0"/>
        <pt x="429" y="250" on="1"/>
        <pt x="488" y="250" on="0"/>
      </contour>
    </TTGlyph>
    <TTGlyph name="aring" xMin="43" yMin="-13" xMax="620" yMax="750">
      <contour>
        <pt x="397" y="549" on="1"/>
        <pt x="356" y="549" on="0"/>
        <pt x="302" y="604" on="0"/>
        <pt x="302" y="643" on="1"/>
        <pt x="302" y="687" on="0"/>
        <pt x="368" y="750" on="0"/>
        <pt x="414" y="750" on="1"/>
        <pt x="455" y="750" on="0"/>
        <pt x="509" y="696" on="0"/>
        <pt x="509" y="657" on="1"/>
        <pt x="509" y="613" on="0"/>
        <pt x="443" y="549" on="0"/>
      </contour>
      <contour>
        <pt x="410" y="704" on="1"/>
        <pt x="386" y="704" on="0"/>
        <pt x="351" y="670" on="0"/>
        <pt x="351" y="646" on="1"/>
        <pt x="351" y="625" on="0"/>
        <pt x="379" y="596" on="0"/>
        <pt x="401" y="596" on="1"/>
        <pt x="426" y="596" on="0"/>
        <pt x="462" y="631" on="0"/>
        <pt x="462" y="654" on="1"/>
        <pt x="462" y="675" on="0"/>
        <pt x="432" y="704" on="0"/>
      </contour>
      <contour>
        <pt x="620" y="493" on="1"/>
        <pt x="506" y="0" on="1"/>
        <pt x="429" y="0" on="1"/>
        <pt x="446" y="72" on="1"/>
        <pt x="366" y="-13" on="0"/>
        <pt x="248" y="-13" on="1"/>
        <pt x="147" y="-13" on="0"/>
        <pt x="25" y="134" on="0"/>
        <pt x="43" y="248" on="1"/>
        <pt x="61" y="363" on="0"/>
        <pt x="224" y="505" on="0"/>
        <pt x="330" y="505" on="1"/>
        <pt x="400" y="505" on="0"/>
        <pt x="498" y="443" on="0"/>
        <pt x="519" y="387" on="1"/>
        <pt x="543" y="493" on="1"/>
      </contour>
      <contour>
        <pt x="270" y="55" on="1"/>
        <pt x="343" y="55" on="0"/>
        <pt x="471" y="163" on="0"/>
        <pt x="485" y="248" on="1"/>
        <pt x="499" y="332" on="0"/>
        <pt x="405" y="438" on="0"/>
        <pt x="332" y="438" on="1"/>
        <pt x="252" y="438" on="0"/>
        <pt x="131" y="333" on="0"/>
        <pt x="118" y="248" on="1"/>
        <pt x="104" y="161" on="0"/>
        <pt x="192" y="55" on="0"/>
      </contour>
    </TTGlyph>
    <TTGlyph name="aring.ss01" xMin="17" yMin="-13" xMax="501" yMax="750">
      <contour>
        <pt x="371" y="549" on="1"/>
        <pt x="330" y="549" on="0"/>
        <pt x="276" y="604" on="0"/>
        <pt x="276" y="643" on="1"/>
        <pt x="276" y="687" on="0"/>
        <pt x="342" y="750" on="0"/>
        <pt x="388" y="750" on="1"/>
        <pt x="429" y="750" on="0"/>
        <pt x="483" y="696" on="0"/>
        <pt x="483" y="657" on="1"/>
        <pt x="483" y="613" on="0"/>
        <pt x="417" y="549" on="0"/>
      </contour>
      <contour>
        <pt x="384" y="704" on="1"/>
        <pt x="360" y="704" on="0"/>
        <pt x="325" y="670" on="0"/>
        <pt x="325" y="646" on="1"/>
        <pt x="325" y="625" on="0"/>
        <pt x="353" y="596" on="0"/>
        <pt x="375" y="596" on="1"/>
        <pt x="400" y="596" on="0"/>
        <pt x="436" y="631" on="0"/>
        <pt x="436" y="654" on="1"/>
        <pt x="436" y="675" on="0"/>
        <pt x="406" y="704" on="0"/>
      </contour>
      <contour>
        <pt x="324" y="505" on="1"/>
        <pt x="423" y="505" on="0"/>
        <pt x="523" y="399" on="0"/>
        <pt x="501" y="306" on="1"/>
        <pt x="431" y="0" on="1"/>
        <pt x="357" y="0" on="1"/>
        <pt x="373" y="68" on="1"/>
        <pt x="292" y="-13" on="0"/>
        <pt x="178" y="-13" on="1"/>
        <pt x="104" y="-13" on="0"/>
        <pt x="17" y="57" on="0"/>
        <pt x="17" y="117" on="1"/>
        <pt x="17" y="190" on="0"/>
        <pt x="143" y="291" on="0"/>
        <pt x="250" y="291" on="1"/>
        <pt x="424" y="291" on="1"/>
        <pt x="430" y="315" on="1"/>
        <pt x="443" y="372" on="0"/>
        <pt x="380" y="440" on="0"/>
        <pt x="318" y="440" on="1"/>
        <pt x="263" y="440" on="0"/>
        <pt x="172" y="385" on="0"/>
        <pt x="153" y="339" on="1"/>
        <pt x="84" y="358" on="1"/>
        <pt x="111" y="424" on="0"/>
        <pt x="244" y="505" on="0"/>
      </contour>
      <contour>
        <pt x="404" y="201" on="1"/>
        <pt x="411" y="231" on="1"/>
        <pt x="234" y="231" on="1"/>
        <pt x="170" y="231" on="0"/>
        <pt x="93" y="171" on="0"/>
        <pt x="93" y="129" on="1"/>
        <pt x="93" y="92" on="0"/>
        <pt x="153" y="50" on="0"/>
        <pt x="202" y="50" on="1"/>
        <pt x="275" y="50" on="0"/>
        <pt x="389" y="137" on="0"/>
      </contour>
    </TTGlyph>
    <TTGlyph name="arrowdown" xMin="40" yMin="-7" xMax="708" yMax="670">
      <contour>
        <pt x="708" y="327" on="1"/>
        <pt x="374" y="-7" on="1"/>
        <pt x="40" y="327" on="1"/>
        <pt x="97" y="383" on="1"/>
        <pt x="335" y="144" on="1"/>
        <pt x="335" y="670" on="1"/>
        <pt x="414" y="670" on="1"/>
        <pt x="414" y="145" on="1"/>
        <pt x="651" y="383" on="1"/>
      </contour>
    </TTGlyph>
    <TTGlyph name="arrowleft" xMin="10" yMin="-10" xMax="687" yMax="658">
      <contour>
        <pt x="687" y="285" on="1"/>
        <pt x="161" y="285" on="1"/>
        <pt x="400" y="47" on="1"/>
        <pt x="344" y="-10" on="1"/>
        <pt x="10" y="324" on="1"/>
        <pt x="344" y="658" on="1"/>
        <pt x="400" y="602" on="1"/>
        <pt x="162" y="364" on="1"/>
        <pt x="687" y="364" on="1"/>
      </contour>
    </TTGlyph>
    <TTGlyph name="arrowright" xMin="40" yMin="-10" xMax="717" yMax="658">
      <contour>
        <pt x="717" y="324" on="1"/>
        <pt x="384" y="-10" on="1"/>
        <pt x="328" y="47" on="1"/>
        <pt x="566" y="285" on="1"/>
        <pt x="40" y="285" on="1"/>
        <pt x="40" y="364" on="1"/>
        <pt x="565" y="364" on="1"/>
        <pt x="327" y="602" on="1"/>
        <pt x="383" y="658" on="1"/>
      </contour>
    </TTGlyph>
    <TTGlyph name="arrowup" xMin="40" yMin="0" xMax="708" yMax="677">
      <contour>
        <pt x="651" y="288" on="1"/>
        <pt x="414" y="525" on="1"/>
        <pt x="414" y="0" on="1"/>
        <pt x="335" y="0" on="1"/>
        <pt x="335" y="526" on="1"/>
        <pt x="97" y="287" on="1"/>
        <pt x="40" y="343" on="1"/>
        <pt x="374" y="677" on="1"/>
        <pt x="708" y="344" on="1"/>
      </contour>
    </TTGlyph>
    <TTGlyph name="asciicircum" xMin="74" yMin="456" xMax="418" yMax="670">
      <contour>
        <pt x="148" y="456" on="1"/>
        <pt x="74" y="456" on="1"/>
        <pt x="268" y="670" on="1"/>
        <pt x="322" y="670" on="1"/>
        <pt x="418" y="456" on="1"/>
        <pt x="352" y="456" on="1"/>
        <pt x="284" y="604" on="1"/>
      </contour>
    </TTGlyph>
    <TTGlyph name="asciitilde" xMin="43" yMin="235" xMax="461" yMax="366">
      <contour>
        <pt x="106" y="238" on="1"/>
        <pt x="43" y="238" on="1"/>
        <pt x="58" y="303" on="0"/>
        <pt x="137" y="366" on="0"/>
        <pt x="182" y="366" on="1"/>
        <pt x="215" y="366" on="0"/>
        <pt x="264" y="334" on="0"/>
        <pt x="303" y="302" on="0"/>
        <pt x="325" y="302" on="1"/>
        <pt x="351" y="302" on="0"/>
        <pt x="388" y="336" on="0"/>
        <pt x="394" y="365" on="1"/>
        <pt x="461" y="365" on="1"/>
        <pt x="446" y="300" on="0"/>
        <pt x="362" y="235" on="0"/>
        <pt x="317" y="235" on="1"/>
        <pt x="284" y="235" on="0"/>
        <pt x="235" y="267" on="0"/>
        <pt x="197" y="299" on="0"/>
        <pt x="176" y="299" on="1"/>
        <pt x="149" y="299" on="0"/>
        <pt x="111" y="265" on="0"/>
      </contour>
    </TTGlyph>
    <TTGlyph name="asterisk" xMin="110" yMin="368" xMax="479" yMax="719">
      <contour>
        <pt x="342" y="526" on="1"/>
        <pt x="431" y="420" on="1"/>
        <pt x="393" y="388" on="1"/>
        <pt x="305" y="492" on="1"/>
        <pt x="260" y="368" on="1"/>
        <pt x="207" y="387" on="1"/>
        <pt x="252" y="511" on="1"/>
        <pt x="119" y="488" on="1"/>
        <pt x="110" y="537" on="1"/>
        <pt x="247" y="561" on="1"/>
        <pt x="157" y="667" on="1"/>
        <pt x="196" y="700" on="1"/>
        <pt x="283" y="596" on="1"/>
        <pt x="328" y="719" on="1"/>
        <pt x="381" y="700" on="1"/>
        <pt x="336" y="577" on="1"/>
        <pt x="470" y="600" on="1"/>
        <pt x="479" y="550" on="1"/>
      </contour>
    </TTGlyph>
    <TTGlyph name="at" xMin="68" yMin="-126" xMax="914" yMax="683">
      <contour>
        <pt x="562" y="683" on="1"/>
        <pt x="717" y="683" on="0"/>
        <pt x="914" y="501" on="0"/>
        <pt x="914" y="358" on="1"/>
        <pt x="914" y="310" on="0"/>
        <pt x="888" y="211" on="0"/>
        <pt x="838" y="123" on="0"/>
        <pt x="753" y="67" on="0"/>
        <pt x="700" y="67" on="1"/>
        <pt x="653" y="67" on="0"/>
        <pt x="599" y="110" on="0"/>
        <pt x="598" y="146" on="1"/>
        <pt x="531" y="71" on="0"/>
        <pt x="429" y="71" on="1"/>
        <pt x="354" y="71" on="0"/>
        <pt x="262" y="164" on="0"/>
        <pt x="262" y="242" on="1"/>
        <pt x="262" y="345" on="0"/>
        <pt x="406" y="482" on="0"/>
        <pt x="500" y="482" on="1"/>
        <pt x="555" y="482" on="0"/>
        <pt x="632" y="428" on="0"/>
        <pt x="648" y="380" on="1"/>
        <pt x="670" y="474" on="1"/>
        <pt x="723" y="474" on="1"/>
        <pt x="655" y="179" on="1"/>
        <pt x="648" y="150" on="0"/>
        <pt x="683" y="113" on="0"/>
        <pt x="715" y="113" on="1"/>
        <pt x="780" y="113" on="0"/>
        <pt x="861" y="265" on="0"/>
        <pt x="861" y="351" on="1"/>
        <pt x="861" y="478" on="0"/>
        <pt x="691" y="635" on="0"/>
        <pt x="555" y="635" on="1"/>
        <pt x="380" y="635" on="0"/>
        <pt x="121" y="396" on="0"/>
        <pt x="121" y="226" on="1"/>
        <pt x="121" y="94" on="0"/>
        <pt x="287" y="-76" on="0"/>
        <pt x="417" y="-76" on="1"/>
        <pt x="478" y="-76" on="0"/>
        <pt x="615" y="-39" on="0"/>
        <pt x="669" y="-6" on="1"/>
        <pt x="688" y="-49" on="1"/>
        <pt x="632" y="-85" on="0"/>
        <pt x="480" y="-126" on="0"/>
        <pt x="411" y="-126" on="1"/>
        <pt x="261" y="-126" on="0"/>
        <pt x="68" y="67" on="0"/>
        <pt x="68" y="218" on="1"/>
        <pt x="68" y="314" on="0"/>
        <pt x="149" y="488" on="0"/>
        <pt x="284" y="611" on="0"/>
        <pt x="465" y="683" on="0"/>
      </contour>
      <contour>
        <pt x="445" y="123" on="1"/>
        <pt x="513" y="123" on="0"/>
        <pt x="618" y="225" on="0"/>
        <pt x="618" y="302" on="1"/>
        <pt x="618" y="360" on="0"/>
        <pt x="551" y="428" on="0"/>
        <pt x="498" y="428" on="1"/>
        <pt x="430" y="428" on="0"/>
        <pt x="324" y="328" on="0"/>
        <pt x="324" y="251" on="1"/>
        <pt x="324" y="193" on="0"/>
        <pt x="392" y="123" on="0"/>
      </contour>
    </TTGlyph>
    <TTGlyph name="at.case" xMin="72" yMin="-86" xMax="919" yMax="723">
      <contour>
        <pt x="566" y="723" on="1"/>
        <pt x="722" y="723" on="0"/>
        <pt x="919" y="541" on="0"/>
        <pt x="919" y="398" on="1"/>
        <pt x="919" y="350" on="0"/>
        <pt x="893" y="251" on="0"/>
        <pt x="843" y="163" on="0"/>
        <pt x="758" y="107" on="0"/>
        <pt x="705" y="107" on="1"/>
        <pt x="658" y="107" on="0"/>
        <pt x="604" y="150" on="0"/>
        <pt x="602" y="186" on="1"/>
        <pt x="537" y="111" on="0"/>
        <pt x="434" y="111" on="1"/>
        <pt x="359" y="111" on="0"/>
        <pt x="266" y="205" on="0"/>
        <pt x="266" y="282" on="1"/>
        <pt x="266" y="385" on="0"/>
        <pt x="410" y="522" on="0"/>
        <pt x="504" y="522" on="1"/>
        <pt x="559" y="522" on="0"/>
        <pt x="636" y="468" on="0"/>
        <pt x="652" y="420" on="1"/>
        <pt x="674" y="514" on="1"/>
        <pt x="727" y="514" on="1"/>
        <pt x="659" y="219" on="1"/>
        <pt x="652" y="189" on="0"/>
        <pt x="687" y="153" on="0"/>
        <pt x="720" y="153" on="1"/>
        <pt x="785" y="153" on="0"/>
        <pt x="866" y="305" on="0"/>
        <pt x="866" y="391" on="1"/>
        <pt x="866" y="517" on="0"/>
        <pt x="695" y="675" on="0"/>
        <pt x="559" y="675" on="1"/>
        <pt x="384" y="675" on="0"/>
        <pt x="126" y="436" on="0"/>
        <pt x="126" y="266" on="1"/>
        <pt x="126" y="134" on="0"/>
        <pt x="292" y="-36" on="0"/>
        <pt x="422" y="-36" on="1"/>
        <pt x="483" y="-36" on="0"/>
        <pt x="621" y="1" on="0"/>
        <pt x="674" y="35" on="1"/>
        <pt x="693" y="-9" on="1"/>
        <pt x="637" y="-45" on="0"/>
        <pt x="484" y="-86" on="0"/>
        <pt x="415" y="-86" on="1"/>
        <pt x="265" y="-86" on="0"/>
        <pt x="72" y="107" on="0"/>
        <pt x="72" y="258" on="1"/>
        <pt x="72" y="386" on="0"/>
        <pt x="210" y="602" on="0"/>
        <pt x="437" y="723" on="0"/>
      </contour>
      <contour>
        <pt x="450" y="163" on="1"/>
        <pt x="517" y="163" on="0"/>
        <pt x="623" y="265" on="0"/>
        <pt x="623" y="342" on="1"/>
        <pt x="623" y="400" on="0"/>
        <pt x="555" y="468" on="0"/>
        <pt x="502" y="468" on="1"/>
        <pt x="435" y="468" on="0"/>
        <pt x="329" y="368" on="0"/>
        <pt x="329" y="291" on="1"/>
        <pt x="329" y="233" on="0"/>
        <pt x="397" y="163" on="0"/>
      </contour>
    </TTGlyph>
    <TTGlyph name="atilde" xMin="43" yMin="-13" xMax="620" yMax="695">
      <contour>
        <pt x="348" y="638" on="1"/>
        <pt x="330" y="638" on="0"/>
        <pt x="305" y="613" on="0"/>
        <pt x="300" y="593" on="1"/>
        <pt x="246" y="593" on="1"/>
        <pt x="258" y="645" on="0"/>
        <pt x="320" y="695" on="0"/>
        <pt x="357" y="695" on="1"/>
        <pt x="389" y="695" on="0"/>
        <pt x="447" y="647" on="0"/>
        <pt x="468" y="647" on="1"/>
        <pt x="485" y="647" on="0"/>
        <pt x="510" y="673" on="0"/>
        <pt x="515" y="694" on="1"/>
        <pt x="569" y="694" on="1"/>
        <pt x="557" y="641" on="0"/>
        <pt x="495" y="590" on="0"/>
        <pt x="459" y="590" on="1"/>
        <pt x="426" y="590" on="0"/>
        <pt x="368" y="638" on="0"/>
      </contour>
      <contour>
        <pt x="620" y="493" on="1"/>
        <pt x="506" y="0" on="1"/>
        <pt x="429" y="0" on="1"/>
        <pt x="446" y="72" on="1"/>
        <pt x="366" y="-13" on="0"/>
        <pt x="248" y="-13" on="1"/>
        <pt x="147" y="-13" on="0"/>
        <pt x="25" y="134" on="0"/>
        <pt x="43" y="248" on="1"/>
        <pt x="61" y="363" on="0"/>
        <pt x="224" y="505" on="0"/>
        <pt x="330" y="505" on="1"/>
        <pt x="400" y="505" on="0"/>
        <pt x="498" y="443" on="0"/>
        <pt x="519" y="387" on="1"/>
        <pt x="543" y="493" on="1"/>
      </contour>
      <contour>
        <pt x="270" y="55" on="1"/>
        <pt x="343" y="55" on="0"/>
        <pt x="471" y="163" on="0"/>
        <pt x="485" y="248" on="1"/>
        <pt x="499" y="332" on="0"/>
        <pt x="405" y="438" on="0"/>
        <pt x="332" y="438" on="1"/>
        <pt x="252" y="438" on="0"/>
        <pt x="131" y="333" on="0"/>
        <pt x="118" y="248" on="1"/>
        <pt x="104" y="161" on="0"/>
        <pt x="192" y="55" on="0"/>
      </contour>
    </TTGlyph>
    <TTGlyph name="atilde.ss01" xMin="17" yMin="-13" xMax="543" yMax="695">
      <contour>
        <pt x="322" y="638" on="1"/>
        <pt x="304" y="638" on="0"/>
        <pt x="279" y="613" on="0"/>
        <pt x="274" y="593" on="1"/>
        <pt x="220" y="593" on="1"/>
        <pt x="232" y="645" on="0"/>
        <pt x="294" y="695" on="0"/>
        <pt x="331" y="695" on="1"/>
        <pt x="363" y="695" on="0"/>
        <pt x="421" y="647" on="0"/>
        <pt x="442" y="647" on="1"/>
        <pt x="459" y="647" on="0"/>
        <pt x="484" y="673" on="0"/>
        <pt x="489" y="694" on="1"/>
        <pt x="543" y="694" on="1"/>
        <pt x="531" y="641" on="0"/>
        <pt x="469" y="590" on="0"/>
        <pt x="433" y="590" on="1"/>
        <pt x="400" y="590" on="0"/>
        <pt x="342" y="638" on="0"/>
      </contour>
      <contour>
        <pt x="324" y="505" on="1"/>
        <pt x="423" y="505" on="0"/>
        <pt x="523" y="399" on="0"/>
        <pt x="501" y="306" on="1"/>
        <pt x="431" y="0" on="1"/>
        <pt x="357" y="0" on="1"/>
        <pt x="373" y="68" on="1"/>
        <pt x="292" y="-13" on="0"/>
        <pt x="178" y="-13" on="1"/>
        <pt x="104" y="-13" on="0"/>
        <pt x="17" y="57" on="0"/>
        <pt x="17" y="117" on="1"/>
        <pt x="17" y="190" on="0"/>
        <pt x="143" y="291" on="0"/>
        <pt x="250" y="291" on="1"/>
        <pt x="424" y="291" on="1"/>
        <pt x="430" y="315" on="1"/>
        <pt x="443" y="372" on="0"/>
        <pt x="380" y="440" on="0"/>
        <pt x="318" y="440" on="1"/>
        <pt x="263" y="440" on="0"/>
        <pt x="172" y="385" on="0"/>
        <pt x="153" y="339" on="1"/>
        <pt x="84" y="358" on="1"/>
        <pt x="111" y="424" on="0"/>
        <pt x="244" y="505" on="0"/>
      </contour>
      <contour>
        <pt x="404" y="201" on="1"/>
        <pt x="411" y="231" on="1"/>
        <pt x="234" y="231" on="1"/>
        <pt x="170" y="231" on="0"/>
        <pt x="93" y="171" on="0"/>
        <pt x="93" y="129" on="1"/>
        <pt x="93" y="92" on="0"/>
        <pt x="153" y="50" on="0"/>
        <pt x="202" y="50" on="1"/>
        <pt x="275" y="50" on="0"/>
        <pt x="389" y="137" on="0"/>
      </contour>
    </TTGlyph>
    <TTGlyph name="b" xMin="31" yMin="-13" xMax="608" yMax="720">
      <contour>
        <pt x="403" y="505" on="1"/>
        <pt x="504" y="505" on="0"/>
        <pt x="626" y="359" on="0"/>
        <pt x="608" y="245" on="1"/>
        <pt x="590" y="130" on="0"/>
        <pt x="427" y="-13" on="0"/>
        <pt x="321" y="-13" on="1"/>
        <pt x="250" y="-13" on="0"/>
        <pt x="152" y="50" on="0"/>
        <pt x="132" y="107" on="1"/>
        <pt x="107" y="0" on="1"/>
        <pt x="31" y="0" on="1"/>
        <pt x="197" y="720" on="1"/>
        <pt x="274" y="720" on="1"/>
        <pt x="204" y="420" on="1"/>
        <pt x="284" y="505" on="0"/>
      </contour>
      <contour>
        <pt x="319" y="55" on="1"/>
        <pt x="399" y="55" on="0"/>
        <pt x="520" y="160" on="0"/>
        <pt x="533" y="245" on="1"/>
        <pt x="547" y="332" on="0"/>
        <pt x="459" y="438" on="0"/>
        <pt x="381" y="438" on="1"/>
        <pt x="308" y="438" on="0"/>
        <pt x="180" y="330" on="0"/>
        <pt x="166" y="245" on="1"/>
        <pt x="152" y="161" on="0"/>
        <pt x="246" y="55" on="0"/>
      </contour>
    </TTGlyph>
    <TTGlyph name="backslash" xMin="102" yMin="-72" xMax="267" yMax="741">
      <contour>
        <pt x="267" y="-72" on="1"/>
        <pt x="202" y="-72" on="1"/>
        <pt x="102" y="741" on="1"/>
        <pt x="167" y="741" on="1"/>
      </contour>
    </TTGlyph>
    <TTGlyph name="backslash.case" xMin="126" yMin="0" xMax="288" yMax="670">
      <contour>
        <pt x="288" y="0" on="1"/>
        <pt x="213" y="0" on="1"/>
        <pt x="126" y="670" on="1"/>
        <pt x="201" y="670" on="1"/>
      </contour>
    </TTGlyph>
    <TTGlyph name="bar" xMin="15" yMin="-72" xMax="277" yMax="741">
      <contour>
        <pt x="89" y="-72" on="1"/>
        <pt x="15" y="-72" on="1"/>
        <pt x="202" y="741" on="1"/>
        <pt x="277" y="741" on="1"/>
      </contour>
    </TTGlyph>
    <TTGlyph name="bar.case" xMin="22" yMin="-41" xMax="270" yMax="711">
      <contour>
        <pt x="96" y="-41" on="1"/>
        <pt x="22" y="-41" on="1"/>
        <pt x="195" y="711" on="1"/>
        <pt x="270" y="711" on="1"/>
      </contour>
    </TTGlyph>
    <TTGlyph name="braceleft" xMin="58" yMin="-82" xMax="489" yMax="741">
      <contour>
        <pt x="489" y="741" on="1"/>
        <pt x="474" y="675" on="1"/>
        <pt x="391" y="675" on="1"/>
        <pt x="362" y="675" on="0"/>
        <pt x="318" y="638" on="0"/>
        <pt x="311" y="608" on="1"/>
        <pt x="272" y="440" on="1"/>
        <pt x="252" y="354" on="0"/>
        <pt x="176" y="328" on="1"/>
        <pt x="206" y="314" on="0"/>
        <pt x="230" y="256" on="0"/>
        <pt x="221" y="219" on="1"/>
        <pt x="183" y="51" on="1"/>
        <pt x="176" y="20" on="0"/>
        <pt x="203" y="-17" on="0"/>
        <pt x="232" y="-17" on="1"/>
        <pt x="315" y="-17" on="1"/>
        <pt x="299" y="-82" on="1"/>
        <pt x="208" y="-82" on="1"/>
        <pt x="149" y="-82" on="0"/>
        <pt x="93" y="-13" on="0"/>
        <pt x="106" y="44" on="1"/>
        <pt x="145" y="211" on="1"/>
        <pt x="161" y="283" on="0"/>
        <pt x="79" y="295" on="1"/>
        <pt x="58" y="300" on="1"/>
        <pt x="72" y="359" on="1"/>
        <pt x="95" y="364" on="1"/>
        <pt x="183" y="374" on="0"/>
        <pt x="199" y="448" on="1"/>
        <pt x="238" y="615" on="1"/>
        <pt x="252" y="672" on="0"/>
        <pt x="339" y="741" on="0"/>
        <pt x="398" y="741" on="1"/>
      </contour>
    </TTGlyph>
    <TTGlyph name="braceleft.case" xMin="59" yMin="0" xMax="473" yMax="670">
      <contour>
        <pt x="473" y="670" on="1"/>
        <pt x="458" y="605" on="1"/>
        <pt x="375" y="605" on="1"/>
        <pt x="346" y="605" on="0"/>
        <pt x="302" y="568" on="0"/>
        <pt x="295" y="537" on="1"/>
        <pt x="273" y="443" on="1"/>
        <pt x="253" y="356" on="0"/>
        <pt x="178" y="332" on="1"/>
        <pt x="207" y="319" on="0"/>
        <pt x="231" y="260" on="0"/>
        <pt x="222" y="221" on="1"/>
        <pt x="202" y="134" on="1"/>
        <pt x="195" y="103" on="0"/>
        <pt x="222" y="66" on="0"/>
        <pt x="251" y="66" on="1"/>
        <pt x="334" y="66" on="1"/>
        <pt x="318" y="0" on="1"/>
        <pt x="227" y="0" on="1"/>
        <pt x="168" y="0" on="0"/>
        <pt x="113" y="69" on="0"/>
        <pt x="126" y="127" on="1"/>
        <pt x="145" y="213" on="1"/>
        <pt x="154" y="250" on="0"/>
        <pt x="118" y="293" on="0"/>
        <pt x="80" y="298" on="1"/>
        <pt x="59" y="303" on="1"/>
        <pt x="73" y="362" on="1"/>
        <pt x="96" y="367" on="1"/>
        <pt x="184" y="379" on="0"/>
        <pt x="200" y="451" on="1"/>
        <pt x="222" y="544" on="1"/>
        <pt x="235" y="601" on="0"/>
        <pt x="323" y="670" on="0"/>
        <pt x="382" y="670" on="1"/>
      </contour>
    </TTGlyph>
    <TTGlyph name="braceright" xMin="-20" yMin="-82" xMax="412" yMax="741">
      <contour>
        <pt x="412" y="359" on="1"/>
        <pt x="398" y="300" on="1"/>
        <pt x="374" y="295" on="1"/>
        <pt x="287" y="285" on="0"/>
        <pt x="270" y="211" on="1"/>
        <pt x="231" y="44" on="1"/>
        <pt x="218" y="-13" on="0"/>
        <pt x="131" y="-82" on="0"/>
        <pt x="72" y="-82" on="1"/>
        <pt x="-20" y="-82" on="1"/>
        <pt x="-5" y="-17" on="1"/>
        <pt x="78" y="-17" on="1"/>
        <pt x="107" y="-17" on="0"/>
        <pt x="151" y="21" on="0"/>
        <pt x="158" y="51" on="1"/>
        <pt x="197" y="219" on="1"/>
        <pt x="217" y="305" on="0"/>
        <pt x="293" y="331" on="1"/>
        <pt x="264" y="345" on="0"/>
        <pt x="240" y="403" on="0"/>
        <pt x="248" y="440" on="1"/>
        <pt x="287" y="608" on="1"/>
        <pt x="294" y="638" on="0"/>
        <pt x="267" y="675" on="0"/>
        <pt x="238" y="675" on="1"/>
        <pt x="155" y="675" on="1"/>
        <pt x="170" y="741" on="1"/>
        <pt x="262" y="741" on="1"/>
        <pt x="320" y="741" on="0"/>
        <pt x="376" y="672" on="0"/>
        <pt x="363" y="615" on="1"/>
        <pt x="325" y="448" on="1"/>
        <pt x="308" y="376" on="0"/>
        <pt x="390" y="364" on="1"/>
      </contour>
    </TTGlyph>
    <TTGlyph name="braceright.case" xMin="-2" yMin="0" xMax="413" yMax="670">
      <contour>
        <pt x="413" y="367" on="1"/>
        <pt x="399" y="308" on="1"/>
        <pt x="376" y="303" on="1"/>
        <pt x="288" y="293" on="0"/>
        <pt x="272" y="219" on="1"/>
        <pt x="250" y="127" on="1"/>
        <pt x="237" y="70" on="0"/>
        <pt x="149" y="0" on="0"/>
        <pt x="90" y="0" on="1"/>
        <pt x="-2" y="0" on="1"/>
        <pt x="14" y="66" on="1"/>
        <pt x="97" y="66" on="1"/>
        <pt x="126" y="66" on="0"/>
        <pt x="170" y="103" on="0"/>
        <pt x="177" y="134" on="1"/>
        <pt x="199" y="227" on="1"/>
        <pt x="219" y="313" on="0"/>
        <pt x="294" y="339" on="1"/>
        <pt x="265" y="353" on="0"/>
        <pt x="241" y="410" on="0"/>
        <pt x="250" y="449" on="1"/>
        <pt x="270" y="537" on="1"/>
        <pt x="277" y="568" on="0"/>
        <pt x="250" y="605" on="0"/>
        <pt x="221" y="605" on="1"/>
        <pt x="138" y="605" on="1"/>
        <pt x="154" y="670" on="1"/>
        <pt x="245" y="670" on="1"/>
        <pt x="304" y="670" on="0"/>
        <pt x="360" y="601" on="0"/>
        <pt x="346" y="544" on="1"/>
        <pt x="327" y="457" on="1"/>
        <pt x="318" y="421" on="0"/>
        <pt x="354" y="377" on="0"/>
        <pt x="392" y="372" on="1"/>
      </contour>
    </TTGlyph>
    <TTGlyph name="bracketleft" xMin="12" yMin="-82" xMax="450" yMax="741">
      <contour>
        <pt x="261" y="674" on="1"/>
        <pt x="101" y="-16" on="1"/>
        <pt x="276" y="-16" on="1"/>
        <pt x="260" y="-82" on="1"/>
        <pt x="12" y="-82" on="1"/>
        <pt x="202" y="741" on="1"/>
        <pt x="450" y="741" on="1"/>
        <pt x="435" y="674" on="1"/>
      </contour>
    </TTGlyph>
    <TTGlyph name="bracketleft.case" xMin="31" yMin="0" xMax="434" yMax="670">
      <contour>
        <pt x="245" y="604" on="1"/>
        <pt x="121" y="67" on="1"/>
        <pt x="295" y="67" on="1"/>
        <pt x="280" y="0" on="1"/>
        <pt x="31" y="0" on="1"/>
        <pt x="186" y="670" on="1"/>
        <pt x="434" y="670" on="1"/>
        <pt x="419" y="604" on="1"/>
      </contour>
    </TTGlyph>
    <TTGlyph name="bracketright" xMin="-21" yMin="-82" xMax="418" yMax="741">
      <contour>
        <pt x="418" y="741" on="1"/>
        <pt x="228" y="-82" on="1"/>
        <pt x="-21" y="-82" on="1"/>
        <pt x="-5" y="-16" on="1"/>
        <pt x="169" y="-16" on="1"/>
        <pt x="329" y="674" on="1"/>
        <pt x="154" y="674" on="1"/>
        <pt x="170" y="741" on="1"/>
      </contour>
    </TTGlyph>
    <TTGlyph name="bracketright.case" xMin="-2" yMin="0" xMax="402" yMax="670">
      <contour>
        <pt x="402" y="670" on="1"/>
        <pt x="247" y="0" on="1"/>
        <pt x="-2" y="0" on="1"/>
        <pt x="14" y="67" on="1"/>
        <pt x="188" y="67" on="1"/>
        <pt x="312" y="604" on="1"/>
        <pt x="138" y="604" on="1"/>
        <pt x="153" y="670" on="1"/>
      </contour>
    </TTGlyph>
    <TTGlyph name="breve" xMin="225" yMin="554" xMax="515" yMax="689">
      <contour>
        <pt x="408" y="554" on="0"/>
        <pt x="278" y="554" on="0"/>
        <pt x="212" y="628" on="0"/>
        <pt x="225" y="689" on="1"/>
        <pt x="286" y="689" on="1"/>
        <pt x="279" y="653" on="0"/>
        <pt x="316" y="609" on="0"/>
        <pt x="351" y="609" on="1"/>
        <pt x="385" y="609" on="0"/>
        <pt x="440" y="653" on="0"/>
        <pt x="447" y="689" on="1"/>
        <pt x="515" y="689" on="1"/>
        <pt x="502" y="628" on="0"/>
      </contour>
    </TTGlyph>
    <TTGlyph name="bullet" xMin="58" yMin="120" xMax="355" yMax="407">
      <contour>
        <pt x="143" y="407" on="0"/>
        <pt x="269" y="407" on="0"/>
        <pt x="355" y="322" on="0"/>
        <pt x="355" y="263" on="1"/>
        <pt x="355" y="202" on="0"/>
        <pt x="270" y="120" on="0"/>
        <pt x="142" y="120" on="0"/>
        <pt x="58" y="201" on="0"/>
        <pt x="58" y="263" on="1"/>
        <pt x="58" y="322" on="0"/>
      </contour>
    </TTGlyph>
    <TTGlyph name="bullet.case" xMin="74" yMin="188" xMax="371" yMax="475">
      <contour>
        <pt x="159" y="475" on="0"/>
        <pt x="285" y="475" on="0"/>
        <pt x="371" y="390" on="0"/>
        <pt x="371" y="331" on="1"/>
        <pt x="371" y="270" on="0"/>
        <pt x="286" y="188" on="0"/>
        <pt x="158" y="188" on="0"/>
        <pt x="74" y="269" on="0"/>
        <pt x="74" y="331" on="1"/>
        <pt x="74" y="390" on="0"/>
      </contour>
    </TTGlyph>
    <TTGlyph name="c" xMin="39" yMin="-13" xMax="545" yMax="505">
      <contour>
        <pt x="267" y="58" on="1"/>
        <pt x="324" y="58" on="0"/>
        <pt x="418" y="117" on="0"/>
        <pt x="443" y="169" on="1"/>
        <pt x="515" y="155" on="1"/>
        <pt x="483" y="79" on="0"/>
        <pt x="344" y="-13" on="0"/>
        <pt x="262" y="-13" on="1"/>
        <pt x="152" y="-13" on="0"/>
        <pt x="21" y="133" on="0"/>
        <pt x="39" y="246" on="1"/>
        <pt x="57" y="360" on="0"/>
        <pt x="230" y="505" on="0"/>
        <pt x="336" y="505" on="1"/>
        <pt x="419" y="505" on="0"/>
        <pt x="535" y="416" on="0"/>
        <pt x="545" y="341" on="1"/>
        <pt x="467" y="325" on="1"/>
        <pt x="461" y="376" on="0"/>
        <pt x="383" y="435" on="0"/>
        <pt x="327" y="435" on="1"/>
        <pt x="249" y="435" on="0"/>
        <pt x="127" y="329" on="0"/>
        <pt x="101" y="163" on="0"/>
        <pt x="190" y="58" on="0"/>
      </contour>
    </TTGlyph>
    <TTGlyph name="cacute" xMin="39" yMin="-13" xMax="545" yMax="707">
      <contour>
        <pt x="396" y="567" on="1"/>
        <pt x="324" y="567" on="1"/>
        <pt x="436" y="707" on="1"/>
        <pt x="533" y="707" on="1"/>
      </contour>
      <contour>
        <pt x="267" y="58" on="1"/>
        <pt x="324" y="58" on="0"/>
        <pt x="418" y="117" on="0"/>
        <pt x="443" y="169" on="1"/>
        <pt x="515" y="155" on="1"/>
        <pt x="483" y="79" on="0"/>
        <pt x="344" y="-13" on="0"/>
        <pt x="262" y="-13" on="1"/>
        <pt x="152" y="-13" on="0"/>
        <pt x="21" y="133" on="0"/>
        <pt x="39" y="246" on="1"/>
        <pt x="57" y="360" on="0"/>
        <pt x="230" y="505" on="0"/>
        <pt x="336" y="505" on="1"/>
        <pt x="419" y="505" on="0"/>
        <pt x="535" y="416" on="0"/>
        <pt x="545" y="341" on="1"/>
        <pt x="467" y="325" on="1"/>
        <pt x="461" y="376" on="0"/>
        <pt x="383" y="435" on="0"/>
        <pt x="327" y="435" on="1"/>
        <pt x="249" y="435" on="0"/>
        <pt x="127" y="329" on="0"/>
        <pt x="101" y="163" on="0"/>
        <pt x="190" y="58" on="0"/>
      </contour>
    </TTGlyph>
    <TTGlyph name="caron" xMin="221" yMin="560" xMax="528" yMax="702">
      <contour>
        <pt x="528" y="702" on="1"/>
        <pt x="378" y="560" on="1"/>
        <pt x="305" y="560" on="1"/>
        <pt x="221" y="702" on="1"/>
        <pt x="295" y="702" on="1"/>
        <pt x="348" y="610" on="1"/>
        <pt x="445" y="702" on="1"/>
      </contour>
    </TTGlyph>
    <TTGlyph name="caron.alt" xMin="302" yMin="478" xMax="419" yMax="650">
      <contour>
        <pt x="363" y="478" on="1"/>
        <pt x="302" y="478" on="1"/>
        <pt x="342" y="650" on="1"/>
        <pt x="419" y="650" on="1"/>
      </contour>
    </TTGlyph>
    <TTGlyph name="ccaron" xMin="39" yMin="-13" xMax="545" yMax="702">
      <contour>
        <pt x="317" y="560" on="1"/>
        <pt x="233" y="702" on="1"/>
        <pt x="307" y="702" on="1"/>
        <pt x="360" y="610" on="1"/>
        <pt x="457" y="702" on="1"/>
        <pt x="540" y="702" on="1"/>
        <pt x="390" y="560" on="1"/>
      </contour>
      <contour>
        <pt x="267" y="58" on="1"/>
        <pt x="324" y="58" on="0"/>
        <pt x="418" y="117" on="0"/>
        <pt x="443" y="169" on="1"/>
        <pt x="515" y="155" on="1"/>
        <pt x="483" y="79" on="0"/>
        <pt x="344" y="-13" on="0"/>
        <pt x="262" y="-13" on="1"/>
        <pt x="152" y="-13" on="0"/>
        <pt x="21" y="133" on="0"/>
        <pt x="39" y="246" on="1"/>
        <pt x="57" y="360" on="0"/>
        <pt x="230" y="505" on="0"/>
        <pt x="336" y="505" on="1"/>
        <pt x="419" y="505" on="0"/>
        <pt x="535" y="416" on="0"/>
        <pt x="545" y="341" on="1"/>
        <pt x="467" y="325" on="1"/>
        <pt x="461" y="376" on="0"/>
        <pt x="383" y="435" on="0"/>
        <pt x="327" y="435" on="1"/>
        <pt x="249" y="435" on="0"/>
        <pt x="127" y="329" on="0"/>
        <pt x="101" y="163" on="0"/>
        <pt x="190" y="58" on="0"/>
      </contour>
    </TTGlyph>
</ttFont>
